<svg width="700" height="320" viewBox="0 0 700 320" xmlns="http://www.w3.org/2000/svg" preserveAspectRatio="xMidYMid meet">
  <defs>
    <linearGradient id="barP" x1="0" y1="0" x2="1" y2="0">
      <stop offset="0%" stop-color="#5039CD"/><stop offset="100%" stop-color="#7C3AED"/>
    </linearGradient>
    <linearGradient id="barG" x1="0" y1="0" x2="1" y2="0">
      <stop offset="0%" stop-color="#2E7547"/><stop offset="100%" stop-color="#3D8959"/>
    </linearGradient>
  </defs>

  <rect width="700" height="320" fill="#ffffff"/>

  <text x="350" y="18" text-anchor="middle" font-family="Helvetica, Arial, sans-serif" font-size="12" font-weight="700" fill="#0F172A">Competitive landscape — agent platform category</text>
  <text x="350" y="34" text-anchor="middle" font-family="Helvetica, Arial, sans-serif" font-size="9.5" fill="#475569">Reference valuations and what each one signals to investors</text>

  <line x1="190" y1="50" x2="190" y2="288" stroke="#CBD5E1" stroke-width="1"/>
  <g font-family="Helvetica, Arial, sans-serif" font-size="9" fill="#64748B">
    <line x1="190" y1="288" x2="680" y2="288" stroke="#CBD5E1"/>
    <line x1="290" y1="285" x2="290" y2="291" stroke="#CBD5E1"/><text x="290" y="304" text-anchor="middle">$1B</text>
    <line x1="390" y1="285" x2="390" y2="291" stroke="#CBD5E1"/><text x="390" y="304" text-anchor="middle">$3B</text>
    <line x1="490" y1="285" x2="490" y2="291" stroke="#CBD5E1"/><text x="490" y="304" text-anchor="middle">$50B</text>
    <line x1="590" y1="285" x2="590" y2="291" stroke="#CBD5E1"/><text x="590" y="304" text-anchor="middle">$150B</text>
    <line x1="680" y1="285" x2="680" y2="291" stroke="#CBD5E1"/><text x="680" y="304" text-anchor="middle">$300B</text>
    <text x="435" y="318" text-anchor="middle" font-style="italic" font-size="8.5">(log-spaced axis)</text>
  </g>

  <g font-family="Helvetica, Arial, sans-serif" font-size="10.5" fill="#0F172A">
    <text x="180" y="68" text-anchor="end" font-weight="700">SOCIII (this round)</text>
    <rect x="190" y="52" width="50" height="26" fill="url(#barP)" opacity="0.35"/>
    <rect x="240" y="52" width="60" height="26" fill="url(#barP)" stroke-dasharray="4 3" stroke="#5039CD" stroke-width="1" fill-opacity="0.18"/>
    <text x="308" y="70" font-size="9.5" fill="#5039CD" font-style="italic">Finalized with lead · $1–2M raise</text>

    <text x="180" y="108" text-anchor="end" font-weight="700">OpenClaw (acq.)</text>
    <rect x="190" y="92" width="125" height="26" fill="#94A3B8"/>
    <text x="325" y="110" font-size="10" fill="#0F172A">Acquired for billions — proves the category</text>

    <text x="180" y="148" text-anchor="end" font-weight="700">Harvey AI</text>
    <rect x="190" y="132" width="220" height="26" fill="url(#barG)"/>
    <text x="196" y="150" font-size="10" fill="#ffffff" font-weight="700">$3B+ · vertical AI done right · VALIDATES THESIS</text>

    <text x="180" y="188" text-anchor="end" font-weight="700">Legacy SaaS stack</text>
    <rect x="190" y="172" width="430" height="26" fill="#1E293B"/>
    <text x="196" y="190" font-size="10" fill="#ffffff" font-weight="700">$40B – $300B combined · WE REPLACE THIS</text>

    <text x="180" y="228" text-anchor="end" font-weight="700">ChatGPT</text>
    <rect x="190" y="212" width="490" height="26" fill="#475569"/>
    <text x="196" y="230" font-size="10" fill="#ffffff" font-weight="700">$157B+ · NOT OUR MARKET · cannot move into compliance</text>

    <text x="180" y="268" text-anchor="end" font-weight="700" fill="#5039CD">SOCIII plays here</text>
    <rect x="190" y="252" width="540" height="26" fill="url(#barP)"/>
    <text x="196" y="270" font-size="10" fill="#ffffff" font-weight="700">RAAS compliance · 1,000+ workers · Built. Deployed. Running.</text>
  </g>
</svg>
