
<svg version="1.1" xmlns="http://www.w3.org/2000/svg" width="268" height="284" viewBox="0 0 268 284" preserveAspectRatio="xMidYMid meet">
<path d="M0 0 C88.44 0 176.88 0 268 0 C268 93.72 268 187.44 268 284 C179.56 284 91.12 284 0 284 C0 190.28 0 96.56 0 0 Z " fill="#010918" transform="translate(0,0)" />
<path d="M0 0 C88.44 0 176.88 0 268 0 C268 93.72 268 187.44 268 284 C179.56 284 91.12 284 0 284 C0 190.28 0 96.56 0 0 Z M124 18.1875 C123.32412842 18.53844727 122.64825684 18.88939453 121.9519043 19.25097656 C111.82731128 24.57341338 101.92318148 30.31458305 92 36 C90.19944633 37.02774257 88.39867198 38.05509862 86.59765625 39.08203125 C82.27076953 41.55040025 77.94667773 44.0236157 73.62353516 46.49853516 C70.007043 48.56827522 66.38911361 50.63549541 62.77099609 52.70239258 C60.98328099 53.723875 59.19584028 54.74583779 57.40869141 55.76831055 C53.57347207 57.9620967 49.73649071 60.15214825 45.88671875 62.3203125 C40.83260681 65.16972566 35.7895051 68.03951783 30.875 71.125 C30.21242188 71.54007813 29.54984375 71.95515625 28.8671875 72.3828125 C26.25038944 74.6492443 24.36414385 76.82706289 23 80 C22.41410174 83.8978227 22.4637157 87.75787766 22.49829102 91.69335938 C22.49288803 92.86477982 22.48748505 94.03620026 22.48191833 95.24311829 C22.46942447 99.11025355 22.4859277 102.97664534 22.50390625 106.84375 C22.50566109 109.5336547 22.50231638 112.2235489 22.49949646 114.91345215 C22.49679768 120.54899756 22.51024106 126.18432959 22.53344727 131.81982422 C22.56005509 138.32623545 22.56180296 144.83229001 22.5500589 151.33873701 C22.5392627 157.60931916 22.54548258 163.87977287 22.55961418 170.15034485 C22.56535816 172.81373717 22.56446462 175.47688 22.56054878 178.14030457 C22.55763794 181.86263518 22.57413888 185.58438358 22.59594727 189.30664062 C22.59144562 190.40708206 22.58694397 191.5075235 22.58230591 192.64131165 C22.63604788 198.16323762 22.81762527 202.26453731 26 207 C32.16585344 212.62915693 40.09466884 216.39105944 47.4375 220.25 C57.23780342 225.48158835 66.89740972 230.89666865 76.47753906 236.51953125 C81.27203183 239.33348829 86.07385049 242.1349206 90.875 244.9375 C91.88046875 245.52442627 92.8859375 246.11135254 93.921875 246.71606445 C100.76822121 250.70848309 107.62521925 254.68173185 114.5 258.625 C115.34159668 259.10960693 116.18319336 259.59421387 117.05029297 260.09350586 C119.35758943 261.41299248 121.67787436 262.70685861 124 264 C124.69996094 264.41475586 125.39992188 264.82951172 126.12109375 265.25683594 C129.41895735 267.10674119 131.51685789 267.98704864 135.3515625 268.08984375 C140.43212639 266.57220208 144.77766296 264.17370415 149.375 261.5625 C150.34961182 261.01972412 151.32422363 260.47694824 152.32836914 259.91772461 C158.75864479 256.31936195 165.13095573 252.62473296 171.46337891 248.85717773 C178.3134428 244.78557953 185.2524121 240.87662548 192.1953125 236.96606445 C199.66356361 232.75899088 207.11297378 228.52028756 214.54638672 224.25195312 C218.55347252 221.95430163 222.56821795 219.67698617 226.62109375 217.4609375 C236.48729226 212.17318228 236.48729226 212.17318228 245 205 C246.67980809 201.54940809 247.25250071 198.77895829 247.26742554 194.95936584 C247.27595551 193.9682933 247.28448547 192.97722076 247.29327393 191.95611572 C247.29236755 190.88013123 247.29146118 189.80414673 247.29052734 188.69555664 C247.29724457 187.55354294 247.30396179 186.41152924 247.31088257 185.23490906 C247.32988007 181.4599472 247.33378749 177.68516293 247.3359375 173.91015625 C247.34236347 171.28608629 247.34909167 168.66201705 247.35610962 166.03794861 C247.36888861 160.53773848 247.37187563 155.03757648 247.37060547 149.53735352 C247.3694037 143.18713848 247.39051619 136.83726312 247.4220928 130.48713404 C247.45142874 124.36873991 247.45858077 118.25050845 247.45738602 112.13204765 C247.4597472 109.53290862 247.46859968 106.93376711 247.48405075 104.33467293 C247.50363315 100.70077376 247.49790249 97.067751 247.48583984 93.43383789 C247.49707886 92.35987762 247.50831787 91.28591736 247.51989746 90.17941284 C247.50933577 83.96238949 247.50933577 83.96238949 245.06132507 78.38755798 C238.88918997 71.23859801 231.25635358 67.05821213 223.0625 62.5 C221.17355301 61.43764708 219.28622127 60.37246302 217.39897156 59.30709839 C216.12090311 58.58579822 214.84234699 57.8653615 213.56330872 57.14578247 C207.60576374 53.79102056 201.70626318 50.34044003 195.8125 46.875 C184.56292528 40.28119917 173.19631439 33.90674192 161.80273438 27.56591797 C159.21140006 26.11811149 156.62727165 24.65859738 154.046875 23.19140625 C153.31082031 22.7735083 152.57476562 22.35561035 151.81640625 21.92504883 C150.4946813 21.1734583 149.17423882 20.41960509 147.85546875 19.6628418 C139.2219954 14.76305596 133.09413251 13.29129995 124 18.1875 Z " fill="#010818" transform="translate(0,0)" />
<path d="M0 0 C7.29525098 -0.20309039 14.58977185 -0.34304098 21.88720703 -0.43945312 C24.36860392 -0.47964819 26.84981176 -0.53421532 29.33056641 -0.60351562 C32.90053931 -0.70073555 36.46800602 -0.74596791 40.0390625 -0.78125 C41.69876572 -0.84318542 41.69876572 -0.84318542 43.39199829 -0.90637207 C46.462019 -0.9081547 49.03919484 -0.81656584 52 0 C54.70523499 2.3263229 56.32112521 4.88071742 58 8 C58.69867188 9.07765625 59.39734375 10.1553125 60.1171875 11.265625 C60.69726562 12.25046875 61.27734375 13.2353125 61.875 14.25 C62.76832031 15.74273437 62.76832031 15.74273437 63.6796875 17.265625 C65 20 65 20 65 24 C47.51 24.33 30.02 24.66 12 25 C6.555 34.405 6.555 34.405 1 44 C-0.32 45.98 -1.64 47.96 -3 50 C-2.90297102 54.47479056 -1.430078 57.44978024 0.94140625 61.1796875 C1.52470703 62.1078125 2.10800781 63.0359375 2.70898438 63.9921875 C3.32064453 64.94351563 3.93230469 65.89484375 4.5625 66.875 C5.17802734 67.84953125 5.79355469 68.8240625 6.42773438 69.828125 C7.94308543 72.22449412 9.46731564 74.61469443 11 77 C11.54901474 77.01030746 12.09802948 77.02061493 12.66368103 77.03123474 C18.35721281 77.13907947 24.05057921 77.25369449 29.74389648 77.37231445 C31.87114007 77.41573423 33.9984201 77.45740393 36.12573242 77.49731445 C39.17638151 77.55484707 42.22684589 77.61858967 45.27734375 77.68359375 C46.23462875 77.70030624 47.19191376 77.71701874 48.1782074 77.73423767 C49.05904495 77.75418289 49.93988251 77.77412811 50.84741211 77.79467773 C51.62684677 77.81022202 52.40628143 77.8257663 53.20933533 77.84178162 C53.80025467 77.89399368 54.39117401 77.94620575 55 78 C55.33 78.33 55.66 78.66 56 79 C56.265625 81.28515625 56.265625 81.28515625 56 84 C54.609375 86.24609375 54.609375 86.24609375 52.75 88.4375 C49.86209982 91.88693633 47.53797051 95.19304424 45 99 C28.83 99 12.66 99 -4 99 C-8.43373159 92.66609773 -12.58973816 86.55733397 -16.375 79.875 C-16.83616211 79.06458252 -17.29732422 78.25416504 -17.77246094 77.41918945 C-18.71713238 75.7585582 -19.66050322 74.09718637 -20.60253906 72.43505859 C-21.953899 70.08033042 -23.34100851 67.75113136 -24.7421875 65.42578125 C-25.57813781 64.01302841 -26.41407593 62.60026836 -27.25 61.1875 C-27.64493652 60.5486084 -28.03987305 59.9097168 -28.44677734 59.25146484 C-30.12438154 56.37371073 -31.03731335 54.4954994 -30.78417969 51.1340332 C-29.94145677 47.76602757 -28.74365352 45.39564209 -26.9375 42.4375 C-26.309646 41.39980469 -25.68179199 40.36210938 -25.03491211 39.29296875 C-24.36339111 38.20628906 -23.69187012 37.11960938 -23 36 C-22.31881104 34.88238281 -21.63762207 33.76476562 -20.93579102 32.61328125 C-15.09173308 23.05746616 -9.08778352 13.62742829 -2.87329102 4.30859375 C-2.33470963 3.50091553 -1.79612823 2.6932373 -1.2412262 1.86108398 C-0.83162155 1.24692627 -0.42201691 0.63276855 0 0 Z " fill="#5234C6" transform="translate(91,72)" />
<path d="M0 0 C2.50287362 0.95885552 4.66234575 1.92895121 7 3.1875 C8.01598267 3.71500854 8.01598267 3.71500854 9.05249023 4.25317383 C18.16747273 9.04449963 27.092284 14.19591742 36.02978516 19.30761719 C38.89214217 20.93854427 41.76235 22.554416 44.63671875 24.1640625 C55.2078474 30.08816682 65.7008153 36.13402689 76.125 42.3125 C77.21458008 42.95807861 78.30416016 43.60365723 79.42675781 44.26879883 C82.62335284 46.17015458 85.81258693 48.08329712 89 50 C89.58185059 50.34659668 90.16370117 50.69319336 90.76318359 51.05029297 C92.5357982 52.10712724 94.30345898 53.17184971 96.0703125 54.23828125 C97.64063232 55.18054565 97.64063232 55.18054565 99.24267578 56.1418457 C103.50144621 59.01182107 106.68124182 62.36248364 109 67 C109.09878586 68.55752956 109.13504711 70.11922078 109.14044189 71.67987061 C109.14615204 72.66681915 109.15186218 73.6537677 109.15774536 74.67062378 C109.15942215 76.30077927 109.15942215 76.30077927 109.16113281 77.96386719 C109.16609772 79.10544281 109.17106262 80.24701843 109.17617798 81.42318726 C109.19082921 85.21442255 109.19760694 89.005616 109.203125 92.796875 C109.20887451 95.42523195 109.21463227 98.05358888 109.22039795 100.6819458 C109.22997343 105.49409405 109.2358675 110.30623324 109.2388947 115.11838984 C109.24337194 122.19661737 109.26090263 129.27465145 109.2898953 136.35282016 C109.31414182 142.48560373 109.32184032 148.61830763 109.32357025 154.75113678 C109.32659941 157.35864565 109.33463675 159.96615366 109.34775543 162.57363129 C109.36479927 166.22208822 109.36293926 169.87007416 109.35644531 173.51855469 C109.3656601 174.59722809 109.37487488 175.67590149 109.3843689 176.78726196 C109.35372106 182.28065116 109.13617772 186.27318213 106 191 C100.13423945 197.02161973 92.314958 200.74259524 84.9375 204.5625 C82.61537345 205.78823614 80.29509982 207.01748814 77.9765625 208.25 C77.39181656 208.56074966 76.80707062 208.87149933 76.2046051 209.19166565 C70.31983315 212.3345351 64.55929907 215.67570585 58.8125 219.0625 C50.08146441 224.20493805 41.3050491 229.25238677 32.47460938 234.22216797 C24.84414142 238.51728065 17.23919611 242.8556089 9.64770508 247.21923828 C8.42410278 247.92089111 8.42410278 247.92089111 7.17578125 248.63671875 C6.46333252 249.04623779 5.75088379 249.45575684 5.0168457 249.87768555 C4.35128662 250.24804932 3.68572754 250.61841309 3 251 C2.32018066 251.38099854 1.64036133 251.76199707 0.93994141 252.15454102 C-1 253 -1 253 -4.21484375 252.890625 C-8.80202586 251.81128803 -12.45196169 250.00556621 -16.5625 247.75 C-17.38548584 247.30744873 -18.20847168 246.86489746 -19.05639648 246.40893555 C-27.20831476 241.97892794 -35.17565371 237.23950973 -43.140625 232.484375 C-49.33384374 228.79024791 -55.56674821 225.16696481 -61.8125 221.5625 C-63.43115967 220.62821167 -63.43115967 220.62821167 -65.08251953 219.67504883 C-73.82986578 214.64210641 -82.62826643 209.7026883 -91.46606445 204.83032227 C-110.75253906 194.13110226 -110.75253906 194.13110226 -114 189 C-114.97953708 186.06138876 -115.13232722 184.14867003 -115.14717102 181.08598328 C-115.15432632 180.0724176 -115.16148163 179.05885193 -115.16885376 178.01457214 C-115.17288712 176.34773125 -115.17288712 176.34773125 -115.17700195 174.6472168 C-115.18357315 173.47623444 -115.19014435 172.30525208 -115.19691467 171.0987854 C-115.21665953 167.21560315 -115.22831419 163.33243441 -115.23828125 159.44921875 C-115.2423297 158.11113782 -115.24644665 156.77305709 -115.25063133 155.43497658 C-115.2696768 149.14841615 -115.28390951 142.86186743 -115.2922433 136.57528371 C-115.30201555 129.32382113 -115.32833704 122.07266381 -115.36874419 114.82130879 C-115.39892261 109.21270577 -115.41371377 103.60419017 -115.41702431 97.99550754 C-115.4193728 94.6472605 -115.430283 91.29959869 -115.45348549 87.95139122 C-115.47777567 84.2143344 -115.47692997 80.47807803 -115.4699707 76.7409668 C-115.48278076 75.63581223 -115.49559082 74.53065765 -115.50878906 73.39201355 C-115.45192854 65.02300192 -115.45192854 65.02300192 -113.11878967 61.38354492 C-110.89756132 58.884761 -108.87137727 57.26737339 -106.0078125 55.55078125 C-104.55036621 54.670271 -104.55036621 54.670271 -103.06347656 53.77197266 C-98.02778377 50.85923291 -92.96930414 47.9965348 -87.875 45.1875 C-80.47419059 41.07636431 -73.09563199 36.94168778 -65.8125 32.625 C-65.13058594 32.22087891 -64.44867188 31.81675781 -63.74609375 31.40039062 C-63.08609375 31.00916016 -62.42609375 30.61792969 -61.74609375 30.21484375 C-56.57583274 27.15005935 -51.3567188 24.17260398 -46.12792969 21.20898438 C-43.58497133 19.76420124 -41.04665618 18.31137604 -38.5078125 16.859375 C-20.8947355 6.80797857 -20.8947355 6.80797857 -13 2.6875 C-11.989375 2.15511719 -10.97875 1.62273438 -9.9375 1.07421875 C-6.33374738 -0.24364291 -3.81893454 -0.39361825 0 0 Z M-14.6875 10.3125 C-15.52345703 10.76471924 -16.35941406 11.21693848 -17.22070312 11.68286133 C-23.64764521 15.18501441 -29.98705405 18.83768018 -36.30273438 22.53588867 C-43.37358743 26.66940827 -50.52279354 30.65730042 -57.6875 34.625 C-58.86296369 35.27643421 -60.03841948 35.92788267 -61.21386719 36.5793457 C-63.46389159 37.82593335 -65.71404908 39.07228083 -67.96435547 40.31835938 C-74.32948243 43.84441652 -80.68591777 47.38319562 -87 51 C-87.65419922 51.37318359 -88.30839844 51.74636719 -88.98242188 52.13085938 C-90.99470481 53.28487754 -92.99835821 54.4526383 -95 55.625 C-95.58749023 55.96128418 -96.17498047 56.29756836 -96.78027344 56.64404297 C-98.56739537 57.70403664 -100.27907808 58.83536317 -102 60 C-102.67883586 60.44787337 -103.35767172 60.89574675 -104.05707836 61.35719204 C-106.37286257 63.09277368 -108.2010446 64.72612981 -110 67 C-111.13445751 70.82274723 -111.06580621 74.47407243 -110.98754883 78.43969727 C-110.9967485 79.57224945 -111.00594818 80.70480164 -111.01542664 81.87167358 C-111.03529654 85.60435677 -110.99748238 89.33392689 -110.95703125 93.06640625 C-110.95480098 95.66519584 -110.95538589 98.26398923 -110.95866394 100.86277771 C-110.95692188 106.30440741 -110.92875321 111.74490698 -110.87817383 117.1862793 C-110.82008885 123.46742315 -110.8078268 129.74735123 -110.8210333 136.02872235 C-110.83305346 142.08534146 -110.8162822 148.14143264 -110.78589439 154.1980114 C-110.77501835 156.76920593 -110.77073765 159.34043713 -110.77317238 161.91165352 C-110.77174481 165.50502133 -110.73773157 169.09661979 -110.69458008 172.68969727 C-110.6999881 173.7511647 -110.70539612 174.81263214 -110.71096802 175.90626526 C-110.6732012 181.14160941 -110.6732012 181.14160941 -108.91689873 185.97391129 C-106.56299331 188.87542433 -103.91539692 191.00120013 -100.65625 192.7890625 C-99.83318359 193.24925781 -99.01011719 193.70945313 -98.16210938 194.18359375 C-97.28361328 194.65925781 -96.40511719 195.13492188 -95.5 195.625 C-93.60398858 196.67936732 -91.70816029 197.73406402 -89.8125 198.7890625 C-88.84570312 199.32176758 -87.87890625 199.85447266 -86.8828125 200.40332031 C-82.39508582 202.88890064 -77.94892707 205.44583882 -73.5 208 C-71.74372031 209.00430983 -69.98720939 210.00821542 -68.23046875 211.01171875 C-67.36341309 211.50720215 -66.49635742 212.00268555 -65.60302734 212.51318359 C-63.04448925 213.9745883 -60.48523831 215.43473669 -57.92578125 216.89453125 C-50.36927796 221.20612353 -42.81690589 225.52416221 -35.28515625 229.87890625 C-34.71120621 230.21068375 -34.13725616 230.54246124 -33.5459137 230.8842926 C-30.74413148 232.50410176 -27.94325237 234.12543646 -25.14379883 235.74926758 C-23.09596776 236.93412876 -21.04518846 238.11391199 -18.99121094 239.28808594 C-16.96085485 240.45008862 -14.93825353 241.62572618 -12.92285156 242.81347656 C-11.95057617 243.37260742 -10.97830078 243.93173828 -9.9765625 244.5078125 C-8.68226318 245.26408936 -8.68226318 245.26408936 -7.36181641 246.03564453 C-5.09543457 247.18238343 -5.09543457 247.18238343 -2.89526367 246.75634766 C0.2930679 245.48397213 3.29455243 243.87510299 6.3125 242.25 C7.41924072 241.65880371 7.41924072 241.65880371 8.54833984 241.05566406 C17.78934256 236.08574503 26.90082058 230.88346681 36.01953125 225.69384766 C39.9221439 223.475931 43.83157769 221.27020743 47.74121094 219.06469727 C58.68768277 212.88807732 69.62217999 206.69065877 80.51757812 200.42431641 C83.002574 198.99852314 85.4934053 197.58329244 87.984375 196.16796875 C89.53158869 195.27923521 91.07848028 194.38994059 92.625 193.5 C93.68243408 192.90409058 93.68243408 192.90409058 94.76123047 192.29614258 C98.3118403 190.23678888 100.86273421 188.51651859 103 185 C103.46305878 182.63225156 103.46305878 182.63225156 103.42132568 180.04838562 C103.44702133 178.55338531 103.44702133 178.55338531 103.47323608 177.02818298 C103.47658966 175.94082352 103.47994324 174.85346405 103.48339844 173.7331543 C103.49829315 172.58313934 103.51318787 171.43312439 103.52853394 170.2482605 C103.57238337 166.440192 103.59280076 162.63249832 103.609375 158.82421875 C103.62663006 156.17869556 103.64390325 153.53317249 103.66119385 150.88764954 C103.68989352 146.04779821 103.70759279 141.20802772 103.7166841 136.36810178 C103.73012217 129.25414583 103.78274875 122.14192048 103.86968589 115.02849072 C103.93463029 109.52257808 103.96480165 104.01715121 103.96880746 98.51085979 C103.97194553 95.2251894 103.99388503 91.94151391 104.0432663 88.65616417 C104.09447075 84.98778762 104.08881178 81.32361868 104.06933594 77.6550293 C104.09698029 76.57374252 104.12462463 75.49245575 104.15310669 74.37840271 C104.10244814 71.33076723 103.94884584 68.89898959 103 66 C100.34597424 63.02752908 97.42284162 61.00606872 94 59 C93.05624512 58.41202637 92.11249023 57.82405273 91.14013672 57.21826172 C90.32818848 56.79303223 89.51624023 56.36780273 88.6796875 55.9296875 C87.74447266 55.43283447 86.80925781 54.93598145 85.84570312 54.42407227 C84.86537109 53.91287842 83.88503906 53.40168457 82.875 52.875 C80.73605743 51.73740847 78.59805929 50.59803968 76.4609375 49.45703125 C75.38295898 48.88291504 74.30498047 48.30879883 73.19433594 47.71728516 C57.19241213 39.11460004 41.5431638 29.85434849 25.8671875 20.67675781 C21.33341799 18.0253674 16.79313626 15.38530154 12.25 12.75 C11.46979492 12.29608887 10.68958984 11.84217773 9.88574219 11.37451172 C8.80534668 10.74826904 8.80534668 10.74826904 7.703125 10.109375 C7.08083008 9.74811523 6.45853516 9.38685547 5.81738281 9.01464844 C1.76255629 6.74310935 1.76255629 6.74310935 -2.70703125 5.60546875 C-7.3071403 6.15660874 -10.67251135 8.08318995 -14.6875 10.3125 Z " fill="#6F67B3" transform="translate(138,15)" />
<path d="M0 0 C2.08055115 -0.26069641 2.08055115 -0.26069641 4.67749023 -0.2746582 C6.1342643 -0.28895622 6.1342643 -0.28895622 7.62046814 -0.30354309 C8.67254959 -0.30263168 9.72463104 -0.30172028 10.80859375 -0.30078125 C11.88625504 -0.30506638 12.96391632 -0.3093515 14.07423401 -0.31376648 C16.35652971 -0.31951726 18.63884374 -0.32000457 20.92114258 -0.31567383 C24.41975081 -0.31251602 27.91751217 -0.33595702 31.41601562 -0.36132812 C33.63020726 -0.36360119 35.84440118 -0.36430458 38.05859375 -0.36328125 C39.63367958 -0.37709587 39.63367958 -0.37709587 41.24058533 -0.39118958 C42.2149202 -0.38496078 43.18925507 -0.37873199 44.19311523 -0.37231445 C45.05090073 -0.37294388 45.90868622 -0.3735733 46.79246521 -0.3742218 C49 0 49 0 50.71624756 1.39715576 C52.23072181 3.28807044 53.47291115 5.23074107 54.70703125 7.31640625 C55.4640332 8.58774414 55.4640332 8.58774414 56.23632812 9.88476562 C56.75646484 10.76841797 57.27660156 11.65207031 57.8125 12.5625 C58.32103516 13.41908203 58.82957031 14.27566406 59.35351562 15.15820312 C60.3849387 16.89554314 61.41503962 18.63366874 62.44384766 20.37255859 C67.20192503 28.45166768 67.20192503 28.45166768 72.1875 36.390625 C72.785625 37.33421875 73.38375 38.2778125 74 39.25 C74.61875 40.20390625 75.2375 41.1578125 75.875 42.140625 C77 45 77 45 76.3828125 48.04296875 C75.04928775 50.89460218 73.61656226 53.44205632 71.875 56.0625 C69.30891593 59.98524328 66.80641471 63.92978677 64.375 67.9375 C60.16726366 74.81760538 55.75129659 81.55745781 51.30419922 88.28491211 C50.76166504 89.11128174 50.21913086 89.93765137 49.66015625 90.7890625 C49.17168213 91.52850098 48.68320801 92.26793945 48.17993164 93.02978516 C46.85024482 95.08904973 46.85024482 95.08904973 46 98 C39.73780186 98.02546877 33.4756172 98.0429166 27.21337891 98.05493164 C25.08544414 98.05994349 22.95751279 98.06675472 20.82958984 98.07543945 C17.76138463 98.08764336 14.69322516 98.09325993 11.625 98.09765625 C10.21045532 98.10539818 10.21045532 98.10539818 8.76733398 98.11329651 C3.42131808 98.113745 -1.72875514 97.93733275 -7 97 C-9.13671875 95.03125 -9.13671875 95.03125 -10.6875 92.5 C-11.24953125 91.60152344 -11.8115625 90.70304687 -12.390625 89.77734375 C-12.92171875 88.86082031 -13.4528125 87.94429688 -14 87 C-14.51046875 86.15566406 -15.0209375 85.31132812 -15.546875 84.44140625 C-19 78.53423455 -19 78.53423455 -19 75 C-1.84 75 15.32 75 33 75 C33.33 73.35 33.66 71.7 34 70 C35.35818461 67.65123861 36.73654316 65.42954561 38.25 63.1875 C39.06676068 61.9494525 39.88316882 60.71117235 40.69921875 59.47265625 C41.09415527 58.87855957 41.4890918 58.28446289 41.89599609 57.67236328 C43.99702426 54.48969125 45.99062634 51.24092525 48 48 C48.66 48 49.32 48 50 48 C46.3063763 41.12688337 42.48669876 34.34574497 38.515625 27.62890625 C37.26639177 25.46206615 36.11855082 23.23710164 35 21 C20.15 20.67 5.3 20.34 -10 20 C-10 14.74460539 -8.86134313 12.49276122 -6.125 8.3125 C-5.76019531 7.73177734 -5.39539063 7.15105469 -5.01953125 6.55273438 C-3.4903882 4.1478094 -2.02059992 2.02059992 0 0 Z " fill="#3D8A5C" transform="translate(129,113)" />
<path d="M0 0 C2.50287362 0.95885552 4.66234575 1.92895121 7 3.1875 C8.01598267 3.71500854 8.01598267 3.71500854 9.05249023 4.25317383 C18.16747273 9.04449963 27.092284 14.19591742 36.02978516 19.30761719 C38.89214217 20.93854427 41.76235 22.554416 44.63671875 24.1640625 C62.9620194 34.43414566 80.99552079 45.17913888 99 56 C99 58.31 99 60.62 99 63 C97.74509766 62.27296875 97.74509766 62.27296875 96.46484375 61.53125 C90.38162641 58.02262094 84.27621535 54.58691854 78.0625 51.3125 C60.3711283 41.96691203 43.13015456 31.78346138 25.8671875 21.67675781 C21.33341799 19.0253674 16.79313626 16.38530154 12.25 13.75 C11.46979492 13.29608887 10.68958984 12.84217773 9.88574219 12.37451172 C9.16547852 11.9570166 8.44521484 11.53952148 7.703125 11.109375 C7.08083008 10.74811523 6.45853516 10.38685547 5.81738281 10.01464844 C1.76255629 7.74310935 1.76255629 7.74310935 -2.70703125 6.60546875 C-7.3071403 7.15660874 -10.67251135 9.08318995 -14.6875 11.3125 C-15.52345703 11.76471924 -16.35941406 12.21693848 -17.22070312 12.68286133 C-23.64764521 16.18501441 -29.98705405 19.83768018 -36.30273438 23.53588867 C-43.37358743 27.66940827 -50.52279354 31.65730042 -57.6875 35.625 C-58.86296369 36.27643421 -60.03841948 36.92788267 -61.21386719 37.5793457 C-63.46389159 38.82593335 -65.71404908 40.07228083 -67.96435547 41.31835938 C-89.71985693 53.0161395 -89.71985693 53.0161395 -110 67 C-110.33 65.68 -110.66 64.36 -111 63 C-112.32 64.32 -113.64 65.64 -115 67 C-113.58070694 62.48406754 -111.59137882 60.06763608 -108 57 C-106.48590527 56.03250862 -104.95244529 55.09500303 -103.40625 54.1796875 C-102.51550781 53.65221924 -101.62476563 53.12475098 -100.70703125 52.58129883 C-96.65375522 50.21359782 -92.58196117 47.88033284 -88.5 45.5625 C-80.31756969 40.9020723 -72.15360703 36.21066558 -64 31.5 C-53.47275476 25.42087565 -42.93498573 19.36094246 -32.36914062 13.34912109 C-30.79925844 12.45514243 -29.23023584 11.55965246 -27.66210938 10.66259766 C-25.48509104 9.41731696 -23.30543253 8.17679032 -21.125 6.9375 C-20.50093262 6.57930176 -19.87686523 6.22110352 -19.23388672 5.85205078 C-7.4405985 -0.8221197 -7.4405985 -0.8221197 0 0 Z " fill="#5930B2" transform="translate(138,15)" />
<path d="M0 0 C6.20459343 0.43073211 10.88768353 3.38895411 16.1875 6.375 C17.16509277 6.91737305 18.14268555 7.45974609 19.14990234 8.01855469 C26.74392012 12.24853961 34.27537067 16.5847305 41.78125 20.96875 C46.26044911 23.58044603 50.7644586 26.14696618 55.2727356 28.70806885 C70.31695066 37.25568799 85.20711026 46.02278459 100 55 C100 57.31 100 59.62 100 62 C99.16339844 61.5153125 98.32679688 61.030625 97.46484375 60.53125 C91.38162641 57.02262094 85.27621535 53.58691854 79.0625 50.3125 C56.82292733 38.56429379 35.08425337 25.75849121 13.5625 12.75 C12.80477295 12.29608887 12.0470459 11.84217773 11.26635742 11.37451172 C6.11761264 8.23522528 6.11761264 8.23522528 5 6 C4.01 5.34 3.02 4.68 2 4 C0.8125 1.875 0.8125 1.875 0 0 Z " fill="#5E48B5" transform="translate(137,16)" />
<path d="M0 0 C0.66 0.66 1.32 1.32 2 2 C2.99 2.33 3.98 2.66 5 3 C-2.25635822 7.58971068 -9.59755606 11.93294283 -17.125 16.0625 C-25.81752947 20.8417975 -34.30017838 25.70386267 -42 32 C-42.33 30.68 -42.66 29.36 -43 28 C-44.32 29.32 -45.64 30.64 -47 32 C-45.58070694 27.48406754 -43.59137882 25.06763608 -40 22 C-33.19623085 17.64035713 -26.08888453 13.73645908 -19.0625 9.75 C-17.21947936 8.70413361 -15.37700642 7.65730131 -13.53515625 6.609375 C-12.734729 6.15530273 -11.93430176 5.70123047 -11.10961914 5.23339844 C-9.36960488 4.21609118 -7.67706413 3.11804275 -6 2 C-4.01200182 1.29835358 -2.01301483 0.62627128 0 0 Z " fill="#6A3DC6" transform="translate(70,50)" />
<path d="M0 0 C0.33 0 0.66 0 1 0 C1 38.94 1 77.88 1 118 C0.67 118 0.34 118 0 118 C-0.03758423 116.92685547 -0.03758423 116.92685547 -0.07592773 115.83203125 C-0.19279152 112.5545453 -0.31510423 109.27728384 -0.4375 106 C-0.47681641 104.87464844 -0.51613281 103.74929687 -0.55664062 102.58984375 C-0.59853516 101.48769531 -0.64042969 100.38554687 -0.68359375 99.25 C-0.72025146 98.24453125 -0.75690918 97.2390625 -0.79467773 96.203125 C-0.95857176 92.9498671 -0.95857176 92.9498671 -1.51147461 89.55493164 C-2.36033557 83.03116971 -2.1434582 76.43742274 -2.1328125 69.87109375 C-2.13348787 68.39388513 -2.13445983 66.91667662 -2.13571167 65.43946838 C-2.13718091 62.34887632 -2.1350612 59.25831328 -2.13037109 56.16772461 C-2.12470946 52.25038269 -2.127935 48.33310985 -2.13394356 44.41577053 C-2.13760033 41.36385095 -2.13638683 38.31194705 -2.13381577 35.26002693 C-2.13315871 33.81826837 -2.13393103 32.37650828 -2.13629532 30.93475151 C-2.17031007 4.34062015 -2.17031007 4.34062015 0 0 Z " fill="#55559C" transform="translate(246,82)" />
<path d="M0 0 C2.08728027 -0.25396729 2.08728027 -0.25396729 4.69335938 -0.25878906 C6.15497498 -0.26824554 6.15497498 -0.26824554 7.64611816 -0.27789307 C9.22894592 -0.27182037 9.22894592 -0.27182037 10.84375 -0.265625 C11.92378296 -0.26753845 13.00381592 -0.2694519 14.11657715 -0.27142334 C16.40307854 -0.27278607 18.68958764 -0.26908352 20.97607422 -0.26074219 C24.48552755 -0.25004412 27.99446893 -0.26063473 31.50390625 -0.2734375 C33.7213553 -0.27211592 35.93880403 -0.26955356 38.15625 -0.265625 C39.21146851 -0.26967346 40.26668701 -0.27372192 41.35388184 -0.27789307 C42.32829224 -0.27158875 43.30270264 -0.26528442 44.30664062 -0.25878906 C45.16664673 -0.25719788 46.02665283 -0.25560669 46.91271973 -0.25396729 C47.94592346 -0.12825348 47.94592346 -0.12825348 49 0 C49.66 0.66 50.32 1.32 51 2 C48.11287925 2.96237358 46.41339127 3.10255725 43.42431641 3.05004883 C42.49970612 3.03706253 41.57509583 3.02407623 40.62246704 3.01069641 C39.62556854 2.99298691 38.62867004 2.9752774 37.6015625 2.95703125 C35.4921969 2.93464268 33.38282123 2.91318731 31.2734375 2.89257812 C27.94633895 2.85547385 24.61975163 2.81240655 21.29296875 2.75317383 C18.08325776 2.69867918 14.87412056 2.66958553 11.6640625 2.64453125 C10.67121246 2.62074905 9.67836243 2.59696686 8.65542603 2.57246399 C2.92852494 2.54694401 2.92852494 2.54694401 -2.16650391 5.0222168 C-2.77155762 5.67488525 -3.37661133 6.32755371 -4 7 C-2.92598892 4.08482708 -2.22189824 2.22189824 0 0 Z " fill="#26613D" transform="translate(129,113)" />
<path d="M0 0 C0.66 0.66 1.32 1.32 2 2 C2 3.32 2 4.64 2 6 C-15.16 6 -32.32 6 -50 6 C-50 5.67 -50 5.34 -50 5 C-37.34109219 3.7675429 -24.79883344 2.74297164 -12.07128906 2.98632812 C-7.90482341 3.19320611 -7.90482341 3.19320611 -4 2 C-4 2.66 -4 3.32 -4 4 C-2.68 2.68 -1.36 1.36 0 0 Z " fill="#382589" transform="translate(154,90)" />
<path d="M0 0 C3.38845176 1.25498213 5.70562172 3.30044875 7.97729492 6.09228516 C9.9796866 9.82746983 9.24028724 13.78793916 8.8125 17.875 C8.74224609 18.75414063 8.67199219 19.63328125 8.59960938 20.5390625 C8.42386897 22.69481147 8.21521664 24.84783362 8 27 C7.67 27 7.34 27 7 27 C6.96132812 26.07380859 6.96132812 26.07380859 6.921875 25.12890625 C6.49611747 18.77157227 5.17462808 13.55859408 2 8 C1.34 7.34 0.68 6.68 0 6 C-0.125 2.875 -0.125 2.875 0 0 Z " fill="#6C62C5" transform="translate(237,72)" />
<path d="M0 0 C14.85 0.33 29.7 0.66 45 1 C45 1.33 45 1.66 45 2 C40.26787599 2.28711935 35.53561769 2.57187506 30.80322266 2.85449219 C29.19511118 2.950856 27.58703748 3.04785262 25.97900391 3.14550781 C23.6605796 3.28619238 21.34202656 3.42456065 19.0234375 3.5625 C18.31069672 3.60624756 17.59795593 3.64999512 16.86361694 3.69506836 C5.07640353 4.38889578 5.07640353 4.38889578 0 2 C0 1.34 0 0.68 0 0 Z " fill="#39289C" transform="translate(101,149)" />
<path d="M0 0 C0.99 0 1.98 0 3 0 C1.51637716 6.26418531 -2.24162156 10.91513505 -6 16 C-6.66 15.34 -7.32 14.68 -8 14 C-7.13375 12.7625 -7.13375 12.7625 -6.25 11.5 C-3.80120261 7.84429532 -1.89208922 3.96533591 0 0 Z " fill="#347853" transform="translate(202,160)" />
<path d="M0 0 C0.66 0.66 1.32 1.32 2 2 C2 2.99 2 3.98 2 5 C-2.29 5 -6.58 5 -11 5 C-11 4.67 -11 4.34 -11 4 C-8.69 3.34 -6.38 2.68 -4 2 C-4 2.66 -4 3.32 -4 4 C-2.68 2.68 -1.36 1.36 0 0 Z " fill="#4B2EAC" transform="translate(154,90)" />
<path d="M0 0 C2.31 0 4.62 0 7 0 C7 1.32 7 2.64 7 4 C5.68 4.33 4.36 4.66 3 5 C3.33 3.68 3.66 2.36 4 1 C2.68 0.67 1.36 0.34 0 0 Z " fill="#5032A9" transform="translate(131,15)" />
</svg>
