
<svg version="1.1" xmlns="http://www.w3.org/2000/svg" width="826" height="432" viewBox="0 0 826 432" preserveAspectRatio="xMidYMid meet">
<path d="M0 0 C272.58 0 545.16 0 826 0 C826 142.56 826 285.12 826 432 C553.42 432 280.84 432 0 432 C0 289.44 0 146.88 0 0 Z " fill="#020817" transform="translate(0,0)" />
<path d="M0 0 C27.06 0 54.12 0 82 0 C83.65 2.97 85.3 5.94 87 9 C89.20169292 12.54520772 91.43048876 16.06756765 93.68945312 19.57617188 C97 24.78841635 97 24.78841635 97 27 C97.66 27 98.32 27 99 27 C99.042721 28.66611905 99.04063832 30.33382885 99 32 C98.67 32.33 98.34 32.66 98 33 C95.53555943 33.09500548 93.09925374 33.12557985 90.63452148 33.11352539 C89.86384338 33.11367142 89.09316528 33.11381744 88.2991333 33.1139679 C85.73975861 33.1132686 83.1804558 33.10547545 80.62109375 33.09765625 C78.85132385 33.09579213 77.08155344 33.0943682 75.31178284 33.09336853 C70.64448634 33.08954288 65.97722077 33.0797122 61.30993652 33.06866455 C56.55102965 33.05845144 51.79211779 33.05387113 47.03320312 33.04882812 C37.68878847 33.03808997 28.3443968 33.02101299 19 33 C18.867715 33.93730453 18.73542999 34.87460907 18.59913635 35.84031677 C17.9051247 39.50034669 16.69904381 41.19437538 14.40234375 44.09765625 C9.95750146 49.95500812 6.23073077 56.0726239 2.5625 62.4375 C1.62760742 64.02981445 1.62760742 64.02981445 0.67382812 65.65429688 C-2.89308625 71.5281997 -2.89308625 71.5281997 -5 78 C-4.34 78 -3.68 78 -3 78 C-2.34 80.31 -1.68 82.62 -1 85 C-0.34 85 0.32 85 1 85 C2.34130761 87.26645058 3.67316234 89.53760097 5 91.8125 C5.3815625 92.45509766 5.763125 93.09769531 6.15625 93.75976562 C9 98.66015625 9 98.66015625 9 102 C9.66 102 10.32 102 11 102 C13.31 105.96 15.62 109.92 18 114 C54.63 114.495 54.63 114.495 92 115 C92.33 116.65 92.66 118.3 93 120 C92.34 120 91.68 120 91 120 C90.79375 120.78375 90.5875 121.5675 90.375 122.375 C88.50646225 127.30114499 85.75962483 131.52968937 83 136 C81.64680745 138.32270551 80.32274793 140.65975367 79 143 C78.34 143 77.68 143 77 143 C76.67 143.99 76.34 144.98 76 146 C66.0643935 146.18553337 56.12920036 146.32759303 46.19221306 146.41449738 C41.57771406 146.45621274 36.96440185 146.51277013 32.35058594 146.60351562 C27.89603181 146.69057829 23.44261736 146.73830162 18.98727798 146.75901794 C17.28949159 146.77377609 15.59176618 146.80259793 13.8944664 146.84584045 C8.8223127 146.96990029 3.98790457 147.0001326 -1 146 C-4.04459137 143.74053382 -5.51537594 141.44538747 -7 138 C-7.4846875 137.20851562 -7.969375 136.41703125 -8.46875 135.6015625 C-8.8090625 134.94929687 -9.149375 134.29703125 -9.5 133.625 C-11.791961 129.33223917 -14.29553865 125.1993723 -16.86328125 121.06640625 C-18 119 -18 119 -18 117 C-18.66 117 -19.32 117 -20 117 C-20.61294922 115.72382813 -20.61294922 115.72382813 -21.23828125 114.421875 C-23.36320153 110.29453539 -25.80714951 106.41117922 -28.30273438 102.50390625 C-31 98.21029974 -31 98.21029974 -31 96 C-31.66 96 -32.32 96 -33 96 C-33.66 93.69 -34.32 91.38 -35 89 C-35.66 89 -36.32 89 -37 89 C-38.84827434 85.3874638 -40.55049545 81.7910119 -42 78 C-42.66 78 -43.32 78 -44 78 C-43.57815409 73.50031028 -41.60763262 70.5300092 -39.15625 66.8671875 C-37.83827223 64.89916091 -37.83827223 64.89916091 -37 62 C-36.34 62 -35.68 62 -35 62 C-34.67 60.68 -34.34 59.36 -34 58 C-33.34 58 -32.68 58 -32 58 C-31.34 55.69 -30.68 53.38 -30 51 C-29.34 51 -28.68 51 -28 51 C-27.9278125 50.33226562 -27.855625 49.66453125 -27.78125 48.9765625 C-26.72652614 44.95806461 -24.70307561 41.86718177 -22.5 38.375 C-19.32841426 33.39984196 -19.32841426 33.39984196 -17 28 C-16.34 28 -15.68 28 -15 28 C-14.01 24.535 -14.01 24.535 -13 21 C-12.34 21 -11.68 21 -11 21 C-10.7421875 20.13761719 -10.484375 19.27523437 -10.21875 18.38671875 C-8.96469839 14.90190226 -7.39913658 11.98711602 -5.5 8.8125 C-4.8915625 7.78769531 -4.283125 6.76289062 -3.65625 5.70703125 C-2.47714577 3.77986325 -1.25321289 1.87981934 0 0 Z " fill="#4F36CE" transform="translate(120,85)" />
<path d="M0 0 C2.43396019 -0.09498646 4.83942952 -0.12558417 7.27368164 -0.11352539 C8.03460617 -0.11367142 8.7955307 -0.11381744 9.57951355 -0.1139679 C12.10642298 -0.11326862 14.63325962 -0.10547555 17.16015625 -0.09765625 C18.9075059 -0.09579212 20.65485607 -0.0943682 22.40220642 -0.09336853 C27.01031934 -0.08954293 31.61840095 -0.07971229 36.22650146 -0.06866455 C40.92508521 -0.05845134 45.62367399 -0.0538711 50.32226562 -0.04882812 C59.54819087 -0.03809005 68.77409284 -0.02101313 78 0 C78.83848804 1.45537568 79.67063934 2.91440373 80.5 4.375 C80.9640625 5.18710938 81.428125 5.99921875 81.90625 6.8359375 C83 9 83 9 83 11 C83.66 11 84.32 11 85 11 C85.36351562 11.67804688 85.72703125 12.35609375 86.1015625 13.0546875 C89.21103051 18.81118981 92.4345571 24.45281586 95.8984375 30.00390625 C97 32 97 32 97 34 C97.66 34 98.32 34 99 34 C103 40.75 103 40.75 103 43 C103.66 43 104.32 43 105 43 C106.00484204 44.95585325 107.00373805 46.91476237 108 48.875 C108.556875 49.96554688 109.11375 51.05609375 109.6875 52.1796875 C111 55 111 55 111 57 C111.66 57 112.32 57 113 57 C115.35184132 60.60125702 116.85277122 63.11662734 117.5625 67.375 C116.8028411 72.27057956 114.63009237 75.85760451 112 80 C111.34 80 110.68 80 110 80 C109.67 81.65 109.34 83.3 109 85 C108.34 85 107.68 85 107 85 C106.731875 85.680625 106.46375 86.36125 106.1875 87.0625 C104.83946694 90.39710809 103.42463702 93.69743237 102 97 C101.34 97 100.68 97 100 97 C99.7525 97.680625 99.505 98.36125 99.25 99.0625 C97.49340447 103.19049949 95.19589779 106.97217331 92.921875 110.828125 C90.99096944 114.14236588 89.31161843 117.39304933 88 121 C87.34 121 86.68 121 86 121 C85.75378906 121.67804688 85.50757813 122.35609375 85.25390625 123.0546875 C83.75316226 126.57979955 81.87653319 129.82968421 79.9375 133.125 C77.11484561 137.89033897 77.11484561 137.89033897 75 143 C48.27 143 21.54 143 -6 143 C-17.11111111 124.11111111 -17.11111111 124.11111111 -20.16015625 118.46875 C-20.917606 116.99478029 -20.917606 116.99478029 -22 116 C-22.04063832 114.33382885 -22.042721 112.66611905 -22 111 C-21.05896927 111.0030162 -20.11793854 111.00603241 -19.14839172 111.00914001 C-10.27584461 111.03302419 -1.40400678 111.02020414 7.46844769 110.97153378 C12.02989518 110.94768903 16.59061199 110.93673521 21.15209961 110.95532227 C25.55515083 110.97278811 29.95688986 110.95628672 34.35978127 110.91632271 C36.03865102 110.90703524 37.7176344 110.90994611 39.39645958 110.92530632 C44.35023715 110.96622636 49.12505791 110.93921426 54 110 C56.98160343 107.85703382 57.52900868 106.48491558 59 103 C59.52207031 102.05253906 60.04414063 101.10507813 60.58203125 100.12890625 C61.19111328 98.85853516 61.19111328 98.85853516 61.8125 97.5625 C62.23144531 96.69753906 62.65039062 95.83257812 63.08203125 94.94140625 C63.53642578 93.98041016 63.53642578 93.98041016 64 93 C64.66 93 65.32 93 66 93 C66.103125 92.278125 66.20625 91.55625 66.3125 90.8125 C67.07674981 87.68602348 68.26229078 85.70310324 70 83 C70.73545487 81.73279539 71.46444491 80.4618205 72.1875 79.1875 C72.785625 78.135625 73.38375 77.08375 74 76 C74.66 76 75.32 76 76 76 C76.33 74.35 76.66 72.7 77 71 C77.66 71 78.32 71 79 71 C79 68.69 79 66.38 79 64 C78.34 64 77.68 64 77 64 C73 57.25 73 57.25 73 55 C72.34 55 71.68 55 71 55 C69.5393715 52.35261084 69 51.10551666 69 48 C68.34 48 67.68 48 67 48 C66.05488054 46.65114018 65.1193328 45.29557262 64.1875 43.9375 C63.66542969 43.18339844 63.14335937 42.42929688 62.60546875 41.65234375 C61 39 61 39 58 32 C21.37 31.505 21.37 31.505 -16 31 C-16.33 30.01 -16.66 29.02 -17 28 C-15.93430618 25.6682503 -14.83522353 23.52478591 -13.5625 21.3125 C-13.22412109 20.70599609 -12.88574219 20.09949219 -12.53710938 19.47460938 C-11.70042085 17.9779975 -10.85137169 16.48830811 -10 15 C-9.34 15 -8.68 15 -8 15 C-7.8453125 13.90945312 -7.8453125 13.90945312 -7.6875 12.796875 C-6.9327406 9.72637652 -5.80213465 7.83190445 -4 5.25 C-3.46375 4.47140625 -2.9275 3.6928125 -2.375 2.890625 C-1 1 -1 1 0 0 Z " fill="#3F8A5A" transform="translate(179,145)" />
<path d="M0 0 C272.58 0 545.16 0 826 0 C826 1.98 826 3.96 826 6 C553.42 6 280.84 6 0 6 C0 4.02 0 2.04 0 0 Z " fill="#E0E0E0" transform="translate(0,0)" />
<path d="M0 0 C0 0.66 0 1.32 0 2 C0.721875 2.04125 1.44375 2.0825 2.1875 2.125 C5.20619724 3.06415025 5.78376081 3.63165779 7.6875 6 C8.450625 6.99 9.21375 7.98 10 9 C10.66 9.33 11.32 9.66 12 10 C12.625 12.5625 12.625 12.5625 13 15 C13.66 15 14.32 15 15 15 C17.25719776 25.05662215 18.95574982 36.06755708 15.109375 45.9375 C11.84077501 52.01433379 6.9848525 56.65961721 1 60 C0.34 60 -0.32 60 -1 60 C-1 60.66 -1 61.32 -1 62 C-6.66757262 64.87949254 -11.18614284 65.46477048 -17.5 65.375 C-18.72396484 65.39240234 -18.72396484 65.39240234 -19.97265625 65.41015625 C-25.38848758 65.38407681 -29.16908751 64.45441522 -34 62 C-34 61.34 -34 60.68 -34 60 C-34.88171875 59.78472656 -35.7634375 59.56945312 -36.671875 59.34765625 C-42.78517592 56.87219989 -46.37852846 51.31368642 -50 46 C-51.39912193 42.94508268 -51.85517921 40.34201834 -52 37 C-52.05414063 36.0409375 -52.10828125 35.081875 -52.1640625 34.09375 C-52.34062824 27.73738337 -51.63596328 22.13486232 -50 16 C-49.34 16 -48.68 16 -48 16 C-47.5978125 14.9171875 -47.5978125 14.9171875 -47.1875 13.8125 C-44.41198797 7.23891886 -40.95850571 3.81476288 -35 0 C-23.64930094 -6.15027418 -11.50649779 -4.88154452 0 0 Z " fill="#EFEFF0" transform="translate(480,171)" />
<path d="M0 0 C0 0.66 0 1.32 0 2 C1.98 2.33 3.96 2.66 6 3 C6 4.32 6 5.64 6 7 C5.34 7 4.68 7 4 7 C3.7525 7.94875 3.505 8.8975 3.25 9.875 C2.63125 11.421875 2.63125 11.421875 2 13 C-0.125 14.375 -0.125 14.375 -2 15 C-2.37125 14.525625 -2.7425 14.05125 -3.125 13.5625 C-5.62646962 11.47794198 -7.81593418 11.35378509 -11 11 C-11 10.34 -11 9.68 -11 9 C-15.95 9.33 -20.9 9.66 -26 10 C-26.33 10.66 -26.66 11.32 -27 12 C-27.66 12 -28.32 12 -29 12 C-28.54177532 15.46941546 -28.10868317 18.67395049 -27 22 C-26.154375 22.12375 -25.30875 22.2475 -24.4375 22.375 C-21 23 -21 23 -17.75 23.9375 C-13.20936459 25.22401337 -8.63431165 26.12349035 -4 27 C-4 27.66 -4 28.32 -4 29 C-3.278125 29.0825 -2.55625 29.165 -1.8125 29.25 C1.69068244 30.18418199 3.43905089 31.43905089 6 34 C8.64047674 39.53242745 8.49544667 45.02732001 7.5 51 C7.2525 51.99 7.2525 51.99 7 53 C6.34 53 5.68 53 5 53 C4.7525 53.78375 4.505 54.5675 4.25 55.375 C3 58 3 58 0.875 59.3125 C0.25625 59.539375 -0.3625 59.76625 -1 60 C-1 60.66 -1 61.32 -1 62 C-3.64 62.33 -6.28 62.66 -9 63 C-9 63.66 -9 64.32 -9 65 C-14.94 65 -20.88 65 -27 65 C-27 64.34 -27 63.68 -27 63 C-29.64 62.67 -32.28 62.34 -35 62 C-35 61.34 -35 60.68 -35 60 C-35.9075 59.896875 -36.815 59.79375 -37.75 59.6875 C-41.04276372 58.99095383 -42.6405968 58.3594032 -45 56 C-45 55.01 -45 54.02 -45 53 C-44.34 53 -43.68 53 -43 53 C-42.71125 52.21625 -42.4225 51.4325 -42.125 50.625 C-41 48 -41 48 -39 46 C-35.21213403 46.5260925 -32.82847776 47.38103911 -30 50 C-30 50.66 -30 51.32 -30 52 C-22.41 52 -14.82 52 -7 52 C-6.67 49.03 -6.34 46.06 -6 43 C-11.0725697 39.82714431 -15.61791792 38.04915648 -21.4375 36.75 C-22.16904297 36.57726562 -22.90058594 36.40453125 -23.65429688 36.2265625 C-25.43390288 35.80783167 -27.21664951 35.40248487 -29 35 C-29 34.34 -29 33.68 -29 33 C-29.886875 32.938125 -30.77375 32.87625 -31.6875 32.8125 C-35 32 -35 32 -37.875 29.625 C-38.926875 28.325625 -38.926875 28.325625 -40 27 C-40 26.01 -40 25.02 -40 24 C-40.66 24 -41.32 24 -42 24 C-43.33257403 13.44191344 -43.33257403 13.44191344 -42 9 C-41.34 9 -40.68 9 -40 9 C-39.7525 8.2575 -39.505 7.515 -39.25 6.75 C-37.85679705 3.68495351 -36.57958797 2.14965664 -34 0 C-23.01418531 -6.31099993 -11.28628827 -4.78812229 0 0 Z " fill="#EFEFF0" transform="translate(397,171)" />
<path d="M0 0 C1.69134803 0.95152554 3.38018531 1.907593 5.0625 2.875 C5.0625 3.535 5.0625 4.195 5.0625 4.875 C5.7225 4.875 6.3825 4.875 7.0625 4.875 C5.39498852 8.81639078 2.83539351 11.6642812 0.0625 14.875 C-3.44375349 14.2256938 -5.90292279 12.69574633 -8.9375 10.875 C-14.87085641 8.92791187 -22.23290088 9.03248247 -28.2734375 10.40625 C-30.35860412 11.14990291 -30.35860412 11.14990291 -32.9375 12.875 C-34.4193964 14.9101761 -34.4193964 14.9101761 -34.9375 16.875 C-35.5975 16.875 -36.2575 16.875 -36.9375 16.875 C-36.9375 17.535 -36.9375 18.195 -36.9375 18.875 C-37.5975 18.875 -38.2575 18.875 -38.9375 18.875 C-39.94775932 29.90378574 -39.94775932 29.90378574 -38.9375 40.875 C-38.2775 40.875 -37.6175 40.875 -36.9375 40.875 C-35.58363064 42.52502828 -34.25071858 44.1924387 -32.9375 45.875 C-32.2775 46.205 -31.6175 46.535 -30.9375 46.875 C-30.9375 47.535 -30.9375 48.195 -30.9375 48.875 C-28.41720021 49.09889218 -25.89752743 49.30442078 -23.375 49.5 C-22.67052734 49.56445312 -21.96605469 49.62890625 -21.24023438 49.6953125 C-16.39148036 50.05282432 -12.57531935 49.58033482 -7.9375 47.875 C-6.24860128 46.5699419 -4.5771721 45.24139342 -2.9375 43.875 C-1.9475 43.875 -0.9575 43.875 0.0625 43.875 C1.88671875 45.625 1.88671875 45.625 3.75 47.875 C4.37261719 48.6175 4.99523437 49.36 5.63671875 50.125 C6.10722656 50.7025 6.57773437 51.28 7.0625 51.875 C6.0625 54.875 6.0625 54.875 3.4375 57 C-0.15481757 58.99573199 -2.87213258 59.54977061 -6.9375 59.875 C-6.9375 60.535 -6.9375 61.195 -6.9375 61.875 C-8.2575 61.875 -9.5775 61.875 -10.9375 61.875 C-10.9375 62.535 -10.9375 63.195 -10.9375 63.875 C-29.11679303 64.62638295 -29.11679303 64.62638295 -36.9375 59.875 C-37.62070312 59.55144531 -38.30390625 59.22789062 -39.0078125 58.89453125 C-41.8424392 57.39688435 -43.74037487 55.18479821 -45.9375 52.875 C-46.535625 52.318125 -47.13375 51.76125 -47.75 51.1875 C-48.141875 50.754375 -48.53375 50.32125 -48.9375 49.875 C-48.9375 49.215 -48.9375 48.555 -48.9375 47.875 C-49.5975 47.875 -50.2575 47.875 -50.9375 47.875 C-54.34853265 36.0582083 -54.48985786 26.86196638 -51.9375 14.875 C-51.2775 14.875 -50.6175 14.875 -49.9375 14.875 C-49.751875 14.215 -49.56625 13.555 -49.375 12.875 C-46.71039138 7.31407767 -42.62291184 2.59174022 -37.25 -0.5 C-36.156875 -1.03625 -35.06375 -1.5725 -33.9375 -2.125 C-33.256875 -2.516875 -32.57625 -2.90875 -31.875 -3.3125 C-21.31372321 -7.74142252 -9.60921817 -5.19020192 0 0 Z " fill="#EBEBEC" transform="translate(573.9375,172.125)" />
<path d="M0 0 C4.62 0 9.24 0 14 0 C14 0.66 14 1.32 14 2 C14.70125 2.061875 15.4025 2.12375 16.125 2.1875 C20.02041945 3.28837941 22.1229071 5.1868425 25 8 C26.88370767 11.42492304 27.2216805 14.12059131 27 18 C27.66 18 28.32 18 29 18 C29.07654536 22.51617599 29.10228696 26.59085217 28 31 C27.34 31 26.68 31 26 31 C25.9071875 31.8353125 25.9071875 31.8353125 25.8125 32.6875 C24.65342062 35.98641825 22.56514568 37.67915391 20 40 C17 42 17 42 13 42 C13 42.66 13 43.32 13 44 C9.04 44 5.08 44 1 44 C1 43.34 1 42.68 1 42 C-0.65 41.67 -2.3 41.34 -4 41 C-4 40.34 -4 39.68 -4 39 C-4.598125 38.7525 -5.19625 38.505 -5.8125 38.25 C-8.38654457 36.77911739 -9.40726411 35.49297791 -11 33 C-11.556875 32.13375 -12.11375 31.2675 -12.6875 30.375 C-14.49587103 25.72490306 -14.87327446 21.92273264 -14 17 C-11.9062293 11.73067707 -9.32645503 7.32645503 -5.3125 3.3125 C-3 2 -3 2 0 2 C0 1.34 0 0.68 0 0 Z " fill="#080C18" transform="translate(455,180)" />
<path d="M0 0 C4.62 0 9.24 0 14 0 C14 22.44 14 44.88 14 68 C9.38 68 4.76 68 0 68 C0 45.56 0 23.12 0 0 Z " fill="#E7E7E9" transform="translate(648,168)" />
<path d="M0 0 C4.62 0 9.24 0 14 0 C14 22.11 14 44.22 14 67 C9.38 67 4.76 67 0 67 C0 44.89 0 22.78 0 0 Z " fill="#E8E8EA" transform="translate(607,168)" />
<path d="M0 0 C4.29 0 8.58 0 13 0 C13 21.78 13 43.56 13 66 C8.71 66 4.42 66 0 66 C0 44.22 0 22.44 0 0 Z " fill="#EBEBEE" transform="translate(690,169)" />
<path d="M0 0 C90.42 0 180.84 0 274 0 C274 0.99 274 1.98 274 3 C183.58 3 93.16 3 0 3 C0 2.01 0 1.02 0 0 Z " fill="#403E8F" transform="translate(83,321)" />
<path d="M0 0 C88.77 0 177.54 0 269 0 C269 0.99 269 1.98 269 3 C180.23 3 91.46 3 0 3 C0 2.01 0 1.02 0 0 Z " fill="#41726A" transform="translate(439,321)" />
<path d="M0 0 C1.32 0 2.64 0 4 0 C4 6.27 4 12.54 4 19 C4.99 18.67 5.98 18.34 7 18 C7.0928125 17.071875 7.0928125 17.071875 7.1875 16.125 C7.455625 15.42375 7.72375 14.7225 8 14 C10.375 12.9375 10.375 12.9375 13 12 C14.01868662 11.01904252 15.02351983 10.02297922 16 9 C16.66 9 17.32 9 18 9 C18 10.32 18 11.64 18 13 C15.5625 15.625 15.5625 15.625 13 18 C12.67 18.66 12.34 19.32 12 20 C11.01 20.33 10.02 20.66 9 21 C9.33 21.99 9.66 22.98 10 24 C14.95 24 19.9 24 25 24 C25 25.32 25 26.64 25 28 C21.71480525 29.09506492 19.26336585 29.09960608 15.8125 29.0625 C14.18248047 29.04896484 14.18248047 29.04896484 12.51953125 29.03515625 C11.68808594 29.02355469 10.85664063 29.01195312 10 29 C10 29.66 10 30.32 10 31 C11.65 30.67 13.3 30.34 15 30 C15.495 30.99 15.495 30.99 16 32 C15.34 32 14.68 32 14 32 C15.07401108 34.91517292 15.77810176 36.77810176 18 39 C18 39.99 18 40.98 18 42 C14.7 41.34 11.4 40.68 8 40 C7.67 37.69 7.34 35.38 7 33 C6.34 33 5.68 33 5 33 C4.505 32.505 4.505 32.505 4 32 C4 37.94 4 43.88 4 50 C2.35 50 0.7 50 -1 50 C-1 45.38 -1 40.76 -1 36 C-1.99 36.66 -2.98 37.32 -4 38 C-4.99 38 -5.98 38 -7 38 C-7 38.66 -7 39.32 -7 40 C-7.99 40 -8.98 40 -10 40 C-10 40.66 -10 41.32 -10 42 C-11.32 42 -12.64 42 -14 42 C-13.6875 40.1875 -13.6875 40.1875 -13 38 C-12.505 37.525625 -12.01 37.05125 -11.5 36.5625 C-9.76928091 35.01620566 -9.76928091 35.01620566 -9.3125 32.3125 C-9.209375 31.549375 -9.10625 30.78625 -9 30 C-9.69867188 29.93941406 -10.39734375 29.87882812 -11.1171875 29.81640625 C-12.02726562 29.73261719 -12.93734375 29.64882813 -13.875 29.5625 C-14.77992188 29.48128906 -15.68484375 29.40007812 -16.6171875 29.31640625 C-19 29 -19 29 -21 28 C-21 26.35 -21 24.7 -21 23 C-16.05 23 -11.1 23 -6 23 C-6 22.34 -6 21.68 -6 21 C-8.18408201 18.6978595 -10.40863373 16.50979851 -12.8125 14.4375 C-13.204375 13.963125 -13.59625 13.48875 -14 13 C-14 11.68 -14 10.36 -14 9 C-11.07909997 10.30936898 -9.24380538 11.75619462 -7 14 C-6.01 14.33 -5.02 14.66 -4 15 C-4 16.32 -4 17.64 -4 19 C-3.34 18.67 -2.68 18.34 -2 18 C-1.90912109 16.17662109 -1.90912109 16.17662109 -1.81640625 14.31640625 C-1.73201668 12.73175772 -1.6473679 11.14712298 -1.5625 9.5625 C-1.52318359 8.76005859 -1.48386719 7.95761719 -1.44335938 7.13085938 C-1.33113805 5.08497838 -1.16929172 3.04195078 -1 1 C-0.67 0.67 -0.34 0.34 0 0 Z " fill="#050925" transform="translate(396,293)" />
<path d="M0 0 C4.48314624 0.53387834 9.00139505 0.39470885 13.51000977 0.37893867 C14.61333145 0.3790847 15.71665314 0.37923073 16.85340881 0.37938118 C20.47854621 0.37868784 24.10363141 0.37092261 27.72875977 0.36306953 C30.25081352 0.3612033 32.77286763 0.35978037 35.29492188 0.35878181 C41.24100472 0.35536157 47.18707099 0.34749039 53.13314533 0.33743232 C59.90708088 0.32622454 66.68101735 0.32074901 73.45495987 0.31573689 C87.37957008 0.30530642 101.3041639 0.28773616 115.22875977 0.26541328 C115.22875977 0.92541328 115.22875977 1.58541328 115.22875977 2.26541328 C31.73875977 2.26541328 -51.75124023 2.26541328 -137.77124023 2.26541328 C-138.10124023 3.25541328 -138.43124023 4.24541328 -138.77124023 5.26541328 C-138.77124023 3.94541328 -138.77124023 2.62541328 -138.77124023 1.26541328 C-136.28746496 0.02352565 -134.6492493 0.14505774 -131.87031555 0.15188789 C-130.31633308 0.15199364 -130.31633308 0.15199364 -128.73095703 0.15210152 C-127.58965332 0.15726784 -126.44834961 0.16243416 -125.27246094 0.16775703 C-124.07397018 0.1692173 -122.87547943 0.17067757 -121.64067078 0.17218208 C-119.03023002 0.17599623 -116.41986494 0.18162292 -113.80944252 0.19024849 C-109.67815516 0.20375776 -105.54687858 0.20966284 -101.41557312 0.21438789 C-91.89325169 0.22644409 -82.37095802 0.24844874 -72.8486557 0.27061653 C-64.13530859 0.29081314 -55.42197111 0.30888845 -46.70860547 0.31883144 C-43.27722617 0.32298855 -39.84587841 0.32930338 -36.41451454 0.34057808 C-32.58200084 0.3525499 -28.74952076 0.35843379 -24.91699219 0.36306953 C-23.78580963 0.36823586 -22.65462708 0.37340218 -21.48916626 0.37872505 C-17.2401323 0.3790103 -13.21987534 0.3332739 -9.01213074 -0.30319023 C-5.82375281 -0.72759674 -3.16543885 -0.4722685 0 0 Z " fill="#000019" transform="translate(220.771240234375,318.73458671569824)" />
<path d="M0 0 C3.63 0 7.26 0 11 0 C11.33 1.32 11.66 2.64 12 4 C13.32 2.68 14.64 1.36 16 0 C17.828125 0.24609375 17.828125 0.24609375 20 1 C21.484375 2.84765625 21.484375 2.84765625 22.75 5.0625 C23.17796875 5.79597656 23.6059375 6.52945312 24.046875 7.28515625 C24.36140625 7.85105469 24.6759375 8.41695313 25 9 C25.33 6.36 25.66 3.72 26 1 C26.66 1 27.32 1 28 1 C28 5.62 28 10.24 28 15 C26.68 15 25.36 15 24 15 C22.02 11.535 22.02 11.535 20 8 C19.855625 9.134375 19.71125 10.26875 19.5625 11.4375 C19.376875 12.613125 19.19125 13.78875 19 15 C18.67 15.33 18.34 15.66 18 16 C16.65732587 16.08631874 15.31025678 16.10706473 13.96484375 16.09765625 C13.15595703 16.09443359 12.34707031 16.09121094 11.51367188 16.08789062 C10.66353516 16.07951172 9.81339844 16.07113281 8.9375 16.0625 C8.08349609 16.05798828 7.22949219 16.05347656 6.34960938 16.04882812 C4.23304337 16.03700373 2.11651315 16.01906769 0 16 C0 10.72 0 5.44 0 0 Z " fill="#27272F" transform="translate(407,367)" />
<path d="M0 0 C1.093125 0.2475 2.18625 0.495 3.3125 0.75 C5.32323695 0.83329267 5.32323695 0.83329267 7.25 0.25 C9.3125 -0.25 9.3125 -0.25 12.3125 -0.25 C12.3125 5.03 12.3125 10.31 12.3125 15.75 C9.734375 15.770625 7.15625 15.79125 4.5 15.8125 C3.28799927 15.82615601 3.28799927 15.82615601 2.05151367 15.84008789 C-1.13131813 15.85246624 -3.64806322 15.76314559 -6.6875 14.75 C-8.6875 11.75 -8.6875 11.75 -9.125 7.8125 C-9.0625 5.6953125 -9.0625 5.6953125 -8.6875 3.75 C-5.82847587 0.19787911 -4.56870404 -0.30974265 0 0 Z " fill="#07070B" transform="translate(604.6875,367.25)" />
<path d="M0 0 C0.99 0.495 0.99 0.495 2 1 C4.33786335 1.12128293 6.6791771 1.17754956 9.02001953 1.20532227 C9.74207581 1.21522186 10.46413208 1.22512146 11.20806885 1.23532104 C13.59961648 1.26696031 15.99118399 1.29170299 18.3828125 1.31640625 C20.03905764 1.33697369 21.69529751 1.3579701 23.35153198 1.37937927 C27.71461724 1.43462167 32.07775004 1.48402137 36.44091797 1.53222656 C40.89164469 1.58242577 45.34230223 1.63812007 49.79296875 1.69335938 C58.52858736 1.80096747 67.26426379 1.90240653 76 2 C76.495 4.475 76.495 4.475 77 7 C76.34 7 75.68 7 75 7 C74.79375 7.78375 74.5875 8.5675 74.375 9.375 C72.06820211 15.45655807 68.84254651 21.56220364 64 26 C64 24.68 64 23.36 64 22 C64.66 22 65.32 22 66 22 C66.103125 21.319375 66.20625 20.63875 66.3125 19.9375 C67.14725019 16.37084011 68.49472754 13.33777806 70 10 C70.99 10 71.98 10 73 10 C73 8.35 73 6.7 73 5 C49.24 4.67 25.48 4.34 1 4 C0.67 2.68 0.34 1.36 0 0 Z " fill="#3D3BB3" transform="translate(136,198)" />
<path d="M0 0 C1.588125 -0.020625 3.17625 -0.04125 4.8125 -0.0625 C5.70582031 -0.07410156 6.59914062 -0.08570313 7.51953125 -0.09765625 C10 0 10 0 13 1 C13 5.62 13 10.24 13 15 C9.98509443 16.00496852 7.95818308 16.10335303 4.8125 16.0625 C3.224375 16.041875 1.63625 16.02125 0 16 C0 10.72 0 5.44 0 0 Z " fill="#ECEDF0" transform="translate(165,367)" />
<path d="M0 0 C0.70125 0.07863281 1.4025 0.15726562 2.125 0.23828125 C4 0.6875 4 0.6875 6 2.6875 C6.1953125 4.8515625 6.1953125 4.8515625 6.125 7.3125 C6.10695313 8.12976563 6.08890625 8.94703125 6.0703125 9.7890625 C6.03550781 10.72878906 6.03550781 10.72878906 6 11.6875 C5.34 11.6875 4.68 11.6875 4 11.6875 C3.67 12.6775 3.34 13.6675 3 14.6875 C0.15916359 16.10791821 -1.85477278 16.00202272 -5 15.6875 C-7.375 14.1875 -7.375 14.1875 -9 11.6875 C-9.52062155 8.78020888 -9.33532643 6.70543785 -9 3.6875 C-6.51879972 0.19126325 -4.1287895 -0.508509 0 0 Z " fill="#C3C3C7" transform="translate(683,367.3125)" />
<path d="M0 0 C3.375 0.875 3.375 0.875 6.375 2.875 C6.42922947 4.3120809 6.46789723 5.74975462 6.5 7.1875 C6.52320312 7.98800781 6.54640625 8.78851563 6.5703125 9.61328125 C6.375 11.875 6.375 11.875 4.375 14.875 C1.3863362 15.60991733 -0.63407424 16.04656362 -3.625 15.875 C-6.625 14.4375 -6.625 14.4375 -8.625 11.875 C-9.33076952 9.0461369 -9.33636435 6.70310704 -8.625 3.875 C-5.80975324 0.37726917 -4.4989238 -0.1551353 0 0 Z " fill="#D4D5D8" transform="translate(108.625,367.125)" />
<path d="M0 0 C1.9375 1.0625 1.9375 1.0625 3 3 C3.23639776 5.71857423 3.13476016 8.25987669 3 11 C1.02 11.99 1.02 11.99 -1 13 C-1 13.66 -1 14.32 -1 15 C-4.57423953 15.3324874 -6.63583344 15.18208328 -9.875 13.5625 C-12 11 -12 11 -12.30859375 8.73046875 C-12.31216109 6.46520932 -12.21674534 4.25415153 -12 2 C-11.34 2 -10.68 2 -10 2 C-10 1.34 -10 0.68 -10 0 C-6.22941703 -1.25686099 -3.86146303 -0.82745636 0 0 Z " fill="#D7D7DB" transform="translate(194,368)" />
<path d="M0 0 C8.24615385 -0.36923077 8.24615385 -0.36923077 12.0625 1.5 C12.701875 1.995 13.34125 2.49 14 3 C13.44271087 6.34373475 12.64826111 9.03312999 11 12 C11.66 12 12.32 12 13 12 C13 13.32 13 14.64 13 16 C11.125 15.6875 11.125 15.6875 9 15 C8.34 14.01 7.68 13.02 7 12 C6.01 11.67 5.02 11.34 4 11 C4 12.65 4 14.3 4 16 C2.68 16 1.36 16 0 16 C0 10.72 0 5.44 0 0 Z " fill="#9B9BA1" transform="translate(556,367)" />
<path d="M0 0 C2.1346875 -0.0309375 2.1346875 -0.0309375 4.3125 -0.0625 C5.51326172 -0.07990234 5.51326172 -0.07990234 6.73828125 -0.09765625 C9 0 9 0 12 1 C12.85035933 5.06282791 12.95282243 7.97697196 12 12 C12 13.32 12 14.64 12 16 C9.07436391 15.58205199 7.98062401 14.98223868 5.75 12.9375 C5.1725 12.298125 4.595 11.65875 4 11 C4 12.65 4 14.3 4 16 C2.68 16 1.36 16 0 16 C0 10.72 0 5.44 0 0 Z " fill="#9FA0A4" transform="translate(201,367)" />
<path d="M0 0 C0.99 0 1.98 0 3 0 C3.33 1.65 3.66 3.3 4 5 C5.32 4.67 6.64 4.34 8 4 C8 4.66 8 5.32 8 6 C7.34 6 6.68 6 6 6 C6 6.99 6 7.98 6 9 C7.65 9 9.3 9 11 9 C11.33 9.99 11.66 10.98 12 12 C10.02 12 8.04 12 6 12 C6.66 13.98 7.32 15.96 8 18 C7.01 18 6.02 18 5 18 C4.34 17.34 3.68 16.68 3 16 C2.67 17.65 2.34 19.3 2 21 C1.34 21 0.68 21 0 21 C-0.33 19.35 -0.66 17.7 -1 16 C-2.98 16.99 -2.98 16.99 -5 18 C-4.49396008 15.83125748 -4.00016187 14.00032373 -3 12 C-4.98 12 -6.96 12 -9 12 C-9 11.01 -9 10.02 -9 9 C-7.02 9 -5.04 9 -3 9 C-3.7425 8.3503125 -3.7425 8.3503125 -4.5 7.6875 C-4.995 7.130625 -5.49 6.57375 -6 6 C-6 5.01 -6 4.02 -6 3 C-4.0625 3.375 -4.0625 3.375 -2 4 C-0.64560332 6.70879335 -0.93498549 9.00933268 -1 12 C0.65 12 2.3 12 4 12 C3.67 11.01 3.34 10.02 3 9 C2.01 8.67 1.02 8.34 0 8 C0 5.36 0 2.72 0 0 Z " fill="#355A56" transform="translate(497,364)" />
<path d="M0 0 C5.28 0 10.56 0 16 0 C16 1.65 16 3.3 16 5 C12.73302745 6.08899085 10.83277746 5.95955464 7.4375 5.625 C6.46683594 5.53476562 5.49617188 5.44453125 4.49609375 5.3515625 C2 5 2 5 0 4 C0 2.68 0 1.36 0 0 Z M12 6 C14.97 6.495 14.97 6.495 18 7 C18.33 8.65 18.66 10.3 19 12 C18.34 12.66 17.68 13.32 17 14 C16.01 14 15.02 14 14 14 C14 14.66 14 15.32 14 16 C13.01 16 12.02 16 11 16 C11 16.66 11 17.32 11 18 C9.68 18 8.36 18 7 18 C7.3125 16.1875 7.3125 16.1875 8 14 C8.495 13.525625 8.99 13.05125 9.5 12.5625 C11.23071909 11.01620566 11.23071909 11.01620566 11.6875 8.3125 C11.8421875 7.1678125 11.8421875 7.1678125 12 6 Z " fill="#050232" transform="translate(375,317)" />
<path d="M0 0 C4 1 4 1 5.625 2.3125 C7.09105518 4.11174954 8.05276241 5.88693154 9 8 C9.33 5.36 9.66 2.72 10 0 C11.32 0 12.64 0 14 0 C14 5.28 14 10.56 14 16 C12.35 15.67 10.7 15.34 9 15 C7.06208579 12.36997358 6.03295481 10.09886444 5 7 C4.34 7 3.68 7 3 7 C3 9.97 3 12.94 3 16 C2.01 16 1.02 16 0 16 C0 10.72 0 5.44 0 0 Z " fill="#9C9DA4" transform="translate(693,367)" />
<path d="M0 0 C6.73828125 -0.1953125 6.73828125 -0.1953125 9 0 C9.99 0.66 10.98 1.32 12 2 C12.125 8.75 12.125 8.75 11 11 C8.69 11 6.38 11 4 11 C4 12.65 4 14.3 4 16 C2.68 16 1.36 16 0 16 C0 10.72 0 5.44 0 0 Z " fill="#999A9E" transform="translate(525,367)" />
<path d="M0 0 C4 1 4 1 5.625 2.3125 C7.09105518 4.11174954 8.05276241 5.88693154 9 8 C9.33 5.36 9.66 2.72 10 0 C11.32 0 12.64 0 14 0 C14 4.95 14 9.9 14 15 C13.01 15.33 12.02 15.66 11 16 C6.2 11.56923077 6.2 11.56923077 5.1875 8.6875 C5.125625 8.130625 5.06375 7.57375 5 7 C4.34 7 3.68 7 3 7 C3 9.64 3 12.28 3 15 C2.01 15 1.02 15 0 15 C0 10.05 0 5.1 0 0 Z " fill="#AEAFB4" transform="translate(305,367)" />
<path d="M0 0 C1.423125 -0.061875 2.84625 -0.12375 4.3125 -0.1875 C5.51326172 -0.23970703 5.51326172 -0.23970703 6.73828125 -0.29296875 C9 0 9 0 10.76953125 1.35546875 C12 3 12 3 12.375 5.5 C12 8 12 8 10.8125 9.8125 C9 11 9 11 6.3125 11.1875 C5.549375 11.125625 4.78625 11.06375 4 11 C4 12.65 4 14.3 4 16 C2.68 16 1.36 16 0 16 C0 10.72 0 5.44 0 0 Z " fill="#909295" transform="translate(621,367)" />
<path d="M0 0 C1.85287502 -0.07226502 3.70833878 -0.0838122 5.5625 -0.0625 C6.57441406 -0.05347656 7.58632813 -0.04445313 8.62890625 -0.03515625 C9.80259766 -0.01775391 9.80259766 -0.01775391 11 0 C11 0.99 11 1.98 11 3 C8.36 3 5.72 3 3 3 C3 3.99 3 4.98 3 6 C5.31 6 7.62 6 10 6 C10 6.99 10 7.98 10 9 C7.69 9 5.38 9 3 9 C3 9.99 3 10.98 3 12 C5.64 12 8.28 12 11 12 C11 13.32 11 14.64 11 16 C7.04 16 3.08 16 -1 16 C-1.02685095 13.52076199 -1.04676547 11.0418116 -1.0625 8.5625 C-1.07506836 7.50192383 -1.07506836 7.50192383 -1.08789062 6.41992188 C-1.09653588 4.61306441 -1.05220011 2.80612397 -1 1 C-0.67 0.67 -0.34 0.34 0 0 Z " fill="#B8B8BC" transform="translate(274,367)" />
<path d="M0 0 C1.216875 0.226875 2.43375 0.45375 3.6875 0.6875 C3.6875 2.0075 3.6875 3.3275 3.6875 4.6875 C2.6975 4.6875 1.7075 4.6875 0.6875 4.6875 C0.6875 4.0275 0.6875 3.3675 0.6875 2.6875 C-1.2925 3.3475 -3.2725 4.0075 -5.3125 4.6875 C-5.6425 6.6675 -5.9725 8.6475 -6.3125 10.6875 C-4.0025 11.0175 -1.6925 11.3475 0.6875 11.6875 C0.6875 11.0275 0.6875 10.3675 0.6875 9.6875 C-0.3025 9.6875 -1.2925 9.6875 -2.3125 9.6875 C-2.3125 8.6975 -2.3125 7.7075 -2.3125 6.6875 C-0.0025 6.6875 2.3075 6.6875 4.6875 6.6875 C4.9375 9.5 4.9375 9.5 4.6875 12.6875 C3.1875 14.625 3.1875 14.625 0.6875 15.6875 C-2.22995394 15.77398579 -4.40028657 15.34509658 -7.3125 14.6875 C-9.3125 11.6875 -9.3125 11.6875 -9.5078125 9.42578125 C-9.48460937 8.62527344 -9.46140625 7.82476562 -9.4375 7 C-9.41945313 6.19175781 -9.40140625 5.38351562 -9.3828125 4.55078125 C-9.35960937 3.93589844 -9.33640625 3.32101562 -9.3125 2.6875 C-6.05837003 0.14521096 -4.01312406 -0.52747989 0 0 Z " fill="#AAAAAF" transform="translate(398.3125,367.3125)" />
<path d="M0 0 C3.63 0 7.26 0 11 0 C11 0.99 11 1.98 11 3 C8.69 3 6.38 3 4 3 C4 3.99 4 4.98 4 6 C5.98 6 7.96 6 10 6 C10.33 6.99 10.66 7.98 11 9 C8.69 9 6.38 9 4 9 C4 9.99 4 10.98 4 12 C6.31 12 8.62 12 11 12 C11 13.32 11 14.64 11 16 C7.37 16 3.74 16 0 16 C0 10.72 0 5.44 0 0 Z " fill="#B9B9BD" transform="translate(407,367)" />
<path d="M0 0 C1.32 0.33 2.64 0.66 4 1 C5.31626692 4.61973402 6 7.09567131 6 11 C6.66 11 7.32 11 8 11 C8 12.65 8 14.3 8 16 C6.68 15.34 5.36 14.68 4 14 C4 13.34 4 12.68 4 12 C2.02 12 0.04 12 -2 12 C-2.33 13.32 -2.66 14.64 -3 16 C-4.32 16 -5.64 16 -7 16 C-6.55217282 10.17824666 -4.02748791 5.85829986 -1 1 C-0.67 0.67 -0.34 0.34 0 0 Z " fill="#DCDCE2" transform="translate(154,367)" />
<path d="M0 0 C1.65 0.33 3.3 0.66 5 1 C5.66 4.3 6.32 7.6 7 11 C7.66 11 8.32 11 9 11 C9.33 12.65 9.66 14.3 10 16 C8.35 15.67 6.7 15.34 5 15 C5 14.01 5 13.02 5 12 C2.69 12 0.38 12 -2 12 C-2 13.32 -2 14.64 -2 16 C-3.32 16 -4.64 16 -6 16 C-5.3064922 13.10047692 -4.48796854 10.2714477 -3.5625 7.4375 C-3.31628906 6.67308594 -3.07007813 5.90867187 -2.81640625 5.12109375 C-2 3 -2 3 0 0 Z " fill="#CFCFD4" transform="translate(544,367)" />
<path d="M0 0 C1.65 0.33 3.3 0.66 5 1 C6.86540627 5.70406799 8.36843005 9.94744036 9 15 C8.01 15 7.02 15 6 15 C6 14.01 6 13.02 6 12 C3.36 12 0.72 12 -2 12 C-2 13.32 -2 14.64 -2 16 C-3.32 16 -4.64 16 -6 16 C-5.52412884 9.97229862 -2.80277043 5.23321711 0 0 Z " fill="#C6C7CD" transform="translate(640,367)" />
<path d="M0 0 C3.96 0 7.92 0 12 0 C12 0.99 12 1.98 12 3 C9.03 3 6.06 3 3 3 C3 4.32 3 5.64 3 7 C5.31 7 7.62 7 10 7 C10 7.66 10 8.32 10 9 C8.02 9 6.04 9 4 9 C4 9.99 4 10.98 4 12 C6.64 12 9.28 12 12 12 C12 13.32 12 14.64 12 16 C8.04 16 4.08 16 0 16 C0 10.72 0 5.44 0 0 Z " fill="#C8C8CC" transform="translate(457,367)" />
<path d="M0 0 C1.32 0.33 2.64 0.66 4 1 C4.33 2.98 4.66 4.96 5 7 C5.66 7 6.32 7 7 7 C7.66 9.97 8.32 12.94 9 16 C7.68 15.67 6.36 15.34 5 15 C5 14.01 5 13.02 5 12 C2.69 12.33 0.38 12.66 -2 13 C-2.33 13.66 -2.66 14.32 -3 15 C-3.66 15 -4.32 15 -5 15 C-4.125 7.375 -4.125 7.375 -3 4 C-2.34 4 -1.68 4 -1 4 C-0.67 2.68 -0.34 1.36 0 0 Z " fill="#A2A3A8" transform="translate(223,367)" />
<path d="M0 0 C1.22589844 0.15275391 1.22589844 0.15275391 2.4765625 0.30859375 C3.41628906 0.43427734 3.41628906 0.43427734 4.375 0.5625 C4.375 1.8825 4.375 3.2025 4.375 4.5625 C3.055 4.5625 1.735 4.5625 0.375 4.5625 C0.375 3.9025 0.375 3.2425 0.375 2.5625 C-1.275 2.5625 -2.925 2.5625 -4.625 2.5625 C-4.625 5.2025 -4.625 7.8425 -4.625 10.5625 C-1.655 10.5625 1.315 10.5625 4.375 10.5625 C4.375 11.8825 4.375 13.2025 4.375 14.5625 C2.94089632 14.81204005 1.50239928 15.03642642 0.0625 15.25 C-0.73800781 15.37761719 -1.53851563 15.50523437 -2.36328125 15.63671875 C-3.48283203 15.59998047 -3.48283203 15.59998047 -4.625 15.5625 C-6.41796875 14.20703125 -6.41796875 14.20703125 -7.625 12.5625 C-7.625 11.9025 -7.625 11.2425 -7.625 10.5625 C-8.285 10.5625 -8.945 10.5625 -9.625 10.5625 C-9.625 8.2525 -9.625 5.9425 -9.625 3.5625 C-8.635 3.2325 -7.645 2.9025 -6.625 2.5625 C-6.625 1.9025 -6.625 1.2425 -6.625 0.5625 C-4.10446405 -0.69776798 -2.7707902 -0.35624445 0 0 Z " fill="#B2B3B7" transform="translate(92.625,367.4375)" />
<path d="M0 0 C1.5778125 0.3403125 1.5778125 0.3403125 3.1875 0.6875 C3.5175 2.0075 3.8475 3.3275 4.1875 4.6875 C3.1975 4.6875 2.2075 4.6875 1.1875 4.6875 C1.1875 4.0275 1.1875 3.3675 1.1875 2.6875 C-0.7925 3.3475 -2.7725 4.0075 -4.8125 4.6875 C-5.1425 6.6675 -5.4725 8.6475 -5.8125 10.6875 C-2.1825 10.6875 1.4475 10.6875 5.1875 10.6875 C5.1875 12.0075 5.1875 13.3275 5.1875 14.6875 C1.84304909 15.27469367 -1.41263588 15.69815788 -4.8125 15.6875 C-7.4375 14.3125 -7.4375 14.3125 -8.8125 11.6875 C-9.11465563 8.65552458 -9.04593942 5.72221242 -8.8125 2.6875 C-5.5287062 0.19977742 -4.20051417 -0.34430444 0 0 Z " fill="#B2B4B8" transform="translate(448.8125,367.3125)" />
<path d="M0 0 C1.32 0.33 2.64 0.66 4 1 C4.99 3.64 5.98 6.28 7 9 C7.99 6.36 8.98 3.72 10 1 C11.32 0.67 12.64 0.34 14 0 C14 1.65 14 3.3 14 5 C13.34 5 12.68 5 12 5 C11.67 7.31 11.34 9.62 11 12 C10.34 12 9.68 12 9 12 C8.67 13.32 8.34 14.64 8 16 C6.68 15.67 5.36 15.34 4 15 C3.67 12.36 3.34 9.72 3 7 C2.34 7 1.68 7 1 7 C0.67 4.69 0.34 2.38 0 0 Z " fill="#C0C1C6" transform="translate(256,367)" />
<path d="M0 0 C1.32 0.33 2.64 0.66 4 1 C5.484375 2.84765625 5.484375 2.84765625 6.75 5.0625 C7.39195312 6.16271484 7.39195312 6.16271484 8.046875 7.28515625 C8.36140625 7.85105469 8.6759375 8.41695313 9 9 C9.33 6.36 9.66 3.72 10 1 C10.66 1 11.32 1 12 1 C12 5.62 12 10.24 12 15 C10.68 15 9.36 15 8 15 C6.02 11.535 6.02 11.535 4 8 C3.67 10.31 3.34 12.62 3 15 C2.01 15 1.02 15 0 15 C0 10.05 0 5.1 0 0 Z " fill="#A9AAAF" transform="translate(423,367)" />
<path d="M0 0 C3.63 0 7.26 0 11 0 C11 0.99 11 1.98 11 3 C8.03 3 5.06 3 2 3 C2.33 3.99 2.66 4.98 3 6 C5.64 6.33 8.28 6.66 11 7 C11 7.66 11 8.32 11 9 C8.36 9 5.72 9 3 9 C3 10.32 3 11.64 3 13 C5.64 13 8.28 13 11 13 C11 13.99 11 14.98 11 16 C7.37 16 3.74 16 0 16 C0 10.72 0 5.44 0 0 Z " fill="#CDCED2" transform="translate(338,367)" />
<path d="M0 0 C2.49962246 -0.1877701 4.88744197 -0.25194071 7.38720703 -0.22705078 C8.14827759 -0.22734283 8.90934814 -0.22763489 9.69348145 -0.22793579 C12.21504016 -0.22653981 14.73630525 -0.21096618 17.2578125 -0.1953125 C19.00373167 -0.19158332 20.74965294 -0.1887359 22.49557495 -0.18673706 C27.0954972 -0.17909311 31.69529357 -0.15943813 36.29516602 -0.1373291 C40.9871246 -0.11688704 45.67910349 -0.10773886 50.37109375 -0.09765625 C59.58078454 -0.07619292 68.79038181 -0.04204783 78 0 C77.67 0.66 77.34 1.32 77 2 C53.57 1.67 30.14 1.34 6 1 C6 1.66 6 2.32 6 3 C5.46375 3.103125 4.9275 3.20625 4.375 3.3125 C1.37497956 4.18092697 -1.2379535 5.55620296 -4 7 C-2.92598892 4.08482708 -2.22189824 2.22189824 0 0 Z " fill="#3D7B57" transform="translate(179,145)" />
<path d="M0 0 C1.051875 0.2475 2.10375 0.495 3.1875 0.75 C3.5175 2.07 3.8475 3.39 4.1875 4.75 C3.1975 4.75 2.2075 4.75 1.1875 4.75 C1.1875 4.09 1.1875 3.43 1.1875 2.75 C-0.7925 3.41 -2.7725 4.07 -4.8125 4.75 C-5.1425 6.73 -5.4725 8.71 -5.8125 10.75 C-2.5125 10.75 0.7875 10.75 4.1875 10.75 C3.8575 12.07 3.5275 13.39 3.1875 14.75 C-3.4375 15.875 -3.4375 15.875 -6.8125 14.75 C-8.8125 11.75 -8.8125 11.75 -9.25 7.8125 C-9.1875 5.6953125 -9.1875 5.6953125 -8.8125 3.75 C-5.90715188 0.14032507 -4.64546998 -0.30462098 0 0 Z " fill="#CECED2" transform="translate(604.8125,367.25)" />
<path d="M0 0 C0.99 0 1.98 0 3 0 C2.67 1.32 2.34 2.64 2 4 C1.34 4 0.68 4 0 4 C-0.33 4.99 -0.66 5.98 -1 7 C-26.41 7 -51.82 7 -78 7 C-78.33 6.34 -78.66 5.68 -79 5 C-78.14524078 5.00444122 -77.29048157 5.00888245 -76.40982056 5.01345825 C-68.31906873 5.05368202 -60.22835093 5.08405876 -52.13752174 5.10362434 C-47.97884448 5.11402163 -43.82025046 5.12810595 -39.66162109 5.15087891 C-35.64157681 5.17275294 -31.62161216 5.18459905 -27.60151291 5.18975449 C-26.0746676 5.19342428 -24.54782619 5.20058981 -23.02101517 5.21146011 C-14.82036281 5.26747587 -6.97571708 5.12690813 1 3 C0.505 1.515 0.505 1.515 0 0 Z " fill="#4939AE" transform="translate(197,224)" />
<path d="M0 0 C1.32 0 2.64 0 4 0 C4 3.96 4 7.92 4 12 C6.64 12 9.28 12 12 12 C12 13.32 12 14.64 12 16 C8.04 16 4.08 16 0 16 C0 10.72 0 5.44 0 0 Z " fill="#7B7B81" transform="translate(352,367)" />
<path d="M0 0 C26.4 0 52.8 0 80 0 C80 0.99 80 1.98 80 3 C79.505 2.505 79.505 2.505 79 2 C76.64856688 1.88381664 74.32608173 1.83202541 71.97338867 1.82299805 C70.87090034 1.81314125 70.87090034 1.81314125 69.74613953 1.80308533 C67.30341501 1.78330592 64.86075212 1.77167908 62.41796875 1.76171875 C61.58540369 1.75764322 60.75283863 1.7535677 59.89504433 1.74936867 C55.48789338 1.7284874 51.08077375 1.71419504 46.67358398 1.70483398 C42.11690962 1.69376941 37.56072361 1.6593752 33.00422192 1.61966228 C29.50493959 1.5935363 26.00577425 1.58514571 22.50640297 1.58155251 C20.82665016 1.57667554 19.14690295 1.56503003 17.4672451 1.54651451 C15.11603352 1.52220901 12.76609323 1.5230718 10.41479492 1.5300293 C9.72009094 1.51721924 9.02538696 1.50440918 8.30963135 1.49121094 C6.11544307 1.47165786 6.11544307 1.47165786 3 2 C0.66975871 3.91643693 0.66975871 3.91643693 -1 6 C-1.66 6 -2.32 6 -3 6 C-2 4 -1 2 0 0 Z " fill="#513FC8" transform="translate(121,86)" />
<path d="M0 0 C4.29 0 8.58 0 13 0 C13 0.99 13 1.98 13 3 C11.35 3 9.7 3 8 3 C8 6.96 8 10.92 8 15 C6.68 15 5.36 15 4 15 C4 11.37 4 7.74 4 4 C2.68 4 1.36 4 0 4 C0 2.68 0 1.36 0 0 Z " fill="#84858A" transform="translate(322,367)" />
<path d="M0 0 C0 4.29 0 8.58 0 13 C-0.99 13.495 -0.99 13.495 -2 14 C-2 13.01 -2 12.02 -2 11 C-4.64 11 -7.28 11 -10 11 C-10 9.68 -10 8.36 -10 7 C-7.36 7 -4.72 7 -2 7 C-2 6.34 -2 5.68 -2 5 C-4.64 5 -7.28 5 -10 5 C-10.33 3.68 -10.66 2.36 -11 1 C-9.35422741 0.83273455 -7.70838013 0.66620388 -6.0625 0.5 C-4.68771484 0.36078125 -4.68771484 0.36078125 -3.28515625 0.21875 C-1 0 -1 0 0 0 Z " fill="#3B3C43" transform="translate(351,369)" />
<path d="M0 0 C3.96 0 7.92 0 12 0 C12 0.99 12 1.98 12 3 C10.68 3 9.36 3 8 3 C8 7.29 8 11.58 8 16 C6.68 16 5.36 16 4 16 C4 11.71 4 7.42 4 3 C2.68 3 1.36 3 0 3 C0 2.01 0 1.02 0 0 Z " fill="#BABABE" transform="translate(233,367)" />
<path d="M0 0 C0.99 0.495 0.99 0.495 2 1 C4.33786335 1.12128293 6.6791771 1.17754956 9.02001953 1.20532227 C9.74207581 1.21522186 10.46413208 1.22512146 11.20806885 1.23532104 C13.59961648 1.26696031 15.99118399 1.29170299 18.3828125 1.31640625 C20.03905764 1.33697369 21.69529751 1.3579701 23.35153198 1.37937927 C27.71461724 1.43462167 32.07775004 1.48402137 36.44091797 1.53222656 C40.89164469 1.58242577 45.34230223 1.63812007 49.79296875 1.69335938 C58.52858736 1.80096747 67.26426379 1.90240653 76 2 C76.495 4.475 76.495 4.475 77 7 C76.34 7 75.68 7 75 7 C75 6.01 75 5.02 75 4 C38.37 3.505 38.37 3.505 1 3 C0.67 2.01 0.34 1.02 0 0 Z " fill="#2C2983" transform="translate(136,198)" />
<path d="M0 0 C0.33 0 0.66 0 1 0 C1 2.64 1 5.28 1 8 C0.34 8 -0.32 8 -1 8 C-1 9.32 -1 10.64 -1 12 C-3.64 12 -6.28 12 -9 12 C-8.67 8.7 -8.34 5.4 -8 2 C-6.00045254 1.95745644 -3.99958364 1.95919217 -2 2 C-1.67 2.33 -1.34 2.66 -1 3 C-0.67 2.01 -0.34 1.02 0 0 Z " fill="#808085" transform="translate(177,368)" />
<path d="M0 0 C1.32 0.66 2.64 1.32 4 2 C4.08165496 4.20770805 4.13948488 6.41630425 4.1875 8.625 C4.23970703 10.46964844 4.23970703 10.46964844 4.29296875 12.3515625 C3.97122718 16.35831752 3.1124725 18.6047846 1 22 C-0.8671875 24.1171875 -0.8671875 24.1171875 -2.875 25.875 C-3.53242188 26.47054687 -4.18984375 27.06609375 -4.8671875 27.6796875 C-7 29 -7 29 -9.7578125 29.1953125 C-10.49773437 29.13085938 -11.23765625 29.06640625 -12 29 C-12 29.66 -12 30.32 -12 31 C-12.99 30.67 -13.98 30.34 -15 30 C-15 29.34 -15 28.68 -15 28 C-11.04 27.505 -11.04 27.505 -7 27 C-7 26.34 -7 25.68 -7 25 C-5.3545622 23.31237149 -3.68711423 21.6459651 -2 20 C-1.67 19.34 -1.34 18.68 -1 18 C-0.34 18 0.32 18 1 18 C1.02717692 15.93757383 1.0464758 13.87504297 1.0625 11.8125 C1.07410156 10.66394531 1.08570313 9.51539063 1.09765625 8.33203125 C1.01192832 5.40699414 0.67849023 2.83683709 0 0 Z " fill="#171921" transform="translate(403,206)" />
<path d="M0 0 C0.99 0 1.98 0 3 0 C3 3.96 3 7.92 3 12 C5.64 12 8.28 12 11 12 C11 13.32 11 14.64 11 16 C7.37 16 3.74 16 0 16 C0 10.72 0 5.44 0 0 Z " fill="#BBBCBF" transform="translate(134,367)" />
<path d="M0 0 C0.99 0 1.98 0 3 0 C3 3.96 3 7.92 3 12 C5.64 12 8.28 12 11 12 C11 13.32 11 14.64 11 16 C7.37 16 3.74 16 0 16 C0 10.72 0 5.44 0 0 Z " fill="#B6B6BB" transform="translate(120,367)" />
<path d="M0 0 C2.625 -0.125 2.625 -0.125 5 0 C4.67 0.66 4.34 1.32 4 2 C6.97 2.495 6.97 2.495 10 3 C10 4.65 10 6.3 10 8 C8.37585622 8.19477739 6.75063577 8.38059458 5.125 8.5625 C4.22007812 8.66691406 3.31515625 8.77132813 2.3828125 8.87890625 C0 9 0 9 -2 8 C-2.125 5.125 -2.125 5.125 -2 2 C-1.34 1.34 -0.68 0.68 0 0 Z " fill="#080919" transform="translate(445,370)" />
<path d="M0 0 C2.475 0.495 2.475 0.495 5 1 C5 5.95 5 10.9 5 16 C3.35 15.67 1.7 15.34 0 15 C0 10.05 0 5.1 0 0 Z " fill="#8C8E93" transform="translate(381,367)" />
<path d="M0 0 C4.29 0 8.58 0 13 0 C13 0.99 13 1.98 13 3 C11.35 3 9.7 3 8 3 C8 7.29 8 11.58 8 16 C7.01 16 6.02 16 5 16 C5 11.71 5 7.42 5 3 C3.35 3 1.7 3 0 3 C0 2.01 0 1.02 0 0 Z " fill="#C0C1C6" transform="translate(572,367)" />
<path d="M0 0 C2.1640625 0.0234375 2.1640625 0.0234375 4.625 0.375 C5.85089844 0.54128906 5.85089844 0.54128906 7.1015625 0.7109375 C7.72804688 0.80632812 8.35453125 0.90171875 9 1 C9 1.33 9 1.66 9 2 C4.545 3.485 4.545 3.485 0 5 C-0.33 7.31 -0.66 9.62 -1 12 C-1.66 12 -2.32 12 -3 12 C-3.33 13.98 -3.66 15.96 -4 18 C-5.32 17.67 -6.64 17.34 -8 17 C-7.34 17 -6.68 17 -6 17 C-6 12.38 -6 7.76 -6 3 C-6.66 2.67 -7.32 2.34 -8 2 C-6 2 -4 2 -2 2 C-1.34 1.34 -0.68 0.68 0 0 Z " fill="#42444C" transform="translate(441,365)" />
<path d="M0 0 C4.29 0 8.58 0 13 0 C13 0.99 13 1.98 13 3 C11.35 3 9.7 3 8 3 C8 6.96 8 10.92 8 15 C7.01 15 6.02 15 5 15 C5 11.04 5 7.08 5 3 C3.35 3 1.7 3 0 3 C0 2.01 0 1.02 0 0 Z " fill="#C9CACE" transform="translate(650,367)" />
<path d="M0 0 C0.99 0 1.98 0 3 0 C3 4.29 3 8.58 3 13 C5.64 13 8.28 13 11 13 C11 13.99 11 14.98 11 16 C7.37 16 3.74 16 0 16 C0 10.72 0 5.44 0 0 Z " fill="#BABABF" transform="translate(367,367)" />
<path d="M0 0 C2.5625 -0.1875 2.5625 -0.1875 5 0 C5.33 0.33 5.66 0.66 6 1 C6.04092937 3.33297433 6.04241723 5.66705225 6 8 C3.04335481 9.4783226 0.25770263 9.06032783 -3 9 C-3 10.32 -3 11.64 -3 13 C-3.66 13 -4.32 13 -5 13 C-5 9.04 -5 5.08 -5 1 C-4.34 1 -3.68 1 -3 1 C-3 2.98 -3 4.96 -3 7 C-1.02 6.67 0.96 6.34 3 6 C3 4.68 3 3.36 3 2 C1.35 2 -0.3 2 -2 2 C-1.34 1.34 -0.68 0.68 0 0 Z " fill="#D4D3D8" transform="translate(531,368)" />
<path d="M0 0 C2.33944736 0.28730055 4.6739143 0.61936779 7 1 C7 3.31 7 5.62 7 8 C3.625 8.625 3.625 8.625 0 9 C-0.66 8.34 -1.32 7.68 -2 7 C-1.6875 3.9375 -1.6875 3.9375 -1 1 C-0.67 0.67 -0.34 0.34 0 0 Z " fill="#222225" transform="translate(187,370)" />
<path d="M0 0 C4 1 4 1 5.6875 2.1875 C7.48848824 4.67457899 7.66549509 6.98945583 8 10 C7.01 9.67 6.02 9.34 5 9 C5 8.34 5 7.68 5 7 C4.34 7 3.68 7 3 7 C3 9.64 3 12.28 3 15 C2.01 15 1.02 15 0 15 C0 10.05 0 5.1 0 0 Z " fill="#C8C8CE" transform="translate(305,367)" />
<path d="M0 0 C1.32 0 2.64 0 4 0 C4 5.61 4 11.22 4 17 C2.68 17 1.36 17 0 17 C0 11.39 0 5.78 0 0 Z " fill="#3C379A" transform="translate(396,293)" />
<path d="M0 0 C2.4375 -0.1875 2.4375 -0.1875 5 0 C5.66 0.66 6.32 1.32 7 2 C7.125 5.625 7.125 5.625 7 9 C4.66705225 9.04241723 2.33297433 9.04092937 0 9 C-0.33 8.67 -0.66 8.34 -1 8 C-1.125 4.5 -1.125 4.5 -1 1 C-0.67 0.67 -0.34 0.34 0 0 Z " fill="#060610" transform="translate(105,370)" />
<path d="M0 0 C1.65 0 3.3 0 5 0 C5 0.66 5 1.32 5 2 C6.65 2 8.3 2 10 2 C8.50232307 4.49825258 6.97873238 6.85503265 5 9 C2.25 9.5 2.25 9.5 0 9 C-0.33 8.67 -0.66 8.34 -1 8 C-1.23529412 2.47058824 -1.23529412 2.47058824 0 0 Z " fill="#0D0C16" transform="translate(88,370)" />
<path d="M0 0 C1.98 0 3.96 0 6 0 C6.33 2.31 6.66 4.62 7 7 C6.01 7.66 5.02 8.32 4 9 C0.8125 8.625 0.8125 8.625 -2 8 C-2 6.02 -2 4.04 -2 2 C-1.34 2 -0.68 2 0 2 C0 1.34 0 0.68 0 0 Z " fill="#CECED2" transform="translate(626,368)" />
<path d="M0 0 C4.95 0 9.9 0 15 0 C15.33 0.99 15.66 1.98 16 3 C10.72 3 5.44 3 0 3 C-0.57106449 8.76280004 -0.57106449 8.76280004 2 11.875 C2.66 12.57625 3.32 13.2775 4 14 C1.625 13.6875 1.625 13.6875 -1 13 C-3 10 -3 10 -3.125 6.3125 C-3.08375 5.219375 -3.0425 4.12625 -3 3 C-2.34 3 -1.68 3 -1 3 C-0.67 2.01 -0.34 1.02 0 0 Z " fill="#313238" transform="translate(371,180)" />
<path d="M0 0 C2.625 -0.125 2.625 -0.125 5 0 C6.36623674 2.73247348 6.128426 4.98198902 6 8 C5.67 8.33 5.34 8.66 5 9 C2 9.125 2 9.125 -1 9 C-1.33 8.67 -1.66 8.34 -2 8 C-2.1875 5.0625 -2.1875 5.0625 -2 2 C-1.34 1.34 -0.68 0.68 0 0 Z " fill="#19181C" transform="translate(679,370)" />
<path d="M0 0 C1.32 0 2.64 0 4 0 C4.33 5.28 4.66 10.56 5 16 C3.35 15.67 1.7 15.34 0 15 C0 10.05 0 5.1 0 0 Z " fill="#A1A2A7" transform="translate(666,367)" />
<path d="M0 0 C1.32 0 2.64 0 4 0 C4 5.28 4 10.56 4 16 C2.68 16 1.36 16 0 16 C0 10.72 0 5.44 0 0 Z " fill="#543EAA" transform="translate(396,327)" />
<path d="M0 0 C0.495 0.99 0.495 0.99 1 2 C1.66 2 2.32 2 3 2 C3 3.65 3 5.3 3 7 C-9.87 7 -22.74 7 -36 7 C-36 6.67 -36 6.34 -36 6 C-32.35431461 5.8299916 -28.70843272 5.66461197 -25.0625 5.5 C-24.04091797 5.45230469 -23.01933594 5.40460938 -21.96679688 5.35546875 C-17.30367528 5.14689462 -12.6642038 4.97767054 -7.99609375 5.03125 C-4.90622175 5.00708678 -2.87686329 4.81863595 0 4 C0 2.68 0 1.36 0 0 Z " fill="#3D3DBF" transform="translate(216,110)" />
<path d="M0 0 C0.99 0 1.98 0 3 0 C3 5.28 3 10.56 3 16 C1.68 16 0.36 16 -1 16 C-1.02685095 13.52076199 -1.04676547 11.0418116 -1.0625 8.5625 C-1.07506836 7.50192383 -1.07506836 7.50192383 -1.08789062 6.41992188 C-1.09653588 4.61306441 -1.05220011 2.80612397 -1 1 C-0.67 0.67 -0.34 0.34 0 0 Z " fill="#AAABB0" transform="translate(614,367)" />
<path d="M0 0 C1.32 0.33 2.64 0.66 4 1 C4 5.95 4 10.9 4 16 C2.68 16 1.36 16 0 16 C0 10.72 0 5.44 0 0 Z " fill="#B9B9BD" transform="translate(297,367)" />
<path d="M0 0 C1.32 0.33 2.64 0.66 4 1 C5.31626692 4.61973402 6 7.09567131 6 11 C6.66 11 7.32 11 8 11 C8 12.65 8 14.3 8 16 C6.68 15.34 5.36 14.68 4 14 C4 13.01 4 12.02 4 11 C1.69 11 -0.62 11 -3 11 C-2.67 10.01 -2.34 9.02 -2 8 C-2 8.66 -2 9.32 -2 10 C-0.35 10 1.3 10 3 10 C2.67 8.02 2.34 6.04 2 4 C1.01 4 0.02 4 -1 4 C-0.67 2.68 -0.34 1.36 0 0 Z " fill="#CBCBCF" transform="translate(154,367)" />
<path d="M0 0 C1.32 0 2.64 0 4 0 C4 4.95 4 9.9 4 15 C2.68 15 1.36 15 0 15 C0 10.05 0 5.1 0 0 Z " fill="#A8AAAF" transform="translate(588,367)" />
<path d="M0 0 C4.95 0 9.9 0 15 0 C15 1.32 15 2.64 15 4 C10.05 4 5.1 4 0 4 C0 2.68 0 1.36 0 0 Z " fill="#453C93" transform="translate(406,317)" />
<path d="M0 0 C4.95 0 9.9 0 15 0 C15 1.32 15 2.64 15 4 C10.05 4 5.1 4 0 4 C0 2.68 0 1.36 0 0 Z " fill="#453092" transform="translate(375,317)" />
<path d="M0 0 C-3.7495651 1.23415334 -7.21134184 0.96117079 -11.125 0.8125 C-17.06123917 0.67974988 -21.69235852 1.50237968 -27.046875 4.125 C-29 5 -29 5 -32 5 C-29.44104794 2.01455593 -26.57429499 0.57268979 -23 -1 C-15.26071062 -2.88356877 -7.49200662 -2.66382457 0 0 Z " fill="#8B8C91" transform="translate(392,169)" />
<path d="M0 0 C-0.65484375 0.37769531 -1.3096875 0.75539063 -1.984375 1.14453125 C-2.64953125 1.75683594 -3.3146875 2.36914062 -4 3 C-4.48340432 5.7386225 -4.48340432 5.7386225 -4.25 8.6875 C-4.21390625 9.68136719 -4.1778125 10.67523438 -4.140625 11.69921875 C-4.09421875 12.45847656 -4.0478125 13.21773438 -4 14 C-4.66 13.34 -5.32 12.68 -6 12 C-6.66 12.66 -7.32 13.32 -8 14 C-8 12.68 -8 11.36 -8 10 C-9.32 9.67 -10.64 9.34 -12 9 C-11.34 8.2575 -10.68 7.515 -10 6.75 C-9.34 5.8425 -8.68 4.935 -8 4 C-8 2.68 -8 1.36 -8 0 C-4.71303767 -0.79953138 -3.28976808 -1.09658936 0 0 Z " fill="#02030C" transform="translate(105,368)" />
<path d="M0 0 C0.66 0 1.32 0 2 0 C2 5.28 2 10.56 2 16 C5.96 16 9.92 16 14 16 C13.67 16.66 13.34 17.32 13 18 C9.04 18 5.08 18 1 18 C0.3635755 13.94279383 0 10.09797408 0 6 C-0.185625 5.278125 -0.37125 4.55625 -0.5625 3.8125 C-0.706875 3.214375 -0.85125 2.61625 -1 2 C-0.67 1.34 -0.34 0.68 0 0 Z " fill="#000109" transform="translate(271,367)" />
<path d="M0 0 C1.32 0.33 2.64 0.66 4 1 C4 5.95 4 10.9 4 16 C2.66666667 16 1.33333333 16 0 16 C0 10.72 0 5.44 0 0 Z " fill="#010008" transform="translate(617,367)" />
<path d="M0 0 C3.3 0 6.6 0 10 0 C10 2.31 10 4.62 10 7 C9.67 7 9.34 7 9 7 C9 5.35 9 3.7 9 2 C6.69 2 4.38 2 2 2 C2.33 3.65 2.66 5.3 3 7 C4.65 7.33 6.3 7.66 8 8 C7.34 8.66 6.68 9.32 6 10 C4.68 9.67 3.36 9.34 2 9 C2 10.32 2 11.64 2 13 C1.34 13 0.68 13 0 13 C0 8.71 0 4.42 0 0 Z " fill="#E9E9EC" transform="translate(202,368)" />
<path d="M0 0 C0.33 0 0.66 0 1 0 C1 4.62 1 9.24 1 14 C0.01 14.495 0.01 14.495 -1 15 C-1.99 14.67 -2.98 14.34 -4 14 C-4.99 14.495 -4.99 14.495 -6 15 C-5.67 13.68 -5.34 12.36 -5 11 C-4.34 11 -3.68 11 -3 11 C-3 8.03 -3 5.06 -3 2 C-2.34 2.33 -1.68 2.66 -1 3 C-0.67 2.01 -0.34 1.02 0 0 Z " fill="#15161F" transform="translate(692,368)" />
<path d="M0 0 C0.33 0.99 0.66 1.98 1 3 C2.32 3.33 3.64 3.66 5 4 C4.01 4.495 4.01 4.495 3 5 C3.12375 6.1446875 3.12375 6.1446875 3.25 7.3125 C3.1675 8.199375 3.085 9.08625 3 10 C1 11.8125 1 11.8125 -1 13 C-1.33 11.02 -1.66 9.04 -2 7 C-2.66 7 -3.32 7 -4 7 C-4.33 5.68 -4.66 4.36 -5 3 C-4.34 3 -3.68 3 -3 3 C-2.67 2.34 -2.34 1.68 -2 1 C-1.67 1.33 -1.34 1.66 -1 2 C-0.67 1.34 -0.34 0.68 0 0 Z " fill="#191A20" transform="translate(232,367)" />
<path d="M0 0 C1.99857239 0.24096263 3.9791709 0.62083418 5.953125 1.015625 C5.953125 2.335625 5.953125 3.655625 5.953125 5.015625 C4.963125 5.015625 3.973125 5.015625 2.953125 5.015625 C2.953125 4.355625 2.953125 3.695625 2.953125 3.015625 C0.973125 3.675625 -1.006875 4.335625 -3.046875 5.015625 C-3.046875 7.655625 -3.046875 10.295625 -3.046875 13.015625 C-2.386875 13.345625 -1.726875 13.675625 -1.046875 14.015625 C-2.984375 13.640625 -2.984375 13.640625 -5.046875 13.015625 C-6.59274376 9.92388748 -6.34047021 7.42132948 -6.046875 4.015625 C-4.36893291 1.21905485 -3.35154615 0.02558432 0 0 Z " fill="#E9E9ED" transform="translate(396.046875,366.984375)" />
<path d="M0 0 C0.66 0 1.32 0 2 0 C2.33 3.3 2.66 6.6 3 10 C0 12 0 12 -2.9375 12.4375 C-3.948125 12.293125 -4.95875 12.14875 -6 12 C-8.375 9.5 -8.375 9.5 -10 7 C-6.7 7 -3.4 7 0 7 C0 4.69 0 2.38 0 0 Z " fill="#CECFD2" transform="translate(684,371)" />
<path d="M0 0 C0.66 0 1.32 0 2 0 C2 4.62 2 9.24 2 14 C7.445 13.505 7.445 13.505 13 13 C13 13.66 13 14.32 13 15 C9.98509443 16.00496852 7.95818308 16.10335303 4.8125 16.0625 C3.224375 16.041875 1.63625 16.02125 0 16 C0 10.72 0 5.44 0 0 Z " fill="#919297" transform="translate(165,367)" />
<path d="M0 0 C2 1 2 1 3 2 C4.00016187 4.00032373 4.49396008 5.83125748 5 8 C6.98 8 8.96 8 11 8 C11 9.65 11 11.3 11 13 C7.42576047 13.3324874 5.36416656 13.18208328 2.125 11.5625 C0 9 0 9 -0.30859375 6.73046875 C-0.31216109 4.46520932 -0.21674534 2.25415153 0 0 Z " fill="#A8A8AD" transform="translate(182,370)" />
<path d="M0 0 C0.99 0 1.98 0 3 0 C3 5.28 3 10.56 3 16 C2.01 16 1.02 16 0 16 C-0.9360342 12.20732808 -0.98276252 9.06325435 -0.5625 5.1875 C-0.40974609 3.72376953 -0.40974609 3.72376953 -0.25390625 2.23046875 C-0.12822266 1.12638672 -0.12822266 1.12638672 0 0 Z " fill="#C0C0C4" transform="translate(704,367)" />
<path d="M0 0 C1.0625 1.8125 1.0625 1.8125 2 4 C1.67 4.99 1.34 5.98 1 7 C0.90880499 8.3374695 0.86934698 9.67895805 0.8671875 11.01953125 C0.86589844 11.79490234 0.86460937 12.57027344 0.86328125 13.36914062 C0.86714844 14.17544922 0.87101562 14.98175781 0.875 15.8125 C0.87113281 16.60720703 0.86726563 17.40191406 0.86328125 18.22070312 C0.87051384 22.59280168 1.12665507 26.69565714 2 31 C1.34 30.67 0.68 30.34 0 30 C-2.98715813 19.876853 -2.70532017 10.14495065 0 0 Z " fill="#CDCDD2" transform="translate(430,187)" />
<path d="M0 0 C-3.29027435 1.64513718 -6.95243162 0.9648907 -10.5625 0.875 C-17.39387017 0.76623313 -22.61749343 1.37861337 -29 4 C-29.66 3.67 -30.32 3.34 -31 3 C-21.00448508 -2.45440535 -10.88962826 -3.78769679 0 0 Z " fill="#8D8E92" transform="translate(475,169)" />
<path d="M0 0 C1.5778125 0.3403125 1.5778125 0.3403125 3.1875 0.6875 C3.5175 2.0075 3.8475 3.3275 4.1875 4.6875 C3.1975 4.6875 2.2075 4.6875 1.1875 4.6875 C1.1875 4.0275 1.1875 3.3675 1.1875 2.6875 C-2.89214281 3.98905006 -2.89214281 3.98905006 -6.8125 5.6875 C-7.47022428 8.71684491 -7.47022428 8.71684491 -7.8125 11.6875 C-8.1425 11.6875 -8.4725 11.6875 -8.8125 11.6875 C-8.8125 8.7175 -8.8125 5.7475 -8.8125 2.6875 C-5.5287062 0.19977742 -4.20051417 -0.34430444 0 0 Z " fill="#C4C5C9" transform="translate(448.8125,367.3125)" />
<path d="M0 0 C2.97 0 5.94 0 9 0 C9.33 1.98 9.66 3.96 10 6 C9.34 6 8.68 6 8 6 C7.67 5.01 7.34 4.02 7 3 C5.35 2.67 3.7 2.34 2 2 C2 3.98 2 5.96 2 8 C2.99 8.33 3.98 8.66 5 9 C3.68 9 2.36 9 1 9 C1 10.65 1 12.3 1 14 C0.67 14 0.34 14 0 14 C0 9.38 0 4.76 0 0 Z " fill="#E5E4E9" transform="translate(558,368)" />
<path d="M0 0 C0.80050781 0.12761719 1.60101563 0.25523437 2.42578125 0.38671875 C3.23402344 0.50660156 4.04226562 0.62648438 4.875 0.75 C5.48988281 0.85699219 6.10476562 0.96398437 6.73828125 1.07421875 C6.73828125 2.39421875 6.73828125 3.71421875 6.73828125 5.07421875 C5.41828125 5.07421875 4.09828125 5.07421875 2.73828125 5.07421875 C2.73828125 4.41421875 2.73828125 3.75421875 2.73828125 3.07421875 C1.08828125 3.07421875 -0.56171875 3.07421875 -2.26171875 3.07421875 C-2.26171875 3.73421875 -2.26171875 4.39421875 -2.26171875 5.07421875 C-2.92171875 5.07421875 -3.58171875 5.07421875 -4.26171875 5.07421875 C-4.92171875 6.39421875 -5.58171875 7.71421875 -6.26171875 9.07421875 C-5.65516137 3.61520236 -5.65516137 3.61520236 -4.01171875 1.35546875 C-2.26171875 0.07421875 -2.26171875 0.07421875 0 0 Z " fill="#CACACE" transform="translate(90.26171875,366.92578125)" />
<path d="M0 0 C0.99 0 1.98 0 3 0 C3.33 1.65 3.66 3.3 4 5 C5.32 4.67 6.64 4.34 8 4 C8 4.66 8 5.32 8 6 C7.34 6 6.68 6 6 6 C6 6.99 6 7.98 6 9 C7.65 9 9.3 9 11 9 C11 9.33 11 9.66 11 10 C3.57142857 10.28571429 3.57142857 10.28571429 0 8 C0 5.36 0 2.72 0 0 Z " fill="#305746" transform="translate(497,364)" />
<path d="M0 0 C9.57 0 19.14 0 29 0 C23.90996116 3.39335923 18.02700037 3.72183075 12 4 C7.85307684 3.37277223 3.96675451 2.35131198 0 1 C0 0.67 0 0.34 0 0 Z " fill="#00010A" transform="translate(448,235)" />
<path d="M0 0 C0.78117187 0.47566406 0.78117187 0.47566406 1.578125 0.9609375 C4.67408709 2.28920511 7.39404121 2.42364247 10.75 2.625 C12.50570313 2.73714844 12.50570313 2.73714844 14.296875 2.8515625 C15.18890625 2.90054688 16.0809375 2.94953125 17 3 C17 3.99 17 4.98 17 6 C13.04 6 9.08 6 5 6 C5 5.34 5 4.68 5 4 C3.35 3.67 1.7 3.34 0 3 C0 2.01 0 1.02 0 0 Z " fill="#292A2F" transform="translate(451,218)" />
<path d="M0 0 C0.99 0 1.98 0 3 0 C3 4.95 3 9.9 3 15 C2.01 15 1.02 15 0 15 C0 10.05 0 5.1 0 0 Z " fill="#D6D5DA" transform="translate(249,368)" />
<path d="M0 0 C0.66 0 1.32 0 2 0 C1.67 1.65 1.34 3.3 1 5 C2.65 5 4.3 5 6 5 C6.33 4.34 6.66 3.68 7 3 C7.33 4.32 7.66 5.64 8 7 C5.36 7.33 2.72 7.66 0 8 C-0.33 8.66 -0.66 9.32 -1 10 C-1.66 10 -2.32 10 -3 10 C-2.67 7.36 -2.34 4.72 -2 2 C-1.34 2 -0.68 2 0 2 C0 1.34 0 0.68 0 0 Z " fill="#D8D8DD" transform="translate(221,372)" />
<path d="M0 0 C0.99 0.33 1.98 0.66 3 1 C3 1.99 3 2.98 3 4 C2.34 4 1.68 4 1 4 C1 4.66 1 5.32 1 6 C-1.64 6.33 -4.28 6.66 -7 7 C-7 7.66 -7 8.32 -7 9 C-12.94 9 -18.88 9 -25 9 C-25 8.67 -25 8.34 -25 8 C-23.9378125 7.96261719 -22.875625 7.92523438 -21.78125 7.88671875 C-14.33564535 7.56211713 -7.82943725 7.27243868 -1 4 C-0.67 2.68 -0.34 1.36 0 0 Z " fill="#B9BABD" transform="translate(395,227)" />
<path d="M0 0 C4.29 0 8.58 0 13 0 C13 0.33 13 0.66 13 1 C9.04 1 5.08 1 1 1 C1 2.65 1 4.3 1 6 C1.66 6 2.32 6 3 6 C3 9.3 3 12.6 3 16 C2.67 15.34 2.34 14.68 2 14 C1.34 14 0.68 14 0 14 C0 9.38 0 4.76 0 0 Z " fill="#1D1E25" transform="translate(321,366)" />
<path d="M0 0 C0.99 0 1.98 0 3 0 C2.67 1.32 2.34 2.64 2 4 C1.01 4.33 0.02 4.66 -1 5 C-2.21869929 7.50447516 -2.21869929 7.50447516 -3 10 C-4.32 10 -5.64 10 -7 10 C-6.58493392 7.67158052 -6.14562476 6.190097 -4.6953125 4.296875 C-4.17710937 3.78640625 -3.65890625 3.2759375 -3.125 2.75 C-2.61195313 2.22921875 -2.09890625 1.7084375 -1.5703125 1.171875 C-0.79300781 0.59179688 -0.79300781 0.59179688 0 0 Z " fill="#4937A4" transform="translate(389,325)" />
<path d="M0 0 C0.66 0 1.32 0 2 0 C2 4.95 2 9.9 2 15 C1.34 15 0.68 15 0 15 C-0.33 13.68 -0.66 12.36 -1 11 C-1.99 11.495 -1.99 11.495 -3 12 C-3 9.69 -3 7.38 -3 5 C-2.01 5.495 -2.01 5.495 -1 6 C-0.67 4.02 -0.34 2.04 0 0 Z " fill="#3D3D46" transform="translate(118,367)" />
<path d="M0 0 C1.65 0.33 3.3 0.66 5 1 C5.625 3.8125 5.625 3.8125 6 7 C5.01 8.485 5.01 8.485 4 10 C2.68 10 1.36 10 0 10 C-0.125 7.6875 -0.125 7.6875 0 5 C0.66 4.01 1.32 3.02 2 2 C1.01 2.33 0.02 2.66 -1 3 C-0.67 2.01 -0.34 1.02 0 0 Z " fill="#94959A" transform="translate(640,367)" />
<path d="M0 0 C0.66 0 1.32 0 2 0 C2 3.96 2 7.92 2 12 C4.31 12 6.62 12 9 12 C9 12.66 9 13.32 9 14 C6.03 14 3.06 14 0 14 C0 9.38 0 4.76 0 0 Z " fill="#DFE0E5" transform="translate(354,368)" />
<path d="M0 0 C3.3 0 6.6 0 10 0 C10 0.66 10 1.32 10 2 C8.68 2 7.36 2 6 2 C6 5.63 6 9.26 6 13 C5.34 13 4.68 13 4 13 C4 9.37 4 5.74 4 2 C2.68 2 1.36 2 0 2 C0 1.34 0 0.68 0 0 Z " fill="#EBECEF" transform="translate(323,368)" />
<path d="M0 0 C1.98 0.66 3.96 1.32 6 2 C6 6.29 6 10.58 6 15 C5.67 15 5.34 15 5 15 C4.67 11.37 4.34 7.74 4 4 C4 7.96 4 11.92 4 16 C1 12 1 12 0.77734375 9.96484375 C0.83019531 9.29582031 0.88304687 8.62679688 0.9375 7.9375 C1.37360515 3.94525226 1.37360515 3.94525226 -1 1 C-0.67 0.67 -0.34 0.34 0 0 Z " fill="#202128" transform="translate(195,367)" />
<path d="M0 0 C0.99 0 1.98 0 3 0 C3 1.32 3 2.64 3 4 C3.99 4.33 4.98 4.66 6 5 C6 5.66 6 6.32 6 7 C5.01 7 4.02 7 3 7 C2.67 8.65 2.34 10.3 2 12 C1.34 11.67 0.68 11.34 0 11 C0 7.37 0 3.74 0 0 Z " fill="#03050F" transform="translate(401,300)" />
<path d="M0 0 C2.3125 0.1875 2.3125 0.1875 5 1 C7.15543411 3.84825221 8.35089967 6.4948582 9 10 C5.09061496 8.69687165 2.58220925 7.25167091 0 4 C0 2.68 0 1.36 0 0 Z " fill="#5344AB" transform="translate(405,325)" />
<path d="M0 0 C3.82352106 1.5577308 6.29205593 3.91595258 9 7 C9 7.99 9 8.98 9 10 C5.87510383 9.65278931 4.71990621 8.76446659 2.25 6.6875 C1.5075 5.800625 0.765 4.91375 0 4 C0 2.68 0 1.36 0 0 Z " fill="#4D39A6" transform="translate(382,302)" />
<path d="M0 0 C2.64 0 5.28 0 8 0 C8.66 1.65 9.32 3.3 10 5 C9.01 5.33 8.02 5.66 7 6 C7 5.34 7 4.68 7 4 C4.69 4 2.38 4 0 4 C0 2.68 0 1.36 0 0 Z " fill="#393A41" transform="translate(460,370)" />
<path d="M0 0 C1.32 0.66 2.64 1.32 4 2 C3.67 4.31 3.34 6.62 3 9 C2.34 8.34 1.68 7.68 1 7 C0.67 7.66 0.34 8.32 0 9 C-1.32 9 -2.64 9 -4 9 C-4 8.34 -4 7.68 -4 7 C-3.34 7 -2.68 7 -2 7 C-2.04125 6.21625 -2.0825 5.4325 -2.125 4.625 C-2.08375 3.75875 -2.0425 2.8925 -2 2 C-1.34 1.34 -0.68 0.68 0 0 Z " fill="#1F1F24" transform="translate(388,212)" />
<path d="M0 0 C0.66 0.99 1.32 1.98 2 3 C2.99 3.33 3.98 3.66 5 4 C4.67 5.65 4.34 7.3 4 9 C2.68 9 1.36 9 0 9 C0 9.66 0 10.32 0 11 C-0.99 11 -1.98 11 -3 11 C-3 10.01 -3 9.02 -3 8 C-1.02 8 0.96 8 3 8 C2.67 7.34 2.34 6.68 2 6 C-0.52733235 5.34444881 -0.52733235 5.34444881 -3 5 C-3 4.01 -3 3.02 -3 2 C-2.01 1.34 -1.02 0.68 0 0 Z " fill="#010909" transform="translate(506,368)" />
<path d="M0 0 C1.32 0.33 2.64 0.66 4 1 C4 2.32 4 3.64 4 5 C3.34 5 2.68 5 2 5 C2 8.3 2 11.6 2 15 C1.34 15 0.68 15 0 15 C0 10.05 0 5.1 0 0 Z " fill="#C5C5CC" transform="translate(423,367)" />
<path d="M0 0 C0.33 0 0.66 0 1 0 C1 3.3 1 6.6 1 10 C0.01 10 -0.98 10 -2 10 C-2.66 8.02 -3.32 6.04 -4 4 C-4 7.63 -4 11.26 -4 15 C-4.33 15 -4.66 15 -5 15 C-5 11.04 -5 7.08 -5 3 C-3.35 3 -1.7 3 0 3 C0 2.01 0 1.02 0 0 Z " fill="#20232E" transform="translate(585,367)" />
<path d="M0 0 C0.66 1.32 1.32 2.64 2 4 C0.78521149 5.18163051 -0.44752408 6.34482835 -1.6875 7.5 C-2.37199219 8.1496875 -3.05648438 8.799375 -3.76171875 9.46875 C-6 11 -6 11 -8.76953125 11.21875 C-9.50558594 11.1465625 -10.24164063 11.074375 -11 11 C-11 11.66 -11 12.32 -11 13 C-11.99 12.67 -12.98 12.34 -14 12 C-14 11.34 -14 10.68 -14 10 C-11.36 9.67 -8.72 9.34 -6 9 C-6 8.34 -6 7.68 -6 7 C-4.3545622 5.31237149 -2.68711423 3.6459651 -1 2 C-0.67 1.34 -0.34 0.68 0 0 Z " fill="#22232C" transform="translate(402,224)" />
<path d="M0 0 C0.33 0 0.66 0 1 0 C1 2.64 1 5.28 1 8 C0.34 8 -0.32 8 -1 8 C-1 7.34 -1 6.68 -1 6 C-3.31 6 -5.62 6 -8 6 C-8 4.68 -8 3.36 -8 2 C-6.00045254 1.95745644 -3.99958364 1.95919217 -2 2 C-1.67 2.33 -1.34 2.66 -1 3 C-0.67 2.01 -0.34 1.02 0 0 Z " fill="#66666D" transform="translate(177,368)" />
<path d="M0 0 C1.65 0.33 3.3 0.66 5 1 C5.625 4.375 5.625 4.375 6 8 C5.34 8.66 4.68 9.32 4 10 C2.68 10 1.36 10 0 10 C0.38733012 7.13375709 0.64820367 5.40808374 2.5625 3.1875 C3.036875 2.795625 3.51125 2.40375 4 2 C2.68 2 1.36 2 0 2 C-0.33 2.99 -0.66 3.98 -1 5 C-1.33 4.34 -1.66 3.68 -2 3 C-1.34 2.01 -0.68 1.02 0 0 Z " fill="#89898E" transform="translate(544,367)" />
<path d="M0 0 C2.475 0.99 2.475 0.99 5 2 C3.84414715 5.91211733 2.64465038 8.8745041 0 12 C-0.76173392 7.6835078 -1.16063604 4.25566547 0 0 Z " fill="#201F28" transform="translate(537,371)" />
<path d="M0 0 C0.66 0 1.32 0 2 0 C2 1.32 2 2.64 2 4 C-0.25870937 6.69790286 -1.95735428 8.63366502 -5.3125 9.8125 C-5.869375 9.874375 -6.42625 9.93625 -7 10 C-6.58565845 7.64694923 -6.15060786 6.19144323 -4.66015625 4.296875 C-4.13292969 3.78640625 -3.60570312 3.2759375 -3.0625 2.75 C-2.53785156 2.22921875 -2.01320313 1.7084375 -1.47265625 1.171875 C-0.98667969 0.78515625 -0.50070312 0.3984375 0 0 Z " fill="#5443AB" transform="translate(412,302)" />
<path d="M0 0 C2.97 0 5.94 0 9 0 C8.67 1.32 8.34 2.64 8 4 C1.375 5.125 1.375 5.125 -2 4 C-1.33333333 2.66666667 -0.66666667 1.33333333 0 0 Z " fill="#ADADB3" transform="translate(600,378)" />
<path d="M0 0 C1.32 0 2.64 0 4 0 C4 0.66 4 1.32 4 2 C3.34 2 2.68 2 2 2 C2 3.98 2 5.96 2 8 C3.98 8 5.96 8 8 8 C8 8.33 8 8.66 8 9 C6.02 9 4.04 9 2 9 C2 10.32 2 11.64 2 13 C1.34 13 0.68 13 0 13 C0 8.71 0 4.42 0 0 Z " fill="#F3F4F5" transform="translate(622,368)" />
<path d="M0 0 C1 2 1 2 1.4375 4.1875 C0.85310964 7.94429515 -0.92755263 9.74487459 -3.39453125 12.546875 C-5 14 -5 14 -8 15 C-8 14.34 -8 13.68 -8 13 C-7.34 13 -6.68 13 -6 13 C-5.896875 12.278125 -5.79375 11.55625 -5.6875 10.8125 C-4.66272672 6.62024566 -2.37287483 3.55931224 0 0 Z " fill="#3C7A57" transform="translate(251,225)" />
<path d="M0 0 C1.65 0 3.3 0 5 0 C5.05422947 1.4370809 5.09289723 2.87475462 5.125 4.3125 C5.14820312 5.11300781 5.17140625 5.91351563 5.1953125 6.73828125 C5 9 5 9 3 12 C2.01 11.67 1.02 11.34 0 11 C0.66 10.67 1.32 10.34 2 10 C1.7834375 8.081875 1.7834375 8.081875 1.5625 6.125 C1.48128906 5.40570313 1.40007812 4.68640625 1.31640625 3.9453125 C1.08707039 1.92595684 1.08707039 1.92595684 0 0 Z " fill="#C1C1C5" transform="translate(110,370)" />
<path d="M0 0 C0.99 0 1.98 0 3 0 C4.27807583 2.55615166 3.99968789 4.10354243 3.75 6.9375 C3.68296875 7.81277344 3.6159375 8.68804687 3.546875 9.58984375 C3 12 3 12 0 15 C0 10.05 0 5.1 0 0 Z " fill="#090B10" transform="translate(386,368)" />
<path d="M0 0 C0.33 0 0.66 0 1 0 C1 4.95 1 9.9 1 15 C0.34 15 -0.32 15 -1 15 C-2.89865603 12.02819057 -4.35455571 9.48539917 -5 6 C-3.02 6.99 -3.02 6.99 -1 8 C-0.67 5.36 -0.34 2.72 0 0 Z " fill="#B5B5BA" transform="translate(703,367)" />
<path d="M0 0 C0.66 0 1.32 0 2 0 C2 4.62 2 9.24 2 14 C1.01 13.67 0.02 13.34 -1 13 C-1.33 11.68 -1.66 10.36 -2 9 C-1.34 9 -0.68 9 0 9 C0 6.03 0 3.06 0 0 Z " fill="#E7E7ED" transform="translate(433,368)" />
<path d="M0 0 C2.31 0 4.62 0 7 0 C7 1.32 7 2.64 7 4 C4.69 4.33 2.38 4.66 0 5 C0 3.35 0 1.7 0 0 Z " fill="#454449" transform="translate(204,370)" />
<path d="M0 0 C1.36592084 2.27305911 2.00319395 3.67847541 1.9765625 6.359375 C1.80253906 7.54273438 1.80253906 7.54273438 1.625 8.75 C1.51414063 9.54921875 1.40328125 10.3484375 1.2890625 11.171875 C1.19367188 11.77515625 1.09828125 12.3784375 1 13 C0.01 13 -0.98 13 -2 13 C-1.93489583 10.98177083 -1.86979167 8.96354167 -1.8046875 6.9453125 C-1.86914062 6.30335938 -1.93359375 5.66140625 -2 5 C-2.66 4.34 -3.32 3.68 -4 3 C-2.68 3 -1.36 3 0 3 C0 2.01 0 1.02 0 0 Z " fill="#161A29" transform="translate(245,367)" />
<path d="M0 0 C0.66 0 1.32 0 2 0 C2 0.99 2 1.98 2 3 C2.66 2.67 3.32 2.34 4 2 C3.67 3.32 3.34 4.64 3 6 C2.34 5.67 1.68 5.34 1 5 C0.67 6.65 0.34 8.3 0 10 C-0.66 10 -1.32 10 -2 10 C-2.33 8.35 -2.66 6.7 -3 5 C-2.01 4.67 -1.02 4.34 0 4 C0 2.68 0 1.36 0 0 Z " fill="#03040A" transform="translate(215,371)" />
<path d="M0 0 C0.99 0.33 1.98 0.66 3 1 C2.67 2.65 2.34 4.3 2 6 C-0.97 5.505 -0.97 5.505 -4 5 C-3.67 3.68 -3.34 2.36 -3 1 C-2.01 0.67 -1.02 0.34 0 0 Z " fill="#0F1015" transform="translate(189,372)" />
<path d="M0 0 C-0.66 3.3 -1.32 6.6 -2 10 C-2.99 10 -3.98 10 -5 10 C-5.1875 6.6875 -5.1875 6.6875 -5 3 C-3.37600669 0.7116458 -2.82814211 0 0 0 Z " fill="#CECED3" transform="translate(679,368)" />
<path d="M0 0 C0.33 0 0.66 0 1 0 C1 5.28 1 10.56 1 16 C0.01 15.67 -0.98 15.34 -2 15 C-2.19392201 9.47322267 -1.7479503 5.24385089 0 0 Z " fill="#010008" transform="translate(405,367)" />
<path d="M0 0 C0.66 0 1.32 0 2 0 C1.49396008 2.16874252 1.00016187 3.99967627 0 6 C-2.64 6 -5.28 6 -8 6 C-8 5.01 -8 4.02 -8 3 C-5.36 3 -2.72 3 0 3 C0 2.01 0 1.02 0 0 Z " fill="#030308" transform="translate(285,373)" />
<path d="M0 0 C0.33 0.66 0.66 1.32 1 2 C2.98 2 4.96 2 7 2 C7.33 1.34 7.66 0.68 8 0 C8.33 0.99 8.66 1.98 9 3 C9.66 3 10.32 3 11 3 C11 4.65 11 6.3 11 8 C9.68 7.34 8.36 6.68 7 6 C7 5.01 7 4.02 7 3 C4.69 3 2.38 3 0 3 C0 2.01 0 1.02 0 0 Z " fill="#D5D6DA" transform="translate(151,375)" />
<path d="M0 0 C1.65 0.33 3.3 0.66 5 1 C5 3.97 5 6.94 5 10 C0.2 5.56923077 0.2 5.56923077 -0.8125 2.6875 C-0.874375 2.130625 -0.93625 1.57375 -1 1 C-0.67 0.67 -0.34 0.34 0 0 Z " fill="#13131C" transform="translate(647,371)" />
<path d="M0 0 C0.66 0.33 1.32 0.66 2 1 C0.4375 3.5 0.4375 3.5 -2 6 C-5.75 6.3125 -5.75 6.3125 -9 6 C-9 6.66 -9 7.32 -9 8 C-10.98 8 -12.96 8 -15 8 C-13.68 7.67 -12.36 7.34 -11 7 C-11 6.34 -11 5.68 -11 5 C-10.37351562 4.80664062 -9.74703125 4.61328125 -9.1015625 4.4140625 C-8.28429687 4.15367187 -7.46703125 3.89328125 -6.625 3.625 C-5.40683594 3.24214844 -5.40683594 3.24214844 -4.1640625 2.8515625 C-1.83540815 2.10145717 -1.83540815 2.10145717 0 0 Z " fill="#525257" transform="translate(578,227)" />
<path d="M0 0 C2.125 0.75 2.125 0.75 4 2 C4.33 2.99 4.66 3.98 5 5 C4.01 5 3.02 5 2 5 C1.34 4.34 0.68 3.68 0 3 C-0.33 4.65 -0.66 6.3 -1 8 C-1.66 8 -2.32 8 -3 8 C-3 5.69 -3 3.38 -3 1 C-2.01 0.67 -1.02 0.34 0 0 Z " fill="#396454" transform="translate(500,377)" />
<path d="M0 0 C0.66 0 1.32 0 2 0 C2.0825 0.94875 2.165 1.8975 2.25 2.875 C2.4975 3.90625 2.745 4.9375 3 6 C4.95163118 7.43637698 4.95163118 7.43637698 7 8 C5.35 8 3.7 8 2 8 C2 9.32 2 10.64 2 12 C1.34 12 0.68 12 0 12 C0 8.04 0 4.08 0 0 Z " fill="#F2F2F5" transform="translate(526,369)" />
<path d="M0 0 C7.75 -0.125 7.75 -0.125 10 1 C10 2.65 10 4.3 10 6 C9.34 5.34 8.68 4.68 8 4 C6.03309626 3.32707499 6.03309626 3.32707499 3.875 2.875 C2.59625 2.58625 1.3175 2.2975 0 2 C0 1.34 0 0.68 0 0 Z " fill="#CFCFD3" transform="translate(167,367)" />
<path d="M0 0 C0.66 0 1.32 0 2 0 C2 0.66 2 1.32 2 2 C1.34 2 0.68 2 0 2 C0 1.34 0 0.68 0 0 Z M-1 4 C-1.33 4.33 -1.66 4.66 -2 5 C-1.34 5.66 -0.68 6.32 0 7 C-1.98 7 -3.96 7 -6 7 C-6.33 8.32 -6.66 9.64 -7 11 C-7.33 8.69 -7.66 6.38 -8 4 C-4.98968256 3.06576355 -4.13349732 2.95550089 -1 4 Z " fill="#010210" transform="translate(412,309)" />
<path d="M0 0 C2.475 0.495 2.475 0.495 5 1 C5.33 2.32 5.66 3.64 6 5 C4.68 5.33 3.36 5.66 2 6 C1.34 5.34 0.68 4.68 0 4 C0 2.68 0 1.36 0 0 Z " fill="#07070B" transform="translate(679,373)" />
<path d="M0 0 C1.32 0 2.64 0 4 0 C3.61266988 2.86624291 3.35179633 4.59191626 1.4375 6.8125 C0.963125 7.204375 0.48875 7.59625 0 8 C-0.99 7.67 -1.98 7.34 -3 7 C-1.125 2.25 -1.125 2.25 0 0 Z " fill="#D6D6D9" transform="translate(544,369)" />
<path d="M0 0 C0.99 0.33 1.98 0.66 3 1 C2.34 1 1.68 1 1 1 C1 3.31 1 5.62 1 8 C0.34 7.34 -0.32 6.68 -1 6 C-1.33 7.65 -1.66 9.3 -2 11 C-2.33 11 -2.66 11 -3 11 C-4.22080679 5.62845011 -4.22080679 5.62845011 -3.1875 2.6875 C-2 1 -2 1 0 0 Z " fill="#28292E" transform="translate(181,369)" />
<path d="M0 0 C2.10409639 -0.02701408 4.20829178 -0.04640223 6.3125 -0.0625 C7.48425781 -0.07410156 8.65601563 -0.08570313 9.86328125 -0.09765625 C13 0 13 0 16 1 C16 2.65 16 4.3 16 6 C15.01 6 14.02 6 13 6 C12.67 4.68 12.34 3.36 12 2 C8.04 1.67 4.08 1.34 0 1 C0 0.67 0 0.34 0 0 Z " fill="#000108" transform="translate(233,365)" />
<path d="M0 0 C0.66 0 1.32 0 2 0 C2 0.66 2 1.32 2 2 C2.99 2 3.98 2 5 2 C5 2.99 5 3.98 5 5 C4.34 5 3.68 5 3 5 C2.67 5.99 2.34 6.98 2 8 C1.01 8.495 1.01 8.495 0 9 C0 6.03 0 3.06 0 0 Z " fill="#0F1121" transform="translate(254,372)" />
<path d="M0 0 C0.99 0 1.98 0 3 0 C3 1.65 3 3.3 3 5 C2.34 5 1.68 5 1 5 C0.34 6.65 -0.32 8.3 -1 10 C-1.625 8.375 -1.625 8.375 -2 6 C-1.0625 2.75 -1.0625 2.75 0 0 Z " fill="#C4C5CB" transform="translate(267,367)" />
<path d="M0 0 C0.66 0 1.32 0 2 0 C3.32 1.98 4.64 3.96 6 6 C4.02 6.66 2.04 7.32 0 8 C0 5.36 0 2.72 0 0 Z " fill="#232429" transform="translate(696,374)" />
<path d="M0 0 C2.64 0 5.28 0 8 0 C8 1.98 8 3.96 8 6 C7.67 5.01 7.34 4.02 7 3 C4.69 3 2.38 3 0 3 C0 2.01 0 1.02 0 0 Z " fill="#2C2B30" transform="translate(277,370)" />
<path d="M0 0 C0.99 0.33 1.98 0.66 3 1 C3.33 2.98 3.66 4.96 4 7 C3.67 6.34 3.34 5.68 3 5 C2.34 5 1.68 5 1 5 C1 8.63 1 12.26 1 16 C0.67 16 0.34 16 0 16 C0 10.72 0 5.44 0 0 Z " fill="#00010B" transform="translate(253,367)" />
<path d="M0 0 C1.98 0 3.96 0 6 0 C6.33 1.65 6.66 3.3 7 5 C6.34 5.66 5.68 6.32 5 7 C3.68 6.67 2.36 6.34 1 6 C1.99 5.67 2.98 5.34 4 5 C4 3.68 4 2.36 4 1 C2.02 1.99 2.02 1.99 0 3 C0 2.01 0 1.02 0 0 Z " fill="#100C3B" transform="translate(410,301)" />
<path d="M0 0 C0.99 0 1.98 0 3 0 C4.4606285 2.64738916 5 3.89448334 5 7 C5.66 7 6.32 7 7 7 C8.0625 9.3125 8.0625 9.3125 9 12 C8.67 12.99 8.34 13.98 8 15 C7.608125 14.195625 7.21625 13.39125 6.8125 12.5625 C4.64993858 8.31194824 2.33688943 4.1565227 0 0 Z " fill="#4A30A7" transform="translate(92,187)" />
<path d="M0 0 C0.66 0 1.32 0 2 0 C2.268125 1.0725 2.53625 2.145 2.8125 3.25 C3.86227827 6.56508928 4.74612328 8.43877646 7 11 C4.625 10.6875 4.625 10.6875 2 10 C0 7 0 7 -0.125 3.3125 C-0.08375 2.219375 -0.0425 1.12625 0 0 Z " fill="#3B3C42" transform="translate(368,183)" />
<path d="M0 0 C1.98 0 3.96 0 6 0 C5.67 0.99 5.34 1.98 5 3 C1.67908998 4.70533217 -0.18492784 5 -4 5 C-4 4.34 -4 3.68 -4 3 C-2.68 3 -1.36 3 0 3 C0 2.01 0 1.02 0 0 Z " fill="#05070F" transform="translate(638,380)" />
<path d="M0 0 C0.33 0 0.66 0 1 0 C1 1.65 1 3.3 1 5 C-1.64 5 -4.28 5 -7 5 C-7 4.01 -7 3.02 -7 2 C-4.69 2 -2.38 2 0 2 C0 1.34 0 0.68 0 0 Z " fill="#080A11" transform="translate(349,374)" />
<path d="M0 0 C1.65 0 3.3 0 5 0 C5.33 1.32 5.66 2.64 6 4 C4.02 4.33 2.04 4.66 0 5 C0 3.35 0 1.7 0 0 Z " fill="#26272A" transform="translate(560,370)" />
<path d="M0 0 C0.33 0.66 0.66 1.32 1 2 C1.99 2 2.98 2 4 2 C4.33 3.98 4.66 5.96 5 8 C3.68 8 2.36 8 1 8 C0.26919734 6.02253397 -0.39421747 4.01927511 -1 2 C-0.67 1.34 -0.34 0.68 0 0 Z " fill="#77777D" transform="translate(152,369)" />
<path d="M0 0 C4.29 0 8.58 0 13 0 C12.67 0.66 12.34 1.32 12 2 C6.140625 3.07421875 6.140625 3.07421875 4 3 C2.68 2.01 1.36 1.02 0 0 Z " fill="#00010A" transform="translate(546,236)" />
<path d="M0 0 C0.99 0.66 1.98 1.32 3 2 C2.46930939 5.82097239 1.50298434 8.06171403 -1 11 C-1.12375 10.360625 -1.2475 9.72125 -1.375 9.0625 C-1.58125 8.381875 -1.7875 7.70125 -2 7 C-2.66 6.67 -3.32 6.34 -4 6 C-2.35 6 -0.7 6 1 6 C0.67 4.02 0.34 2.04 0 0 Z " fill="#A1A1A8" transform="translate(567,368)" />
<path d="M0 0 C0.33 0 0.66 0 1 0 C1 3.96 1 7.92 1 12 C0.01 11.67 -0.98 11.34 -2 11 C-1.85892253 9.54119891 -1.71197585 8.08296449 -1.5625 6.625 C-1.48128906 5.81289063 -1.40007812 5.00078125 -1.31640625 4.1640625 C-1 2 -1 2 0 0 Z " fill="#010009" transform="translate(456,371)" />
<path d="M0 0 C0.99 0 1.98 0 3 0 C3.33 1.32 3.66 2.64 4 4 C3.01 4.495 3.01 4.495 2 5 C1.67 7.97 1.34 10.94 1 14 C0.67 14 0.34 14 0 14 C0 9.38 0 4.76 0 0 Z " fill="#EEEFF3" transform="translate(694,368)" />
<path d="M0 0 C1.66617115 -0.04063832 3.33388095 -0.042721 5 0 C3.68 0.33 2.36 0.66 1 1 C1 3.97 1 6.94 1 10 C0.01 9.34 -0.98 8.68 -2 8 C-1.70241581 5.6618385 -1.36760731 3.32817964 -1 1 C-0.67 0.67 -0.34 0.34 0 0 Z " fill="#121219" transform="translate(702,366)" />
<path d="M0 0 C0.99 0 1.98 0 3 0 C1.25 5.75 1.25 5.75 -1 8 C-1.99 7.67 -2.98 7.34 -4 7 C-3.67 6.34 -3.34 5.68 -3 5 C-2.34 5 -1.68 5 -1 5 C-0.67 3.35 -0.34 1.7 0 0 Z " fill="#081C18" transform="translate(289,225)" />
<path d="M0 0 C0 0.66 0 1.32 0 2 C-0.99 2 -1.98 2 -3 2 C-3.2475 2.639375 -3.495 3.27875 -3.75 3.9375 C-4.1625 4.618125 -4.575 5.29875 -5 6 C-7 6.8125 -7 6.8125 -9 7 C-9.66 6.67 -10.32 6.34 -11 6 C-9.73608512 4.99126984 -8.46359117 3.99328178 -7.1875 3 C-6.47980469 2.443125 -5.77210938 1.88625 -5.04296875 1.3125 C-3 0 -3 0 0 0 Z " fill="#BDBEC2" transform="translate(574,216)" />
<path d="M0 0 C4.29 0 8.58 0 13 0 C11.515 1.485 11.515 1.485 10 3 C6.5 3.375 6.5 3.375 3 3 C2.01 2.01 1.02 1.02 0 0 Z " fill="#03040E" transform="translate(597,382)" />
<path d="M0 0 C0.66 0.33 1.32 0.66 2 1 C2.125 3.875 2.125 3.875 2 7 C1.34 7.66 0.68 8.32 0 9 C-2.625 9.125 -2.625 9.125 -5 9 C-4.01 8.67 -3.02 8.34 -2 8 C-1.34 5.36 -0.68 2.72 0 0 Z " fill="#E8E9EC" transform="translate(195,372)" />
<path d="M0 0 C1.51928038 -0.07179964 3.04167482 -0.08392007 4.5625 -0.0625 C5.38878906 -0.05347656 6.21507812 -0.04445313 7.06640625 -0.03515625 C7.70449219 -0.02355469 8.34257813 -0.01195312 9 0 C9 0.33 9 0.66 9 1 C6.69 1 4.38 1 2 1 C2 2.32 2 3.64 2 5 C0.68 5 -0.64 5 -2 5 C-1.125 1.125 -1.125 1.125 0 0 Z " fill="#B8B9BF" transform="translate(540,378)" />
<path d="M0 0 C2.64 0 5.28 0 8 0 C8 0.99 8 1.98 8 3 C5.36 3 2.72 3 0 3 C0 2.01 0 1.02 0 0 Z " fill="#000105" transform="translate(411,376)" />
<path d="M0 0 C1.65 0 3.3 0 5 0 C4.67 1.65 4.34 3.3 4 5 C2.68 5 1.36 5 0 5 C0 3.35 0 1.7 0 0 Z " fill="#222227" transform="translate(625,370)" />
<path d="M0 0 C1.65 0 3.3 0 5 0 C5.33 1.32 5.66 2.64 6 4 C4.68 3.34 3.36 2.68 2 2 C1.67 3.65 1.34 5.3 1 7 C-0.0625 5.1875 -0.0625 5.1875 -1 3 C-0.67 2.01 -0.34 1.02 0 0 Z " fill="#0B0831" transform="translate(380,300)" />
<path d="M0 0 C0.66 0.33 1.32 0.66 2 1 C1.01 1.33 0.02 1.66 -1 2 C-1 2.66 -1 3.32 -1 4 C-1.66 4 -2.32 4 -3 4 C-3.33 4.99 -3.66 5.98 -4 7 C-5.32 6.34 -6.64 5.68 -8 5 C-5.31158141 2.74754119 -3.35358125 1.11786042 0 0 Z " fill="#BCBDC2" transform="translate(540,170)" />
<path d="M0 0 C0 0.66 0 1.32 0 2 C-4.97361654 3.75734451 -9.7415998 5.32584613 -15 6 C-11.93648657 2.93648657 -8.43587125 1.35896781 -4.25 0.3125 C-2 0 -2 0 0 0 Z " fill="#05050D" transform="translate(457,166)" />
<path d="M0 0 C-0.33 0.99 -0.66 1.98 -1 3 C-2.45792884 3.05399736 -3.91642712 3.09279177 -5.375 3.125 C-6.18710938 3.14820313 -6.99921875 3.17140625 -7.8359375 3.1953125 C-8.90714844 3.09863281 -8.90714844 3.09863281 -10 3 C-10.66 2.34 -11.32 1.68 -12 1 C-10.37512529 0.83211627 -8.75009558 0.66573213 -7.125 0.5 C-6.22007812 0.4071875 -5.31515625 0.314375 -4.3828125 0.21875 C-2 0 -2 0 0 0 Z " fill="#030309" transform="translate(177,382)" />
<path d="M0 0 C2 3 2 3 2 6 C1.01 5.67 0.02 5.34 -1 5 C-1 4.34 -1 3.68 -1 3 C-1.66 3 -2.32 3 -3 3 C-3 5.64 -3 8.28 -3 11 C-3.33 11 -3.66 11 -4 11 C-4 8.03 -4 5.06 -4 2 C-2.68 2 -1.36 2 0 2 C0 1.34 0 0.68 0 0 Z " fill="#BFBFC5" transform="translate(311,371)" />
<path d="M0 0 C0.33 1.32 0.66 2.64 1 4 C3.64 3.67 6.28 3.34 9 3 C9.33 3.66 9.66 4.32 10 5 C8.52168779 5.19412181 7.04230684 5.38012131 5.5625 5.5625 C4.73878906 5.66691406 3.91507812 5.77132813 3.06640625 5.87890625 C2.38449219 5.91886719 1.70257813 5.95882813 1 6 C0.67 5.67 0.34 5.34 0 5 C-0.04063832 3.33382885 -0.042721 1.66611905 0 0 Z " fill="#000109" transform="translate(444,373)" />
<path d="M0 0 C1.65 0 3.3 0 5 0 C5 1.32 5 2.64 5 4 C3.35 4.33 1.7 4.66 0 5 C0 3.35 0 1.7 0 0 Z " fill="#2A292E" transform="translate(529,370)" />
<path d="M0 0 C3.6875 0.3125 3.6875 0.3125 7 1 C7.33 1.66 7.66 2.32 8 3 C4.37 3 0.74 3 -3 3 C-2.01 2.01 -1.02 1.02 0 0 Z " fill="#CFCFD3" transform="translate(105,367)" />
<path d="M0 0 C2.31 1.65 4.62 3.3 7 5 C6.67 5.99 6.34 6.98 6 8 C2.83884224 6.63016497 2.0072908 6.0109362 0 3 C0 2.01 0 1.02 0 0 Z " fill="#1E1F26" transform="translate(526,223)" />
<path d="M0 0 C2.56571425 1.62495236 3.88586472 2.78259946 5.3125 5.5 C6 8 6 8 5 11 C4.15841464 9.73461631 3.32700252 8.46246221 2.5 7.1875 C1.80390625 6.12595703 1.80390625 6.12595703 1.09375 5.04296875 C0 3 0 3 0 0 Z " fill="#020E0D" transform="translate(291,199)" />
<path d="M0 0 C1.78940972 -0.09908783 3.58285508 -0.12970379 5.375 -0.125 C6.84066406 -0.12886719 6.84066406 -0.12886719 8.3359375 -0.1328125 C11 0 11 0 14 1 C14 1.66 14 2.32 14 3 C11.87465341 2.85930804 9.74972471 2.71229079 7.625 2.5625 C6.44164062 2.48128906 5.25828125 2.40007812 4.0390625 2.31640625 C1 2 1 2 -1 1 C-0.67 0.67 -0.34 0.34 0 0 Z " fill="#010209" transform="translate(550,181)" />
<path d="M0 0 C1 3 1 3 0.5625 5.1875 C0.376875 5.785625 0.19125 6.38375 0 7 C-0.66 7 -1.32 7 -2 7 C-2 9.97 -2 12.94 -2 16 C-2.33 16 -2.66 16 -3 16 C-3.4726477 6.00437637 -3.4726477 6.00437637 -1.5 1.8125 C-1.005 1.214375 -0.51 0.61625 0 0 Z " fill="#01020A" transform="translate(355,177)" />
<path d="M0 0 C1.32678517 2.65357035 1.59532007 5.1973391 2.0625 8.125 C2.23910156 9.22070312 2.41570312 10.31640625 2.59765625 11.4453125 C2.73042969 12.28835937 2.86320312 13.13140625 3 14 C1 12 1 12 0.375 9.375 C0.189375 8.199375 0.189375 8.199375 0 7 C-0.66 7 -1.32 7 -2 7 C-1.70131344 4.99453311 -1.36628677 2.99422795 -1 1 C-0.67 0.67 -0.34 0.34 0 0 Z " fill="#140B46" transform="translate(117,156)" />
<path d="M0 0 C0 0.99 0 1.98 0 3 C-0.66 3 -1.32 3 -2 3 C-2 3.66 -2 4.32 -2 5 C-3.65 5 -5.3 5 -7 5 C-7.33 4.01 -7.66 3.02 -8 2 C-5.36 1.34 -2.72 0.68 0 0 Z " fill="#D6D7DA" transform="translate(112,378)" />
<path d="M0 0 C0.66 0 1.32 0 2 0 C2.33 3.3 2.66 6.6 3 10 C0.16032769 10 -2.23735711 9.59732819 -5 9 C-5 8.67 -5 8.34 -5 8 C-3.35 7.67 -1.7 7.34 0 7 C0 4.69 0 2.38 0 0 Z " fill="#95959A" transform="translate(684,371)" />
<path d="M0 0 C1.94268841 2.91403262 3.46395304 5.85808576 5 9 C3.68 8.67 2.36 8.34 1 8 C1 7.34 1 6.68 1 6 C0.34 6 -0.32 6 -1 6 C-1.042721 4.33388095 -1.04063832 2.66617115 -1 1 C-0.67 0.67 -0.34 0.34 0 0 Z " fill="#030408" transform="translate(180,374)" />
<path d="M0 0 C2.31 0 4.62 0 7 0 C6.67 1.32 6.34 2.64 6 4 C3.03 3.505 3.03 3.505 0 3 C0 2.01 0 1.02 0 0 Z " fill="#222225" transform="translate(411,370)" />
<path d="M0 0 C2.4375 -0.1875 2.4375 -0.1875 5 0 C5.66 0.66 6.32 1.32 7 2 C7.125 5.625 7.125 5.625 7 9 C6.34 8.67 5.68 8.34 5 8 C5 6.68 5 5.36 5 4 C4.38125 3.690625 3.7625 3.38125 3.125 3.0625 C1.75 2.375 0.375 1.6875 -1 1 C-0.67 0.67 -0.34 0.34 0 0 Z " fill="#414147" transform="translate(105,370)" />
<path d="M0 0 C0.66 0 1.32 0 2 0 C0.74194623 4.50802601 -0.90407165 7.4912812 -4 11 C-4.125 8.6875 -4.125 8.6875 -4 6 C-3.34 5.01 -2.68 4.02 -2 3 C-1.34 3 -0.68 3 0 3 C0 2.01 0 1.02 0 0 Z " fill="#3C7557" transform="translate(260,271)" />
<path d="M0 0 C0.99 0 1.98 0 3 0 C2.67 1.32 2.34 2.64 2 4 C1.34 4 0.68 4 0 4 C0 4.66 0 5.32 0 6 C-2.97 6 -5.94 6 -9 6 C-9 5.67 -9 5.34 -9 5 C-5.7 4.34 -2.4 3.68 1 3 C0.67 2.01 0.34 1.02 0 0 Z " fill="#413DBC" transform="translate(197,224)" />
<path d="M0 0 C0.58394531 0.19078125 1.16789063 0.3815625 1.76953125 0.578125 C0.52217558 1.2290509 -0.72848707 1.87364169 -1.98046875 2.515625 C-2.6765625 2.87527344 -3.37265625 3.23492187 -4.08984375 3.60546875 C-6.13271308 4.53370682 -8.04162251 5.10979078 -10.23046875 5.578125 C-9.90046875 4.588125 -9.57046875 3.598125 -9.23046875 2.578125 C-3.20352512 -0.60592069 -3.20352512 -0.60592069 0 0 Z " fill="#04060F" transform="translate(542.23046875,168.421875)" />
<path d="M0 0 C0.33 1.32 0.66 2.64 1 4 C1.66 3.67 2.32 3.34 3 3 C2.67 4.65 2.34 6.3 2 8 C0.35 8 -1.3 8 -3 8 C-1.125 1.125 -1.125 1.125 0 0 Z " fill="#A6A7AB" transform="translate(265,371)" />
<path d="M0 0 C2.64 0.33 5.28 0.66 8 1 C8 2.32 8 3.64 8 5 C7.01 5 6.02 5 5 5 C5 4.34 5 3.68 5 3 C4.01 2.67 3.02 2.34 2 2 C1.34 1.34 0.68 0.68 0 0 Z " fill="#B6B7BB" transform="translate(394,367)" />
<path d="M0 0 C0.33 0.66 0.66 1.32 1 2 C0.01 3.65 -0.98 5.3 -2 7 C-3.32 7 -4.64 7 -6 7 C-6 6.01 -6 5.02 -6 4 C-5.195625 3.525625 -4.39125 3.05125 -3.5625 2.5625 C-1.15246512 1.23099846 -1.15246512 1.23099846 0 0 Z " fill="#5744AE" transform="translate(388,328)" />
<path d="M0 0 C1.32 0 2.64 0 4 0 C4.33 1.65 4.66 3.3 5 5 C4.34 5.66 3.68 6.32 3 7 C2.01 7 1.02 7 0 7 C0 7.66 0 8.32 0 9 C-0.66 8.67 -1.32 8.34 -2 8 C-1.0409375 7.1028125 -1.0409375 7.1028125 -0.0625 6.1875 C2.20310389 4.09189663 2.20310389 4.09189663 3 1 C2.01 0.67 1.02 0.34 0 0 Z " fill="#0E0A33" transform="translate(389,324)" />
<path d="M0 0 C0.66 0 1.32 0 2 0 C1.125 4.75 1.125 4.75 0 7 C-0.66 7 -1.32 7 -2 7 C-2.33 7.66 -2.66 8.32 -3 9 C-2.5020163 5.26512223 -2.12508244 3.18762365 0 0 Z " fill="#488D66" transform="translate(268,256)" />
<path d="M0 0 C1.32 0.33 2.64 0.66 4 1 C4.66 3.97 5.32 6.94 6 10 C3.25722422 6.80009492 1.3697164 3.99500618 0 0 Z " fill="#5036B1" transform="translate(112,219)" />
<path d="M0 0 C0.66 0 1.32 0 2 0 C1.67 1.32 1.34 2.64 1 4 C-2.1964086 5.06546953 -4.65747276 5.07427838 -8 5 C-7.4225 4.731875 -6.845 4.46375 -6.25 4.1875 C-3.94252104 3.04946754 -3.94252104 3.04946754 -1.875 1.375 C-1.25625 0.92125 -0.6375 0.4675 0 0 Z " fill="#C1C1C4" transform="translate(476,218)" />
<path d="M0 0 C1.65 0 3.3 0 5 0 C4.34 2.64 3.68 5.28 3 8 C2.34 8 1.68 8 1 8 C1.020625 7.05125 1.04125 6.1025 1.0625 5.125 C1.22551826 2.09333717 1.22551826 2.09333717 0 0 Z " fill="#07080B" transform="translate(383,211)" />
<path d="M0 0 C0.6875 1.625 0.6875 1.625 1 4 C-0.4375 7.25 -0.4375 7.25 -2 10 C-2.66 10 -3.32 10 -4 10 C-3.67 8.35 -3.34 6.7 -3 5 C-2.34 5 -1.68 5 -1 5 C-0.67 3.35 -0.34 1.7 0 0 Z " fill="#459162" transform="translate(173,156)" />
<path d="M0 0 C0.33 0 0.66 0 1 0 C1.25 2.125 1.25 2.125 1 5 C-1 8.3125 -1 8.3125 -3 11 C-3.66 11 -4.32 11 -5 11 C-4.67 9.68 -4.34 8.36 -4 7 C-3.34 7 -2.68 7 -2 7 C-1.34 4.69 -0.68 2.38 0 0 Z " fill="#5034AD" transform="translate(90,136)" />
<path d="M0 0 C0.33 0.99 0.66 1.98 1 3 C1.66 3 2.32 3 3 3 C3.33 2.01 3.66 1.02 4 0 C5.32 0 6.64 0 8 0 C8 0.66 8 1.32 8 2 C4.86501708 3.85776765 2.62528568 4.20140476 -1 4 C-0.67 2.68 -0.34 1.36 0 0 Z " fill="#3A3B42" transform="translate(217,379)" />
<path d="M0 0 C2.475 0.495 2.475 0.495 5 1 C5 1.99 5 2.98 5 4 C4.01 4.33 3.02 4.66 2 5 C1.34 4.67 0.68 4.34 0 4 C0 2.68 0 1.36 0 0 Z " fill="#010C10" transform="translate(496,372)" />
<path d="M0 0 C2.625 -0.125 2.625 -0.125 5 0 C3.625 2 3.625 2 2 4 C1.34 4 0.68 4 0 4 C-0.66 5.32 -1.32 6.64 -2 8 C-2.125 5.125 -2.125 5.125 -2 2 C-1.34 1.34 -0.68 0.68 0 0 Z " fill="#373739" transform="translate(601,370)" />
<path d="M0 0 C1.32 0.66 2.64 1.32 4 2 C2.02 4.97 2.02 4.97 0 8 C-1.09658936 4.71023192 -0.79953138 3.28696233 0 0 Z " fill="#011115" transform="translate(233,248)" />
<path d="M0 0 C0.99 0 1.98 0 3 0 C3 1.65 3 3.3 3 5 C2.34 5 1.68 5 1 5 C1 6.65 1 8.3 1 10 C0.67 10 0.34 10 0 10 C0 6.7 0 3.4 0 0 Z " fill="#020207" transform="translate(481,200)" />
<path d="M0 0 C0.625 1.6875 0.625 1.6875 1 4 C0.0625 6.75 0.0625 6.75 -1 9 C-1.66 9 -2.32 9 -3 9 C-3 9.66 -3 10.32 -3 11 C-3.66 10.67 -4.32 10.34 -5 10 C-4.67 9.01 -4.34 8.02 -4 7 C-3.34 7 -2.68 7 -2 7 C-1.34 4.69 -0.68 2.38 0 0 Z " fill="#472F9F" transform="translate(107,106)" />
<path d="M0 0 C0 0.66 0 1.32 0 2 C-2.31 2.33 -4.62 2.66 -7 3 C-7.33 2.34 -7.66 1.68 -8 1 C-5.29120665 -0.35439668 -2.99066732 -0.06501451 0 0 Z " fill="#C6C7C9" transform="translate(401,380)" />
<path d="M0 0 C0.33 0 0.66 0 1 0 C1.33 1.98 1.66 3.96 2 6 C3.65 6.33 5.3 6.66 7 7 C7 7.33 7 7.66 7 8 C5.824375 8.2165625 5.824375 8.2165625 4.625 8.4375 C2.03578982 8.87798925 2.03578982 8.87798925 0 10 C-1.231394 6.30581799 -0.64432764 3.7943739 0 0 Z " fill="#A5A6A9" transform="translate(103,372)" />
<path d="M0 0 C0.99 0.33 1.98 0.66 3 1 C3 1.99 3 2.98 3 4 C3.99 4 4.98 4 6 4 C6 4.66 6 5.32 6 6 C4.33388095 6.042721 2.66617115 6.04063832 1 6 C0.67 5.67 0.34 5.34 0 5 C-0.04063832 3.33382885 -0.042721 1.66611905 0 0 Z " fill="#09090E" transform="translate(393,373)" />
<path d="M0 0 C2.625 -0.125 2.625 -0.125 5 0 C3.6875 1.5 3.6875 1.5 2 3 C1.01 3 0.02 3 -1 3 C-1 4.65 -1 6.3 -1 8 C-1.33 8 -1.66 8 -2 8 C-2.125 5.125 -2.125 5.125 -2 2 C-1.34 1.34 -0.68 0.68 0 0 Z " fill="#424248" transform="translate(445,370)" />
<path d="M0 0 C2.97 0.495 2.97 0.495 6 1 C5.01 1.495 5.01 1.495 4 2 C4 2.66 4 3.32 4 4 C2.02 4.99 2.02 4.99 0 6 C0 4.02 0 2.04 0 0 Z " fill="#000B08" transform="translate(500,364)" />
<path d="M0 0 C2.1640625 0.0234375 2.1640625 0.0234375 4.625 0.375 C5.85089844 0.54128906 5.85089844 0.54128906 7.1015625 0.7109375 C7.72804688 0.80632812 8.35453125 0.90171875 9 1 C9 1.33 9 1.66 9 2 C6.03 2.66 3.06 3.32 0 4 C-0.66 3.34 -1.32 2.68 -2 2 C-1.34 1.34 -0.68 0.68 0 0 Z " fill="#191B26" transform="translate(441,365)" />
<path d="M0 0 C0.66 1.32 1.32 2.64 2 4 C-0.97 6.475 -0.97 6.475 -4 9 C-4.66 8.34 -5.32 7.68 -6 7 C-5.195625 6.21625 -4.39125 5.4325 -3.5625 4.625 C-1.01309583 2.28017144 -1.01309583 2.28017144 0 0 Z " fill="#383A3F" transform="translate(402,224)" />
<path d="M0 0 C3.3 1.65 6.6 3.3 10 5 C10 5.33 10 5.66 10 6 C7.69 5.67 5.38 5.34 3 5 C2.67 4.01 2.34 3.02 2 2 C1.34 2 0.68 2 0 2 C0 1.34 0 0.68 0 0 Z " fill="#222328" transform="translate(564,182)" />
<path d="M0 0 C0.33 0.99 0.66 1.98 1 3 C0.01 3.99 -0.98 4.98 -2 6 C-3.32 5.67 -4.64 5.34 -6 5 C-6 4.34 -6 3.68 -6 3 C-4.02 2.67 -2.04 2.34 0 2 C0 1.34 0 0.68 0 0 Z " fill="#ABABB0" transform="translate(399,180)" />
<path d="M0 0 C0.33 0.99 0.66 1.98 1 3 C1.66 3 2.32 3 3 3 C3.33 4.32 3.66 5.64 4 7 C2.35 6.67 0.7 6.34 -1 6 C-0.67 4.02 -0.34 2.04 0 0 Z " fill="#4830A8" transform="translate(114,160)" />
<path d="M0 0 C0.33 0 0.66 0 1 0 C1.33 3.3 1.66 6.6 2 10 C1.34 8.68 0.68 7.36 0 6 C-0.66 6 -1.32 6 -2 6 C-1.125 1.125 -1.125 1.125 0 0 Z " fill="#462D99" transform="translate(78,157)" />
<path d="M0 0 C0.33 0 0.66 0 1 0 C1.25 2.75 1.25 2.75 1 6 C-1 8.375 -1 8.375 -3 10 C-3 6.13304322 -1.58090029 3.4911548 0 0 Z " fill="#4C33A5" transform="translate(83,147)" />
<path d="M0 0 C3.36720387 1.39332574 4.9859524 2.9789286 7 6 C6.401875 5.835 5.80375 5.67 5.1875 5.5 C2.88655664 4.8885876 2.88655664 4.8885876 0 5 C0 3.35 0 1.7 0 0 Z " fill="#020209" transform="translate(205,378)" />
<path d="M0 0 C1.98 0.495 1.98 0.495 4 1 C4.33 2.32 4.66 3.64 5 5 C2.525 4.01 2.525 4.01 0 3 C0 2.01 0 1.02 0 0 Z " fill="#614EB8" transform="translate(409,330)" />
<path d="M0 0 C1 3 1 3 0.25 5.625 C-0.1625 6.40875 -0.575 7.1925 -1 8 C-1.99 8.33 -2.98 8.66 -4 9 C-2.80100302 5.9168649 -1.52299523 2.93720508 0 0 Z " fill="#160D4C" transform="translate(129,135)" />
<path d="M0 0 C2.31 0.33 4.62 0.66 7 1 C7 1.66 7 2.32 7 3 C5.02 3 3.04 3 1 3 C0.67 2.01 0.34 1.02 0 0 Z " fill="#C3C3C7" transform="translate(186,380)" />
<path d="M0 0 C0.185625 0.9590625 0.185625 0.9590625 0.375 1.9375 C0.684375 2.9584375 0.684375 2.9584375 1 4 C1.66 4.33 2.32 4.66 3 5 C2.67 5.66 2.34 6.32 2 7 C0.68 7 -0.64 7 -2 7 C-1.70131344 4.99453311 -1.36628677 2.99422795 -1 1 C-0.67 0.67 -0.34 0.34 0 0 Z " fill="#909095" transform="translate(149,376)" />
<path d="M0 0 C0.66 0 1.32 0 2 0 C2 1.32 2 2.64 2 4 C-0.31 4 -2.62 4 -5 4 C-4.67 3.34 -4.34 2.68 -4 2 C-2.68 2 -1.36 2 0 2 C0 1.34 0 0.68 0 0 Z " fill="#C2C2C8" transform="translate(95,378)" />
<path d="M0 0 C1.485 0.99 1.485 0.99 3 2 C3 2.99 3 3.98 3 5 C2.34 5 1.68 5 1 5 C1 6.32 1 7.64 1 9 C0.34 8.67 -0.32 8.34 -1 8 C-0.67 5.36 -0.34 2.72 0 0 Z " fill="#1D1F26" transform="translate(426,374)" />
<path d="M0 0 C2.475 0.495 2.475 0.495 5 1 C5 4.10551666 4.4606285 5.35261084 3 8 C3 6.02 3 4.04 3 2 C2.01 1.67 1.02 1.34 0 1 C0 0.67 0 0.34 0 0 Z " fill="#D3D2D6" transform="translate(191,369)" />
<path d="M0 0 C0.33 0 0.66 0 1 0 C1 2.97 1 5.94 1 9 C-1.15377564 6.37801226 -2.40072174 4.35595828 -3 1 C-2.01 1.495 -2.01 1.495 -1 2 C-0.67 1.34 -0.34 0.68 0 0 Z " fill="#02030A" transform="translate(117,367)" />
<path d="M0 0 C0.99 0.33 1.98 0.66 3 1 C3 1.66 3 2.32 3 3 C2.34 3 1.68 3 1 3 C1 5.97 1 8.94 1 12 C0.67 12 0.34 12 0 12 C0 8.04 0 4.08 0 0 Z " fill="#F1F2F5" transform="translate(424,369)" />
<path d="M0 0 C2.5 2.3125 2.5 2.3125 5 5 C5 5.99 5 6.98 5 8 C3.02 6.35 1.04 4.7 -1 3 C-0.67 2.01 -0.34 1.02 0 0 Z " fill="#35353C" transform="translate(431,218)" />
<path d="M0 0 C0.66 0 1.32 0 2 0 C2 0.66 2 1.32 2 2 C2.66 2 3.32 2 4 2 C4.33 3.98 4.66 5.96 5 8 C4.67 7.34 4.34 6.68 4 6 C3.34 6 2.68 6 2 6 C1.34 4.02 0.68 2.04 0 0 Z " fill="#4D35A9" transform="translate(81,168)" />
</svg>
