
<svg version="1.1" xmlns="http://www.w3.org/2000/svg" width="496" height="508" viewBox="0 0 496 508" preserveAspectRatio="xMidYMid meet">
<path d="M0 0 C163.68 0 327.36 0 496 0 C496 167.64 496 335.28 496 508 C332.32 508 168.64 508 0 508 C0 340.36 0 172.72 0 0 Z " fill="#010918" transform="translate(0,0)" />
<path d="M0 0 C20.79225756 -0.11673726 41.58446118 -0.20494106 62.37697983 -0.25906086 C72.03105363 -0.28485618 81.68492397 -0.320032 91.33886719 -0.37719727 C99.75203721 -0.42699167 108.16505991 -0.45928135 116.57837319 -0.47044247 C121.034345 -0.47696799 125.48989526 -0.49233203 129.94573212 -0.52865028 C134.13842478 -0.56254737 138.33052164 -0.57306585 142.52333832 -0.56553841 C144.06329586 -0.56691579 145.60327299 -0.57688621 147.14311218 -0.59602737 C149.2443974 -0.62086994 151.34342691 -0.61494091 153.44476318 -0.60127258 C155.20907495 -0.60818603 155.20907495 -0.60818603 157.00902939 -0.61523914 C160 0 160 0 162.30815506 2.38424397 C162.86646389 3.24744346 163.42477272 4.11064295 164 5 C164.53616943 5.80961182 165.07233887 6.61922363 165.62475586 7.45336914 C166.14948486 8.30535889 166.67421387 9.15734863 167.21484375 10.03515625 C167.81240479 10.99993896 168.40996582 11.96472168 169.02563477 12.95874023 C169.97200806 14.49510132 169.97200806 14.49510132 170.9375 16.0625 C175.90491993 24.07040223 180.91741095 32.04241042 186.0625 39.9375 C186.82904907 41.11421265 186.82904907 41.11421265 187.61108398 42.31469727 C188.10165283 43.06549561 188.59222168 43.81629395 189.09765625 44.58984375 C189.5683252 45.3154248 190.03899414 46.04100586 190.52392578 46.78857422 C191.5621571 48.34403226 192.6371571 49.87526302 193.73779297 51.38720703 C194.29740723 52.16821777 194.85702148 52.94922852 195.43359375 53.75390625 C196.2059436 54.79720093 196.2059436 54.79720093 196.99389648 55.86157227 C198 58 198 58 197.91040039 60.57788086 C197 63 197 63 195.33856583 64.62646198 C192.29231782 66.41565149 190.1988733 66.38436941 186.67254639 66.39872742 C185.37126801 66.41126556 184.06998962 66.42380371 182.72927856 66.4367218 C181.28924535 66.43554776 179.84921235 66.43408862 178.40917969 66.43237305 C176.89135947 66.44139004 175.37354655 66.45171711 173.85574341 66.46325684 C169.73625777 66.49086052 165.61691017 66.50011589 161.49734402 66.50611091 C157.19179744 66.51548583 152.88635433 66.54168849 148.58087158 66.56611633 C140.42826961 66.60980933 132.27568769 66.63833907 124.1230042 66.66143972 C114.84128737 66.6884764 105.55967448 66.73238883 96.27803183 66.77772844 C77.1854094 66.87061481 58.09275948 66.94227725 39 67 C38.66463226 67.5900029 38.32926453 68.1800058 37.98373413 68.78788757 C36.43587154 71.50913201 34.88591677 74.22917943 33.3359375 76.94921875 C32.80863037 77.8769812 32.28132324 78.80474365 31.73803711 79.76062012 C28.46202884 85.50559543 25.10482273 91.18867063 21.625 96.8125 C21.12621338 97.62195068 20.62742676 98.43140137 20.11352539 99.26538086 C19.51785767 100.23036499 19.51785767 100.23036499 18.91015625 101.21484375 C14.92510677 107.7216931 11.10991297 114.3285832 7.29516602 120.9362793 C4.40590628 125.9290001 1.4748549 130.88070145 -1.59375 135.765625 C-2.43885132 137.12324951 -2.43885132 137.12324951 -3.30102539 138.50830078 C-4.36420138 140.2083038 -5.44083544 141.89999023 -6.53295898 143.58154297 C-8.5541773 146.82996647 -9.94681134 149.10406653 -10.17578125 152.9609375 C-8.41729483 157.50612831 -5.89366352 161.41999147 -3.25 165.5 C-2.05016303 167.39461859 -0.85230257 169.29049008 0.34375 171.1875 C1.26220703 172.63962891 1.26220703 172.63962891 2.19921875 174.12109375 C4.96040769 178.53540231 7.61206112 183.01126257 10.25 187.5 C10.76626953 188.3768042 11.28253906 189.2536084 11.81445312 190.15698242 C14.67631072 195.02532592 17.526994 199.9002039 20.37774658 204.77505493 C21.55715494 206.7916421 22.73704471 208.80794699 23.91699219 210.82421875 C25.45623623 213.45448924 26.99303543 216.08616691 28.52832031 218.71875 C29.23236369 219.9232111 29.93646252 221.12763978 30.640625 222.33203125 C31.57696777 223.93655151 31.57696777 223.93655151 32.53222656 225.57348633 C33.78777816 227.86746266 33.78777816 227.86746266 35 229 C36.8935652 229.10442211 38.79105458 229.13799427 40.68748474 229.14476013 C41.92284973 229.15165863 43.15821472 229.15855713 44.43101501 229.16566467 C45.81265244 229.16837961 47.19429002 229.17101675 48.57592773 229.17358398 C50.02108969 229.17988555 51.46624969 229.1866509 52.91140747 229.19384766 C56.03040093 229.20854422 59.14938675 229.22025803 62.26840019 229.22979546 C67.19639005 229.24520745 72.12431491 229.26915561 77.05226135 229.29469299 C91.06775819 229.36600574 105.08329228 229.425728 119.09887695 229.47680664 C126.83417839 229.50507293 134.5694152 229.54043364 142.30464894 229.58346039 C147.20726004 229.61029761 152.10979798 229.62816281 157.01246822 229.63949764 C160.05871447 229.64859943 163.10487159 229.66594956 166.15106583 229.68567657 C167.56765027 229.69317374 168.98425753 229.69723443 170.40086174 229.69767189 C172.32911168 229.6987485 174.25734077 229.71312215 176.18553162 229.72825623 C177.80686083 229.73460413 177.80686083 229.73460413 179.46094418 229.74108028 C180.2988326 229.82652379 181.13672102 229.9119673 182 230 C182.66 230.66 183.32 231.32 184 232 C184.5 235.0625 184.5 235.0625 184 239 C182.88037109 240.94018555 182.88037109 240.94018555 181.3984375 243.01171875 C177.66266724 248.41930695 174.40259707 254.0565723 171.125 259.75 C159.83171411 279.21995668 159.83171411 279.21995668 156 285 C155.67830275 285.65659355 155.35660549 286.3131871 155.02515984 286.98967743 C153.57307133 289.52174199 152.28621858 291.16527924 150 293 C145.12159045 294.18603823 140.26178988 294.01253546 135.27392578 293.90820312 C133.76567201 293.90594501 132.25740944 293.90721618 130.74916077 293.91174316 C126.66416106 293.91403512 122.58104723 293.86706323 118.49648523 293.8111515 C114.22446966 293.76108053 109.95240899 293.756437 105.68014526 293.74694824 C97.59446351 293.72210057 89.50964891 293.656476 81.42434871 293.57615232 C72.21773605 293.48667788 63.01108157 293.44273347 53.80414224 293.40258884 C34.86893685 293.31900764 15.93453818 293.1783289 -3 293 C-4.10810307 291.43128811 -5.21424378 289.86118996 -6.31958008 288.29052734 C-7.24387566 286.97923355 -7.24387566 286.97923355 -8.18684387 285.64144897 C-10.86570692 281.73881756 -13.28463918 277.70128915 -15.6875 273.625 C-16.73432904 271.86585807 -17.78120537 270.10674427 -18.828125 268.34765625 C-19.35470703 267.45965332 -19.88128906 266.57165039 -20.42382812 265.65673828 C-22.91809483 261.45249258 -25.42552702 257.2561859 -27.9375 253.0625 C-28.42516846 252.24813477 -28.91283691 251.43376953 -29.4152832 250.59472656 C-33.69716735 243.46454679 -38.06455632 236.38858554 -42.46069336 229.32836914 C-45.52562368 224.40288492 -48.5359897 219.44897844 -51.51269531 214.46972656 C-53.9442631 210.43201485 -56.44450112 206.43745502 -58.9375 202.4375 C-64.62869688 193.28122632 -70.19684082 184.05483574 -75.71069336 174.79077148 C-79.22508528 168.90005919 -82.83669065 163.10084085 -86.62158203 157.37939453 C-87.9137739 155.14884158 -88.71596792 153.55232088 -89 151 C-87.7918538 148.50028063 -86.53437729 146.27666861 -85.0625 143.9375 C-84.12970562 142.4039515 -83.19745137 140.87007438 -82.265625 139.3359375 C-81.74548828 138.48870117 -81.22535156 137.64146484 -80.68945312 136.76855469 C-77.51316202 131.56347649 -74.41870371 126.30959257 -71.3125 121.0625 C-70.62563898 119.90498816 -69.93870812 118.74751776 -69.25170898 117.59008789 C-63.83623017 108.45780952 -58.51618893 99.27289029 -53.22387695 90.06860352 C-49.84572713 84.19435891 -46.44884555 78.33300982 -43 72.5 C-38.86717494 65.50752384 -34.80410966 58.47587054 -30.75 51.4375 C-28.16749961 46.95785258 -25.58406648 42.47874419 -23 38 C-22.06172363 36.37312256 -22.06172363 36.37312256 -21.10449219 34.71337891 C-19.28172136 31.55674511 -17.45403969 28.40300472 -15.625 25.25 C-14.82400879 23.86059204 -14.82400879 23.86059204 -14.00683594 22.44311523 C-10.89467392 17.08937606 -7.6471513 11.8434712 -4.28662109 6.64355469 C-3.66583931 5.68054947 -3.66583931 5.68054947 -3.03251648 4.6980896 C-2.02249978 3.13152937 -1.01136582 1.56568958 0 0 Z " fill="#5039CD" transform="translate(117,50)" />
<path d="M0 0 C2.63555336 -0.24609566 2.63555336 -0.24609566 6.04898071 -0.24050903 C7.33909561 -0.24325836 8.62921051 -0.24600769 9.9584198 -0.24884033 C11.39627167 -0.24176155 12.83412261 -0.23449192 14.27197266 -0.22705078 C15.77963758 -0.2264869 17.28730305 -0.22680278 18.79496765 -0.22793579 C22.89600589 -0.22851119 26.99692787 -0.2167267 31.09793901 -0.20278788 C35.38074694 -0.19031163 39.66355733 -0.18911248 43.94638062 -0.18673706 C52.06013791 -0.18051314 60.17384151 -0.16409001 68.28757513 -0.14403808 C77.52323027 -0.12170742 86.75888794 -0.11069279 95.99456334 -0.10064721 C114.99640604 -0.07972455 133.99819871 -0.0445309 153 0 C154.02870209 1.64705177 154.02870209 1.64705177 155.07818604 3.32737732 C155.98733755 4.78262818 156.89649732 6.23787388 157.80566406 7.69311523 C158.48201401 8.77609013 158.48201401 8.77609013 159.17202759 9.8809433 C161.9096758 14.26247724 164.66179537 18.63424531 167.43457031 22.99365234 C174.27010677 33.74427148 180.88790044 44.62350773 187.49316406 55.51660156 C191.46671725 62.06536745 195.46095741 68.5998852 199.5859375 75.0546875 C206.41884944 85.762389 212.97779967 96.61081037 219.39257812 107.57275391 C223.53980127 114.63657945 227.84525428 121.52104003 232.56225586 128.21801758 C234.78979359 131.40806673 235.98486679 133.22820645 236.0625 137.1875 C235 140 235 140 233.19140625 142.25390625 C230.78747317 145.2663215 228.82193801 148.43590421 226.875 151.75 C226.48666992 152.40411865 226.09833984 153.0582373 225.69824219 153.73217773 C224.46117147 155.81893112 223.2299684 157.90905371 222 160 C221.21615149 161.32943042 220.43229737 162.65885753 219.6484375 163.98828125 C218.01335603 166.76429667 216.38103501 169.54191794 214.75 172.3203125 C211.59197167 177.69781059 208.42174569 183.06808414 205.25 188.4375 C204.71922852 189.33670166 204.18845703 190.23590332 203.64160156 191.16235352 C199.63541377 197.94297023 195.59297891 204.70126075 191.52514648 211.44506836 C187.72243962 217.75952856 184.0105276 224.12380443 180.3125 230.5 C175.70429179 238.42611811 171.02509876 246.29712631 166.20458984 254.09570312 C161.51798585 261.71165038 157.05052972 269.4548784 152.59375 277.20703125 C152.02527344 278.19058594 151.45679688 279.17414063 150.87109375 280.1875 C150.36505615 281.06792969 149.85901855 281.94835937 149.33764648 282.85546875 C148 285 148 285 146 287 C143.28635979 287.24609566 143.28635979 287.24609566 139.76119995 287.24050903 C139.11428983 287.24221788 138.46737971 287.24392673 137.80086625 287.24568737 C135.62348072 287.24899337 133.44640032 287.23796063 131.26904297 287.22705078 C129.71211759 287.22648691 128.15519167 287.22680276 126.5982666 287.22793579 C122.36293665 287.22851123 118.12771925 287.2167261 113.89241552 287.20278788 C109.46947133 287.19031228 105.04652475 287.18911253 100.62356567 287.18673706 C92.24418944 287.18051294 83.8648652 287.16408956 75.4855119 287.14403808 C65.9475648 287.12170802 56.40961527 287.11069294 46.87164855 287.10064721 C27.24773665 287.07972411 7.62387159 287.04453008 -12 287 C-13.26277677 284.95495758 -14.52469102 282.90939106 -15.78613281 280.86352539 C-16.13902374 280.29222145 -16.49191467 279.72091751 -16.85549927 279.13230133 C-20.2508748 273.62281713 -23.51091202 268.03974959 -26.75 262.4375 C-30.29401086 256.3196265 -33.85007631 250.21394147 -37.53515625 244.1796875 C-38.36418457 242.81952515 -38.36418457 242.81952515 -39.20996094 241.43188477 C-40.2524305 239.72794571 -41.30095063 238.02768867 -42.35644531 236.33178711 C-42.82276367 235.56874268 -43.28908203 234.80569824 -43.76953125 234.01953125 C-44.17792236 233.36057861 -44.58631348 232.70162598 -45.00708008 232.02270508 C-46.14464782 229.70533386 -46.59272019 227.53991493 -47 225 C-46.01 224.01 -46.01 224.01 -45 223 C-42.36444664 222.75390434 -42.36444664 222.75390434 -38.95101929 222.75949097 C-37.66090439 222.75674164 -36.37078949 222.75399231 -35.0415802 222.75115967 C-33.60372833 222.75823845 -32.16587739 222.76550808 -30.72802734 222.77294922 C-29.22036242 222.7735131 -27.71269695 222.77319722 -26.20503235 222.77206421 C-22.10399411 222.77148881 -18.00307213 222.7832733 -13.90206099 222.79721212 C-9.61925306 222.80968837 -5.33644267 222.81088752 -1.05361938 222.81326294 C7.06013791 222.81948686 15.17384151 222.83590999 23.28757513 222.85596192 C32.52323027 222.87829258 41.75888794 222.88930721 50.99456334 222.89935279 C69.99640604 222.92027545 88.99819871 222.9554691 108 223 C108.30594086 222.22141632 108.61188171 221.44283264 108.92709351 220.64065552 C109.95700832 218.10581185 111.13217841 215.81029459 112.4765625 213.4296875 C112.97422119 212.54716309 113.47187988 211.66463867 113.98461914 210.75537109 C114.52594482 209.80484863 115.06727051 208.85432617 115.625 207.875 C116.19404053 206.87162598 116.76308105 205.86825195 117.34936523 204.83447266 C122.49189193 195.80853056 127.78448569 186.87390822 133.10351562 177.95117188 C137.84577638 169.98619374 142.49052533 161.97239377 147.01977539 153.88427734 C149.73918163 149.06362503 152.64876029 144.55747739 155.97412109 140.12744141 C157.2307633 137.99144983 157.2307633 137.99144983 156.74462891 135.34521484 C156.13572808 132.98059046 156.13572808 132.98059046 154.6875 131.25 C153.08347252 129.11129669 152.29922086 127.39557011 151.3125 124.9375 C149.72883575 121.24228343 147.82089623 118.26608221 145.37890625 115.078125 C140.6008668 108.61238228 136.61313114 101.77515832 132.625 94.8125 C131.22510285 92.37932988 129.82085146 89.94872244 128.4140625 87.51953125 C128.08840113 86.95708867 127.76273975 86.39464609 127.42720985 85.8151598 C124.61749796 80.99478793 121.69268894 76.25389984 118.72412109 71.5300293 C118.26708298 70.80083031 117.81004486 70.07163132 117.3391571 69.32033539 C116.22705717 67.54629285 115.1136655 65.77306017 114 64 C113.42336829 63.99576806 112.84673658 63.99153612 112.25263119 63.98717594 C98.10775375 63.88307873 83.96291807 63.77433687 69.81811428 63.66066074 C62.97730919 63.60579162 56.13649899 63.55239532 49.2956543 63.50268555 C42.6755004 63.45457504 36.05539011 63.4020703 29.43528938 63.34705925 C26.92837684 63.3269123 24.42145262 63.30815951 21.91451836 63.29092598 C9.73515643 63.20632601 -2.43155973 63.05835226 -14.60131836 62.54272461 C-15.50841584 62.50469254 -16.41551332 62.46666048 -17.35009861 62.42747593 C-23.25785713 62.15122288 -29.12131516 61.64426275 -35 61 C-34.41570807 56.45455251 -32.52127852 52.96035159 -30.25 49.0625 C-29.85804443 48.37865234 -29.46608887 47.69480469 -29.06225586 46.99023438 C-27.71774322 44.65447017 -26.3601859 42.32667022 -25 40 C-24.23937256 38.69458252 -24.23937256 38.69458252 -23.46337891 37.36279297 C-17.85769658 27.75769494 -12.18574171 18.19432105 -6.3125 8.75 C-5.90265869 8.08871094 -5.49281738 7.42742187 -5.07055664 6.74609375 C-3.51843022 4.27275431 -2.07201335 2.07201335 0 0 Z " fill="#3D8959" transform="translate(235,169)" />
<path d="M0 0 C73.26 0.495 73.26 0.495 148 1 C147.34 1.66 146.68 2.32 146 3 C143.80102539 3.30297852 143.80102539 3.30297852 141.09765625 3.37890625 C140.12505859 3.41306641 139.15246094 3.44722656 138.15039062 3.48242188 C137.13138672 3.50884766 136.11238281 3.53527344 135.0625 3.5625 C133.05326703 3.62245806 131.04413962 3.68609808 129.03515625 3.75390625 C128.1419165 3.77783447 127.24867676 3.8017627 126.32836914 3.82641602 C123.84358144 3.9161271 123.84358144 3.9161271 121 5 C121 4.34 121 3.68 121 3 C120.01 3.33 119.02 3.66 118 4 C116.2528093 4.0830539 114.50255461 4.10736714 112.75341797 4.09765625 C111.68155243 4.09435303 110.60968689 4.0910498 109.50534058 4.08764648 C108.34600006 4.07934814 107.18665955 4.0710498 105.9921875 4.0625 C104.79699493 4.05871338 103.60180237 4.05492676 102.37039185 4.05102539 C97.25111725 4.03467428 92.13192207 4.00667392 87.01269531 3.97949219 C83.27669651 3.96133307 79.54071102 3.94927993 75.8046875 3.9375 C74.65749237 3.92920166 73.51029724 3.92090332 72.32833862 3.91235352 C66.12210512 3.89355908 60.15532846 4.2144437 54 5 C53.01 5 52.02 5 51 5 C49.845 5.020625 48.69 5.04125 47.5 5.0625 C44 5 44 5 41 4 C39.2984375 4.2475 39.2984375 4.2475 37.5625 4.5 C34 5 34 5 32.18457031 4.53735352 C29.24867974 3.81519268 26.50617107 3.88860831 23.484375 3.90234375 C21.60878906 3.90717773 21.60878906 3.90717773 19.6953125 3.91210938 C18.39335937 3.92048828 17.09140625 3.92886719 15.75 3.9375 C14.43257812 3.94201172 13.11515625 3.94652344 11.7578125 3.95117188 C8.50516259 3.96295684 5.25260416 3.97940989 2 4 C1.34 2.68 0.68 1.36 0 0 Z " fill="#2D248F" transform="translate(151,279)" />
<path d="M0 0 C0.33 0.66 0.66 1.32 1 2 C0.0625 4.625 0.0625 4.625 -1 7 C-0.36610352 7.01981934 0.26779297 7.03963867 0.92089844 7.06005859 C3.86426671 7.15681661 6.80706553 7.2658677 9.75 7.375 C11.24466797 7.42140625 11.24466797 7.42140625 12.76953125 7.46875 C13.76855469 7.50742188 14.76757812 7.54609375 15.796875 7.5859375 C16.69760742 7.6173584 17.59833984 7.6487793 18.52636719 7.68115234 C21.58139631 7.96157602 24.46321887 8.44829443 27.47460938 9.01147461 C34.53825998 10.22047724 41.45795392 10.27037161 48.609375 10.23046875 C49.98878943 10.22927142 51.3682047 10.22882495 52.74761963 10.2290802 C55.62183839 10.22752835 58.49593034 10.21934445 61.37011719 10.20581055 C65.00476379 10.18888777 68.63927108 10.18499542 72.27395248 10.18575573 C75.11917383 10.18548008 77.96436635 10.17993562 80.80957794 10.17275429 C82.785463 10.16814131 84.76135396 10.16631479 86.73724365 10.16459656 C93.32293302 10.13075078 99.85706443 9.92133251 106.42480469 9.46826172 C111.78702461 9.0987479 116.97937728 8.94676471 122.34375 9.33984375 C123.34190735 9.40855431 123.34190735 9.40855431 124.36022949 9.47865295 C126.4076738 9.62178106 128.45367895 9.7792089 130.5 9.9375 C131.92050361 10.03938238 133.34107697 10.1402971 134.76171875 10.24023438 C138.1753504 10.48242045 141.58787008 10.73740485 145 11 C145 11.33 145 11.66 145 12 C130.27270895 12.02354278 115.54542044 12.04108271 100.81811428 12.05181217 C93.97728782 12.05693033 87.13647317 12.06388562 80.2956543 12.07543945 C73.67553297 12.08661504 67.05542054 12.09230929 60.43528938 12.09487724 C57.92836376 12.09670378 55.42143869 12.10026939 52.91451836 12.10573006 C33.91126649 12.14542107 14.91003544 12.06741887 -4 10 C-3.43454163 6.04179141 -2.19097652 3.3340947 0 0 Z " fill="#24573D" transform="translate(204,220)" />
<path d="M0 0 C21.45 0 42.9 0 65 0 C65 0.33 65 0.66 65 1 C64.34926514 1.02505615 63.69853027 1.0501123 63.02807617 1.07592773 C60.08101954 1.19193702 57.1342787 1.31464115 54.1875 1.4375 C52.65125977 1.49647461 52.65125977 1.49647461 51.08398438 1.55664062 C50.10107422 1.59853516 49.11816406 1.64042969 48.10546875 1.68359375 C47.19949951 1.72025146 46.29353027 1.75690918 45.36010742 1.79467773 C42.84951218 1.9208205 42.84951218 1.9208205 40 3 C40 2.34 40 1.68 40 1 C39.01 1.33 38.02 1.66 37 2 C34.19275609 2.01632225 31.41691776 1.97438635 28.61328125 1.87890625 C27.79627243 1.85529526 26.97926361 1.83168427 26.13749695 1.80735779 C23.52898407 1.73080782 20.92077456 1.64674628 18.3125 1.5625 C16.54363462 1.50927063 14.77475445 1.45653028 13.00585938 1.40429688 C8.67038094 1.27520441 4.33515957 1.13937489 0 1 C0 0.67 0 0.34 0 0 Z " fill="#3236B5" transform="translate(232,281)" />
<path d="M0 0 C0.33 0.66 0.66 1.32 1 2 C0.0625 4.625 0.0625 4.625 -1 7 C-0.00202393 7.03758423 -0.00202393 7.03758423 1.01611328 7.07592773 C4.05257487 7.19251136 7.08877346 7.31495351 10.125 7.4375 C11.17171875 7.47681641 12.2184375 7.51613281 13.296875 7.55664062 C18.27193842 7.76131096 23.10770149 7.99276207 28 9 C28 9.33 28 9.66 28 10 C17.44 10 6.88 10 -4 10 C-3.12686261 5.63431305 -2.34897511 3.57452735 0 0 Z " fill="#2E7547" transform="translate(204,220)" />
<path d="M0 0 C6.6 0 13.2 0 20 0 C16.16399713 1.91800144 15.02507754 2.20641423 11 2 C10.01 2 9.02 2 8 2 C5.66666667 2 3.33333333 2 1 2 C0.67 1.34 0.34 0.68 0 0 Z " fill="#4430BC" transform="translate(194,282)" />
<path d="M0 0 C0.67578125 1.70703125 0.67578125 1.70703125 1 4 C-0.14453125 6.32421875 -0.14453125 6.32421875 -1.8125 8.6875 C-2.62654297 9.86892578 -2.62654297 9.86892578 -3.45703125 11.07421875 C-5 13 -5 13 -7 14 C-5.53967505 8.68972746 -3.01679014 4.53669968 0 0 Z " fill="#2A694D" transform="translate(381,325)" />
<path d="M0 0 C0.33 0.66 0.66 1.32 1 2 C0.00390625 4.3828125 0.00390625 4.3828125 -1.4375 7.125 C-1.91058594 8.03507812 -2.38367188 8.94515625 -2.87109375 9.8828125 C-3.24363281 10.58148438 -3.61617188 11.28015625 -4 12 C-4.66 12 -5.32 12 -6 12 C-4.68139111 7.38486888 -2.78644563 3.90102388 0 0 Z " fill="#2B674B" transform="translate(359,363)" />
<path d="M0 0 C0.33 0 0.66 0 1 0 C0.6875 3.375 0.6875 3.375 0 7 C-1.485 7.99 -1.485 7.99 -3 9 C-3.75 7.3125 -3.75 7.3125 -4 5 C-2.125 2.25 -2.125 2.25 0 0 Z " fill="#040811" transform="translate(89,92)" />
<path d="M0 0 C3 2 3 2 4.25 3.75 C5.27018064 6.81054192 4.82201242 8.91745341 4 12 C3.01 12.495 3.01 12.495 2 13 C1.93941406 12.31292969 1.87882812 11.62585938 1.81640625 10.91796875 C1.73261719 10.01691406 1.64882813 9.11585938 1.5625 8.1875 C1.48128906 7.29417969 1.40007812 6.40085937 1.31640625 5.48046875 C1.06510233 2.87256441 1.06510233 2.87256441 0 0 Z " fill="#24573F" transform="translate(466,297)" />
<path d="M0 0 C0.33 0.66 0.66 1.32 1 2 C0.33333333 4 -0.33333333 6 -1 8 C-0.67 8.66 -0.34 9.32 0 10 C-1.32 10 -2.64 10 -4 10 C-3.43454163 6.04179141 -2.19097652 3.3340947 0 0 Z " fill="#256542" transform="translate(204,220)" />
<path d="M0 0 C0.66 0.33 1.32 0.66 2 1 C0.35 3.64 -1.3 6.28 -3 9 C-3.33 8.01 -3.66 7.02 -4 6 C-2.0625 2.8125 -2.0625 2.8125 0 0 Z " fill="#3548CB" transform="translate(289,304)" />
<path d="M0 0 C0.66 0.33 1.32 0.66 2 1 C0.35 3.64 -1.3 6.28 -3 9 C-3.33 7.68 -3.66 6.36 -4 5 C-2.0625 2.25 -2.0625 2.25 0 0 Z " fill="#3342CA" transform="translate(295,294)" />
<path d="M0 0 C4.8 4.30769231 4.8 4.30769231 5.8125 7.8125 C5.874375 8.534375 5.93625 9.25625 6 10 C2.51668565 6.98112756 1.20842856 4.43090471 0 0 Z " fill="#154A3A" transform="translate(382,287)" />
</svg>
