
<svg version="1.1" xmlns="http://www.w3.org/2000/svg" width="1392" height="688" viewBox="0 0 1392 688" preserveAspectRatio="xMidYMid meet">
<path d="M0 0 C459.36 0 918.72 0 1392 0 C1392 227.04 1392 454.08 1392 688 C932.64 688 473.28 688 0 688 C0 460.96 0 233.92 0 0 Z " fill="#010918" transform="translate(0,0)" />
<path d="M0 0 C2.8494198 -0.06149551 5.69344214 -0.03338631 8.54307556 0.00140381 C10.11367197 -0.0048093 11.68425893 -0.01403048 13.25482178 -0.02603149 C17.51543047 -0.04938988 21.77479595 -0.02880891 26.03532338 0.00101185 C30.49376 0.02618555 34.95212948 0.01560869 39.41061401 0.01013184 C46.89670465 0.00654743 54.38230319 0.0310949 61.86827087 0.07269287 C70.52484232 0.12048794 79.18063607 0.12572266 87.83730322 0.10774255 C96.16413408 0.09127351 104.49068646 0.10310032 112.81748772 0.12847137 C116.36171376 0.13887801 119.90575016 0.13966795 123.4499836 0.13282013 C127.6223984 0.12616783 131.79398574 0.14436761 135.96623039 0.18183517 C137.49806544 0.19164837 139.02998183 0.1929598 140.56182861 0.18519211 C142.65207985 0.17602128 144.73982189 0.19758115 146.82983398 0.22705078 C147.99954774 0.23153355 149.16926149 0.23601631 150.37442112 0.24063492 C153.35142517 0.87542725 153.35142517 0.87542725 155.65747738 3.2626152 C156.21648015 4.12484318 156.77548292 4.98707115 157.35142517 5.87542725 C157.8875946 6.68503906 158.42376404 7.49465088 158.97618103 8.32879639 C159.50091003 9.18078613 160.02563904 10.03277588 160.56626892 10.9105835 C161.16382996 11.87536621 161.76139099 12.84014893 162.37705994 13.83416748 C163.32343323 15.37052856 163.32343323 15.37052856 164.28892517 16.93792725 C169.2563451 24.94582948 174.26883612 32.91783767 179.41392517 40.81292725 C180.18047424 41.98963989 180.18047424 41.98963989 180.96250916 43.19012451 C181.453078 43.94092285 181.94364685 44.69172119 182.44908142 45.465271 C182.91975037 46.19085205 183.39041931 46.91643311 183.87535095 47.66400146 C184.91358228 49.21945951 185.98858228 50.75069026 187.08921814 52.26263428 C187.6488324 53.04364502 188.20844666 53.82465576 188.78501892 54.6293335 C189.55736877 55.67262817 189.55736877 55.67262817 190.34532166 56.73699951 C191.35142517 58.87542725 191.35142517 58.87542725 191.19932556 61.45330811 C190.24670228 64.17457951 189.64873255 65.15802161 187.35142517 66.87542725 C184.56158924 67.2601881 184.56158924 67.2601881 181.10626221 67.27415466 C179.79794434 67.28669281 178.48962646 67.29923096 177.1416626 67.31214905 C175.68855261 67.31097493 174.23544283 67.30951576 172.78233337 67.30780029 C171.2548086 67.31681468 169.72729108 67.32714111 168.19978333 67.33868408 C164.04924793 67.36631836 159.89884953 67.37554727 155.74823403 67.38153815 C151.41198538 67.39090516 147.07583974 67.41710713 142.73965454 67.44154358 C134.526812 67.48525846 126.3139894 67.51377474 118.10106581 67.53686696 C108.75165917 67.56389195 99.4023559 67.60780507 90.05302298 67.65315568 C70.81921157 67.74607338 51.58537282 67.81772144 32.35142517 67.87542725 C32.01605743 68.46543015 31.6806897 69.05543304 31.3351593 69.66331482 C29.78729671 72.38455926 28.23734194 75.10460667 26.68736267 77.824646 C26.16005554 78.75240845 25.63274841 79.6801709 25.08946228 80.63604736 C21.81339409 86.38112775 18.45557878 92.06362336 14.97642517 97.68792725 C8.80577032 107.69181038 2.91525111 117.85411794 -2.98695374 128.01800537 C-5.44658603 132.24773449 -7.91973996 136.46942954 -10.39857483 140.68792725 C-10.80471008 141.38087891 -11.21084534 142.07383057 -11.62928772 142.78778076 C-13.24277671 145.5320732 -14.88211315 148.22573473 -16.64857483 150.87542725 C-16.61186599 156.96909439 -13.09371021 161.4443233 -9.89857483 166.37542725 C-8.69873786 168.27004584 -7.5008774 170.16591733 -6.30482483 172.06292725 C-5.3863678 173.51505615 -5.3863678 173.51505615 -4.44935608 174.996521 C-1.68816714 179.41082956 0.96348629 183.88668982 3.60142517 188.37542725 C4.1176947 189.25223145 4.63396423 190.12903564 5.1658783 191.03240967 C8.02773589 195.90075316 10.87841917 200.77563115 13.72917175 205.65048218 C14.90858011 207.66706935 16.08846989 209.68337424 17.26841736 211.699646 C18.80766141 214.32991649 20.3444606 216.96159416 21.87974548 219.59417725 C22.58378886 220.79863834 23.28788769 222.00306703 23.99205017 223.2074585 C24.92839294 224.81197876 24.92839294 224.81197876 25.88365173 226.44891357 C27.13920333 228.7428899 27.13920333 228.7428899 28.35142517 229.87542725 C30.24499037 229.97984935 32.14247975 230.01342152 34.03890991 230.02018738 C35.2742749 230.02708588 36.50963989 230.03398437 37.78244019 230.04109192 C39.16407761 230.04380686 40.5457152 230.04644399 41.92735291 230.04901123 C43.37251486 230.0553128 44.81767486 230.06207815 46.26283264 230.0692749 C49.3818261 230.08397146 52.50081192 230.09568527 55.61982536 230.1052227 C60.54781522 230.1206347 65.47574008 230.14458286 70.40368652 230.17012024 C84.41918336 230.24143298 98.43471745 230.30115525 112.45030212 230.35223389 C120.18560356 230.38050018 127.92084037 230.41586088 135.65607411 230.45888764 C140.55868521 230.48572486 145.46122315 230.50359005 150.36389339 230.51492488 C153.41013964 230.52402668 156.45629676 230.54137681 159.502491 230.56110382 C160.91907544 230.56860099 162.3356827 230.57266168 163.75228691 230.57309914 C165.68053685 230.57417575 167.60876594 230.5885494 169.53695679 230.60368347 C171.158286 230.61003138 171.158286 230.61003138 172.81236935 230.61650753 C173.65025777 230.70195104 174.48814619 230.78739454 175.35142517 230.87542725 C176.01142517 231.53542725 176.67142517 232.19542725 177.35142517 232.87542725 C177.85142517 235.93792725 177.85142517 235.93792725 177.35142517 239.87542725 C176.23179626 241.81561279 176.23179626 241.81561279 174.74986267 243.887146 C171.01409241 249.2947342 167.75402224 254.93199955 164.47642517 260.62542725 C153.18313928 280.09538393 153.18313928 280.09538393 149.35142517 285.87542725 C149.02972792 286.5320208 148.70803066 287.18861435 148.37658501 287.86510468 C146.9244965 290.39716924 145.63764375 292.04070649 143.35142517 293.87542725 C138.47301562 295.06146548 133.61321505 294.8879627 128.62535095 294.78363037 C127.11709718 294.78137226 125.60883461 294.78264343 124.10058594 294.78717041 C120.01558623 294.78946237 115.9324724 294.74249048 111.8479104 294.68657875 C107.57589483 294.63650778 103.30383416 294.63186425 99.03157043 294.62237549 C90.94588868 294.59752781 82.86107408 294.53190325 74.77577388 294.45157957 C65.56916122 294.36210513 56.36250674 294.31816072 47.15556741 294.27801609 C28.22036202 294.19443489 9.28596335 294.05375615 -9.64857483 293.87542725 C-10.76024275 292.30078684 -11.87007149 290.72484793 -12.97914124 289.14837646 C-13.90649582 287.83218826 -13.90649582 287.83218826 -14.85258484 286.4894104 C-17.41648104 282.75777408 -19.72963492 278.90169403 -22.02357483 275.00042725 C-23.05662217 273.26166638 -24.09052942 271.52341623 -25.12513733 269.7855835 C-25.68233459 268.84859619 -26.23953186 267.91160889 -26.81361389 266.94622803 C-29.94714456 261.70227529 -33.11882945 256.4815244 -36.29096985 251.26086426 C-37.36436649 249.49422859 -38.43694164 247.72709637 -39.50941467 245.9598999 C-42.9189202 240.34685705 -46.34229982 234.74293576 -49.78919983 229.152771 C-52.61311296 224.5705593 -55.40348439 219.97043843 -58.16517639 215.3505249 C-60.92805762 210.74056935 -63.72780561 206.15298465 -66.52357483 201.56292725 C-67.1399884 200.55036865 -67.75640198 199.53781006 -68.39149475 198.49456787 C-72.16839117 192.29403449 -75.96442543 186.10605739 -79.78138733 179.93011475 C-81.18692642 177.63067631 -82.5764864 175.32480996 -83.95326233 173.00823975 C-84.34989075 172.34179443 -84.74651917 171.67534912 -85.15516663 170.9887085 C-85.91205821 169.71433903 -86.66636744 168.43843015 -87.41737366 167.1605835 C-89.28238929 164.01986783 -91.22712835 161.12028792 -93.48060608 158.24261475 C-95.6305321 155.22274983 -95.6305321 155.22274983 -95.77357483 152.46917725 C-94.07330692 148.54911512 -91.90504852 144.99833328 -89.64857483 141.37542725 C-88.55062951 139.57952405 -87.45437674 137.78258536 -86.35951233 135.98480225 C-85.46570862 134.52010498 -85.46570862 134.52010498 -84.55384827 133.02581787 C-81.06738488 127.26091225 -77.673608 121.44154764 -74.27357483 115.62542725 C-73.54289511 114.37670992 -72.81218213 113.12801205 -72.08143616 111.8793335 C-70.63158865 109.40123236 -69.18249983 106.92268978 -67.73402405 104.44378662 C-65.78150002 101.10227239 -63.82643545 97.76224892 -61.87123108 94.42230225 C-55.89196444 84.19939567 -49.96654989 73.94885142 -44.10951233 63.65545654 C-40.05932853 56.5549111 -35.90913129 49.51656889 -31.73231506 42.4899292 C-28.67270685 37.33269564 -25.64932744 32.1564843 -22.66810608 26.95355225 C-22.33276352 26.36893723 -21.99742096 25.7843222 -21.6519165 25.18199158 C-20.0165237 22.32972744 -18.38550588 19.47516674 -16.76063538 16.61688232 C-16.1667804 15.57942871 -15.57292542 14.5419751 -14.96107483 13.4730835 C-14.44158264 12.56050781 -13.92209045 11.64793213 -13.38685608 10.70770264 C-12.81322327 9.77305176 -12.23959045 8.83840088 -11.64857483 7.87542725 C-11.10105057 6.6800383 -10.55352631 5.48464935 -9.9894104 4.2530365 C-7.20372423 0.4382135 -4.58744534 0.28474945 0 0 Z " fill="#5039CD" transform="translate(155.64857482910156,45.12457275390625)" />
<path d="M0 0 C2.63555336 -0.24609566 2.63555336 -0.24609566 6.04898071 -0.24050903 C7.33909561 -0.24325836 8.62921051 -0.24600769 9.9584198 -0.24884033 C11.39627167 -0.24176155 12.83412261 -0.23449192 14.27197266 -0.22705078 C15.77963758 -0.2264869 17.28730305 -0.22680278 18.79496765 -0.22793579 C22.89600589 -0.22851119 26.99692787 -0.2167267 31.09793901 -0.20278788 C35.38074694 -0.19031163 39.66355733 -0.18911248 43.94638062 -0.18673706 C52.06013791 -0.18051314 60.17384151 -0.16409001 68.28757513 -0.14403808 C77.52323027 -0.12170742 86.75888794 -0.11069279 95.99456334 -0.10064721 C114.99640604 -0.07972455 133.99819871 -0.0445309 153 0 C154.02870209 1.64705177 154.02870209 1.64705177 155.07818604 3.32737732 C155.98733755 4.78262818 156.89649732 6.23787388 157.80566406 7.69311523 C158.48201401 8.77609013 158.48201401 8.77609013 159.17202759 9.8809433 C161.9096758 14.26247724 164.66179537 18.63424531 167.43457031 22.99365234 C174.27010677 33.74427148 180.88790044 44.62350773 187.49316406 55.51660156 C191.45830082 62.05149642 195.44964193 68.56885931 199.55078125 75.01953125 C206.49350527 85.94239798 213.26447053 96.95908103 219.94897461 108.04125977 C223.71064302 114.27141129 227.5264978 120.4589184 231.46362305 126.58007812 C232.22412964 127.77793945 232.22412964 127.77793945 233 129 C233.56428711 129.88486084 234.12857422 130.76972168 234.70996094 131.68139648 C236 134 236 134 235.81640625 136.06640625 C232.7873821 143.24041082 228.30766357 149.78019312 224.21875 156.37890625 C220.52579138 162.37339291 217.00056627 168.46826047 213.44189453 174.54296875 C210.72066489 179.18002515 207.98498699 183.80854917 205.25 188.4375 C204.71930908 189.33654053 204.18861816 190.23558105 203.6418457 191.16186523 C199.40873492 198.32676047 195.13595246 205.4672721 190.83203125 212.58984375 C186.62683386 219.56054813 182.50013984 226.57020034 178.4375 233.625 C175.44634341 238.81852654 172.4287566 243.98062665 169.25 249.0625 C164.36034201 256.89613957 159.83297522 264.94525134 155.27832031 272.97680664 C154.65538086 274.06727295 154.03244141 275.15773926 153.390625 276.28125 C152.5557959 277.75174805 152.5557959 277.75174805 151.70410156 279.25195312 C149.92311128 282.12399133 148.3609395 284.56985257 146 287 C143.04026413 287.61523914 143.04026413 287.61523914 139.52069092 287.60127258 C138.87207195 287.60554471 138.22345297 287.60981683 137.55517888 287.61421841 C135.38341229 287.6224496 133.21358052 287.59496629 131.04199219 287.56762695 C129.48477219 287.56621649 127.92754887 287.56700844 126.37033081 287.56983948 C122.14313879 287.57127512 117.91665496 287.54186198 113.68962765 287.50696969 C109.27206441 287.47573053 104.85448526 287.47277739 100.43682861 287.46684265 C92.07155362 287.45129699 83.70660503 287.41025886 75.34147382 287.3600952 C65.81802919 287.30422413 56.29456904 287.27672088 46.77100134 287.25161803 C27.18048532 287.19934357 7.59026322 287.11138731 -12 287 C-14.00849851 283.65617441 -16.01652869 280.31206804 -18.02416992 276.96772766 C-19.03345793 275.28665383 -20.04309105 273.60578721 -21.05273438 271.92492676 C-26.46511366 262.90818283 -31.84104498 253.87058134 -37.1640625 244.80078125 C-38.87924013 241.88292244 -40.61601908 238.98271451 -42.3984375 236.10546875 C-43.05070313 235.03941406 -43.70296875 233.97335937 -44.375 232.875 C-44.91898438 232.00617188 -45.46296875 231.13734375 -46.0234375 230.2421875 C-47 228 -47 228 -46.7265625 225.7578125 C-46 224 -46 224 -45 223 C-43.02571766 222.9033112 -41.04792169 222.87812925 -39.0712738 222.87974548 C-37.78253357 222.87837082 -36.49379333 222.87699615 -35.16600037 222.87557983 C-33.72451759 222.87911945 -32.28303505 222.88275427 -30.84155273 222.88647461 C-29.33403526 222.88675647 -27.82651764 222.88659877 -26.31900024 222.8860321 C-22.21380656 222.88574409 -18.10864185 222.89164139 -14.00345492 222.89860606 C-9.7179674 222.90483901 -5.43247928 222.90544335 -1.14698792 222.90663147 C6.97386652 222.90974496 15.09470756 222.91795859 23.21555609 222.92798096 C32.45844874 222.93914155 41.70134202 222.94465241 50.94423974 222.94967639 C69.9628341 222.96014119 88.98141597 222.97774097 108 223 C108.30594086 222.22141632 108.61188171 221.44283264 108.92709351 220.64065552 C109.95700832 218.10581185 111.13217841 215.81029459 112.4765625 213.4296875 C112.97422119 212.54716309 113.47187988 211.66463867 113.98461914 210.75537109 C114.52594482 209.80484863 115.06727051 208.85432617 115.625 207.875 C116.19404053 206.87162598 116.76308105 205.86825195 117.34936523 204.83447266 C122.49189193 195.80853056 127.78448569 186.87390822 133.10351562 177.95117188 C137.84577638 169.98619374 142.49052533 161.97239377 147.01977539 153.88427734 C149.73510202 149.07085691 152.6377632 144.49382513 155.83984375 139.98706055 C157.26088143 137.86579954 157.26088143 137.86579954 157.375 134.4375 C157.25125 133.633125 157.1275 132.82875 157 132 C156.34 132 155.68 132 155 132 C154.6596875 131.26136719 154.319375 130.52273438 153.96875 129.76171875 C153.4840625 128.74722656 152.999375 127.73273438 152.5 126.6875 C152.0359375 125.70136719 151.571875 124.71523438 151.09375 123.69921875 C149.44546497 120.55892856 147.42611261 117.80766226 145.3046875 114.96875 C140.54949432 108.54268032 136.59063132 101.73587711 132.625 94.8125 C131.22510285 92.37932988 129.82085146 89.94872244 128.4140625 87.51953125 C128.08840113 86.95708867 127.76273975 86.39464609 127.42720985 85.8151598 C124.61749796 80.99478793 121.69268894 76.25389984 118.72412109 71.5300293 C118.26708298 70.80083031 117.81004486 70.07163132 117.3391571 69.32033539 C116.22705717 67.54629285 115.1136655 65.77306017 114 64 C113.44767039 63.99576806 112.89534079 63.99153612 112.32627392 63.98717594 C98.74746727 63.88286096 85.16870271 63.77404645 71.58996868 63.66066074 C65.02280261 63.60595307 58.45563191 63.55262862 51.88842773 63.50268555 C45.5276104 63.45425746 39.16683541 63.40190864 32.80607033 63.34705925 C30.40294286 63.32698402 27.99980396 63.30822309 25.59665489 63.29092598 C12.8676337 63.19839074 0.15077442 62.99542247 -12.57104492 62.54272461 C-13.67037259 62.50469254 -14.76970026 62.46666048 -15.90234089 62.42747593 C-22.30040366 62.18076332 -28.63815117 61.72564239 -35 61 C-34.41570807 56.45455251 -32.52127852 52.96035159 -30.25 49.0625 C-29.85804443 48.37865234 -29.46608887 47.69480469 -29.06225586 46.99023438 C-27.71774322 44.65447017 -26.3601859 42.32667022 -25 40 C-24.23937256 38.69458252 -24.23937256 38.69458252 -23.46337891 37.36279297 C-17.85769658 27.75769494 -12.18574171 18.19432105 -6.3125 8.75 C-5.90265869 8.08871094 -5.49281738 7.42742187 -5.07055664 6.74609375 C-3.51843022 4.27275431 -2.07201335 2.07201335 0 0 Z " fill="#3D8959" transform="translate(267,165)" />
<path d="M0 0 C8.67938381 4.11528706 15.24738516 9.53650887 21.87573242 16.41577148 C22.46612305 16.97522461 23.05651367 17.53467773 23.66479492 18.11108398 C27.40271721 21.92896183 29.70557757 26.57883615 32.12573242 31.29077148 C32.46765625 31.95101318 32.80958008 32.61125488 33.16186523 33.29150391 C39.5620622 46.30406788 39.06419308 61.24856588 37.87573242 75.41577148 C35.54797151 89.79666334 27.93000045 101.18668671 18.18823242 111.72827148 C12.43281498 117.24163866 5.91850029 120.81946449 -1.12426758 124.41577148 C-1.90543945 124.84889648 -2.68661133 125.28202148 -3.49145508 125.72827148 C-15.67270967 131.97978328 -33.0513928 131.72085538 -46.44067383 129.98608398 C-59.62391826 127.14229491 -72.4332897 119.76525807 -82.14770508 110.48217773 C-86.62196743 105.62691924 -89.95118274 100.18182039 -93.12426758 94.41577148 C-93.57930664 93.61139648 -94.0343457 92.80702148 -94.50317383 91.97827148 C-101.767921 78.44632452 -102.49174182 64.05270914 -100.72583008 49.02514648 C-97.95994472 35.87821089 -90.45990564 22.82127277 -81.07348633 13.34545898 C-58.47513388 -7.76774419 -28.00127179 -12.50263227 0 0 Z " fill="#F7F7F7" transform="translate(864.124267578125,217.584228515625)" />
<path d="M0 0 C4.40853355 2.34393106 8.42636772 4.94878414 12.375 8 C11.43055167 12.41552369 9.36132748 15.78503857 7.0625 19.625 C6.67126953 20.305625 6.28003906 20.98625 5.87695312 21.6875 C2.9174274 26.6543989 2.9174274 26.6543989 0.08203125 28.4609375 C-0.48128906 28.63882813 -1.04460937 28.81671875 -1.625 29 C-2.26179687 28.41605469 -2.89859375 27.83210938 -3.5546875 27.23046875 C-7.40194382 24.43557898 -11.31276302 22.94708409 -15.75 21.3125 C-16.56082031 21.00505859 -17.37164063 20.69761719 -18.20703125 20.38085938 C-24.55515184 17.98326342 -29.64852989 16.76890252 -36.4375 16.6875 C-37.62956055 16.64399414 -37.62956055 16.64399414 -38.84570312 16.59960938 C-43.08802232 16.55399304 -45.25213117 16.79166964 -49.05078125 18.9140625 C-49.90027344 19.60242188 -50.74976563 20.29078125 -51.625 21 C-52.40875 21.556875 -53.1925 22.11375 -54 22.6875 C-55.8126569 25.2670502 -55.94498989 26.35158234 -56.0625 29.4375 C-55.91698736 32.30081318 -55.57755311 34.11861723 -54.5 36.8125 C-50.10739522 41.93720557 -45.17608249 43.65536618 -38.81445312 45.33789062 C-37.86505859 45.57701172 -36.91566406 45.81613281 -35.9375 46.0625 C-34.05859375 46.55338542 -32.1796875 47.04427083 -30.30078125 47.53515625 C-29.36790283 47.77564697 -28.43502441 48.0161377 -27.47387695 48.26391602 C-4.47862445 54.20535798 -4.47862445 54.20535798 4.375 61 C5.23351562 61.60908203 5.23351562 61.60908203 6.109375 62.23046875 C11.32766662 66.21108864 13.96033104 70.95334962 16.375 77 C18.744327 84.45507986 18.0256543 92.8848118 15.75 100.25 C12.53617885 108.74926917 8.26234345 115.05764351 0.87890625 120.4296875 C-13.81954038 129.64774607 -29.91324043 128.91019359 -46.67138672 128.26953125 C-54.64909228 127.72566396 -61.4976222 125.51027172 -68.625 122 C-69.24761719 121.70609375 -69.87023437 121.4121875 -70.51171875 121.109375 C-76.80265018 118.10238891 -82.54285229 114.79173927 -87.625 110 C-87.13461689 104.96155394 -84.69775953 101.72909898 -81.8125 97.75 C-81.37357422 97.11320312 -80.93464844 96.47640625 -80.48242188 95.8203125 C-77.18308122 91.21202094 -77.18308122 91.21202094 -74.60522461 90.23266602 C-73.62501343 90.11749634 -73.62501343 90.11749634 -72.625 90 C-70.3984375 91.29296875 -70.3984375 91.29296875 -68 93.1875 C-63.07660162 96.80806928 -58.42725482 99.12942233 -52.625 101 C-51.69945312 101.2990625 -50.77390625 101.598125 -49.8203125 101.90625 C-38.12538949 105.25651972 -27.10749507 104.92233902 -15.625 101 C-14.635 100.67 -13.645 100.34 -12.625 100 C-10.62200257 95.78316331 -10.34092762 91.73085186 -10.1640625 87.1484375 C-10.48956139 84.83739202 -10.48956139 84.83739202 -12.35546875 82.875 C-19.82092093 76.70732866 -29.93243739 75.11290731 -39.125 73 C-53.12863224 69.77430043 -66.22884261 65.99937017 -76.4375 55.25 C-80.98740131 49.61023861 -83.47000252 44.20238334 -84.00390625 36.93359375 C-84.30382251 29.8054252 -84.23999974 22.80481461 -81.078125 16.26953125 C-76.17667826 8.61431469 -69.77106176 2.11590489 -61.625 -2 C-40.32961912 -10.73656651 -20.70133571 -9.92635476 0 0 Z " fill="#F8F8F8" transform="translate(700.625,219)" />
<path d="M0 0 C7.75629948 3.66829315 14.62128395 8.16281686 21.359375 13.45703125 C21.16518258 15.98626917 20.71965295 17.92970794 19.27783203 20.04003906 C17.86407214 21.75860743 16.40908585 23.42663518 14.921875 25.08203125 C10.9291891 29.6007441 10.9291891 29.6007441 7.359375 34.45703125 C3.10308332 33.85202221 -0.09714932 31.36341266 -3.578125 29.01953125 C-13.90518926 22.08736616 -22.96209994 21.07373794 -35.203125 21.23828125 C-41.89187833 21.4634918 -47.19135896 23.02444168 -52.953125 26.39453125 C-53.84 27.07515625 -54.726875 27.75578125 -55.640625 28.45703125 C-56.465625 29.01390625 -57.290625 29.57078125 -58.140625 30.14453125 C-64.91376418 36.40968499 -68.3965988 44.62023143 -71.2265625 53.2421875 C-72.68207098 61.02778475 -72.84090008 70.60334958 -69.890625 78.01953125 C-69.16307792 79.5098699 -68.41448335 80.99020567 -67.640625 82.45703125 C-67.36347656 83.13765625 -67.08632813 83.81828125 -66.80078125 84.51953125 C-63.91223491 91.33490325 -58.68786131 96.76140482 -52.55859375 100.84375 C-43.2517976 105.78167537 -32.98627347 106.6265185 -22.640625 105.45703125 C-13.23041476 103.66762272 -4.95834568 99.63318751 2.359375 93.45703125 C2.90078125 92.89242187 3.4421875 92.3278125 4 91.74609375 C4.44859375 91.32070313 4.8971875 90.8953125 5.359375 90.45703125 C6.019375 90.45703125 6.679375 90.45703125 7.359375 90.45703125 C8.5859375 91.890625 8.5859375 91.890625 9.984375 93.89453125 C13.46258205 98.70719893 17.36139537 103.07345968 21.359375 107.45703125 C20.96933956 109.97554579 20.46122198 111.33398769 18.8203125 113.31640625 C14.16927156 117.53195646 9.36689661 120.81171131 3.859375 123.76953125 C3.25528809 124.09469727 2.65120117 124.41986328 2.02880859 124.75488281 C0.16175375 125.71662329 -1.72351506 126.59964367 -3.640625 127.45703125 C-4.26227539 127.74763428 -4.88392578 128.0382373 -5.52441406 128.33764648 C-12.48595211 131.14711243 -19.74617194 130.94556859 -27.13183594 130.90307617 C-29.37269101 130.89459909 -31.61096003 130.92334364 -33.8515625 130.95507812 C-48.11467052 131.02412096 -59.81347465 127.51192282 -71.61328125 119.41796875 C-77.75965636 114.985267 -83.07041878 110.5113766 -87.640625 104.45703125 C-88.16140625 103.79445313 -88.6821875 103.131875 -89.21875 102.44921875 C-96.51364485 92.46479197 -100.72620084 78.97585257 -101.12255859 66.60693359 C-101.22647435 52.44349704 -98.27100023 38.59345432 -90.26171875 26.65234375 C-89.72675781 25.92789063 -89.19179688 25.2034375 -88.640625 24.45703125 C-88.03347656 23.60882813 -87.42632813 22.760625 -86.80078125 21.88671875 C-77.14959717 9.0821775 -63.70438791 1.41836605 -48.640625 -3.54296875 C-32.6625245 -8.31803327 -15.18561691 -6.43596425 0 0 Z " fill="#F6F6F6" transform="translate(1047.640625,216.54296875)" />
<path d="M0 0 C9.60090742 5.86640438 15.30360067 12.30587361 20.22265625 22.4296875 C23.4801992 30.10407546 24.51155096 38.15426411 23.05078125 46.37109375 C20.88843905 56.00334539 17.33837264 64.44329912 10.5703125 71.7421875 C6.94952097 74.99879884 2.88497744 77.37214657 -1.44921875 79.55859375 C-2.48949219 80.09613281 -3.52976562 80.63367188 -4.6015625 81.1875 C-12.37865913 84.42918205 -22.25470027 83.5795255 -30.44921875 82.55859375 C-39.63594482 80.38279021 -46.85808611 74.20974789 -53.1640625 67.4765625 C-57.69691484 61.68845875 -60.99099738 54.7649166 -61.64208984 47.3671875 C-62.07012513 34.76997943 -61.81416343 25.05535893 -54.91015625 14.12109375 C-49.93223601 7.13785019 -43.20585569 0.62767718 -35.07421875 -2.44140625 C-23.88212447 -5.13317576 -10.37936096 -5.18234006 0 0 Z " fill="#030A17" transform="translate(852.44921875,240.44140625)" />
<path d="M0 0 C9.24 0 18.48 0 28 0 C28 43.56 28 87.12 28 132 C18.76 132 9.52 132 0 132 C0 88.44 0 44.88 0 0 Z " fill="#F0F0EF" transform="translate(1121,213)" />
<path d="M0 0 C8.91 0 17.82 0 27 0 C27 43.56 27 87.12 27 132 C18.09 132 9.18 132 0 132 C0 88.44 0 44.88 0 0 Z " fill="#F7F8F7" transform="translate(1205,213)" />
<path d="M0 0 C8.58 0 17.16 0 26 0 C26 43.89 26 87.78 26 133 C17.42 133 8.84 133 0 133 C0 89.11 0 45.22 0 0 Z " fill="#F5F5F5" transform="translate(1288,213)" />
<path d="M0 0 C180.84 0 361.68 0 548 0 C548 1.32 548 2.64 548 4 C367.16 4 186.32 4 0 4 C0 2.68 0 1.36 0 0 Z " fill="#5836CD" transform="translate(74,519)" />
<path d="M0 0 C177.21 0 354.42 0 537 0 C537 1.32 537 2.64 537 4 C359.79 4 182.58 4 0 4 C0 2.68 0 1.36 0 0 Z " fill="#2F8F5B" transform="translate(787,519)" />
<path d="M0 0 C3.97282641 1.70364976 7.04658653 3.98699819 10 7.125 C11.60463005 11.73831139 11.64440555 16.17758046 11 21 C8.9976035 25.004793 6.82001123 27.6587028 3 30 C-1.37336427 31.45778809 -5.43326001 31.60982264 -10 31 C-14.04319758 29.25969974 -16.42493142 26.81622637 -18.9375 23.25 C-20.31736393 19.02923975 -20.7102021 15.39536189 -20 11 C-17.75910988 6.60121569 -15.04482933 3.80026646 -11 1 C-7.2371527 -0.25428243 -3.89895139 -0.6174496 0 0 Z " fill="#DADEDD" transform="translate(1275,610)" />
<path d="M0 0 C3.72954526 1.97972437 6.87310247 4.27478228 9.19921875 7.8359375 C10.87875582 12.37478403 10.50857364 17.25119362 10 22 C8.24622296 25.84481888 6.77861729 27.44384479 3.375 29.875 C-1.19413995 31.39804665 -5.23167178 31.69117461 -10 31 C-13.63382509 29.25038051 -15.6495062 27.37816436 -18.375 24.4375 C-20.67955227 19.56248558 -20.76643944 15.3018646 -20 10 C-18.15017282 5.9303802 -16.38771516 4.2888858 -12.8125 1.625 C-8.59691138 -0.50080965 -4.61641369 -1.05924561 0 0 Z " fill="#E4E8E7" transform="translate(292,610)" />
<path d="M0 0 C80.19 0 160.38 0 243 0 C243 1.32 243 2.64 243 4 C169.08 4 95.16 4 19 4 C19 3.67 19 3.34 19 3 C41.11 2.67 63.22 2.34 86 2 C57.62 1.67 29.24 1.34 0 1 C0 0.67 0 0.34 0 0 Z " fill="#305DCA" transform="translate(379,519)" />
<path d="M0 0 C3.99336588 1.73593544 7.06792163 3.98053928 10 7.1875 C11.52998498 11.49058274 11.65144451 15.49055634 11 20 C8.77960822 24.44078355 6.025229 27.13996887 2 30 C-1.73634943 31.86817472 -5.93210337 31.55333123 -10 31 C-14.06542772 29.08206598 -16.51864857 26.72202714 -19 23 C-19.62094083 17.73834351 -20.19421993 11.81897408 -18.08984375 6.8515625 C-13.62879133 1.19993982 -7.05207358 -1.41041472 0 0 Z " fill="#DEE1DE" transform="translate(128,610)" />
<path d="M0 0 C1.99958364 -0.04080783 4.00045254 -0.04254356 6 0 C6 3.63 6 7.26 6 11 C6.9075 10.505 7.815 10.01 8.75 9.5 C12 8 12 8 16 8 C14.2138347 12.05946658 11.60495777 15.43532094 9 19 C13.29 19 17.58 19 22 19 C22.495 20.98 22.495 20.98 23 23 C22.505 23.495 22.505 23.495 22 24 C19.98035801 24.07244053 17.95832876 24.08377188 15.9375 24.0625 C14.83277344 24.05347656 13.72804688 24.04445313 12.58984375 24.03515625 C11.73519531 24.02355469 10.88054688 24.01195312 10 24 C10.61875 25.0725 11.2375 26.145 11.875 27.25 C13.3323679 29.79780984 14.72924491 32.35259355 16 35 C15.01 35.33 14.02 35.66 13 36 C11.02 34.35 9.04 32.7 7 31 C6.34 34.96 5.68 38.92 5 43 C3.35 43 1.7 43 0 43 C-0.66 38.71 -1.32 34.42 -2 30 C-3.98 32.475 -3.98 32.475 -6 35 C-8.25 35.8125 -8.25 35.8125 -10 36 C-9.53502049 30.8852254 -7.03624172 27.97046994 -4 24 C-8.62 24 -13.24 24 -18 24 C-18 22.35 -18 20.7 -18 19 C-14.37 19 -10.74 19 -7 19 C-8.00613529 13.96932357 -8.92839956 12.76518764 -12 9 C-12 8.01 -12 7.02 -12 6 C-9.40117089 6.22930845 -7.47834944 6.6616826 -5.33203125 8.1796875 C-3.85843467 9.41876871 -2.42611195 10.70654963 -1 12 C-1.01160156 11.21753906 -1.02320313 10.43507813 -1.03515625 9.62890625 C-1.04417969 8.61699219 -1.05320312 7.60507812 -1.0625 6.5625 C-1.07410156 5.55316406 -1.08570313 4.54382813 -1.09765625 3.50390625 C-1.06542969 2.67761719 -1.03320312 1.85132813 -1 1 C-0.67 0.67 -0.34 0.34 0 0 Z " fill="#0C1E27" transform="translate(902,604)" />
<path d="M0 0 C4.5478125 -0.1546875 4.5478125 -0.1546875 9.1875 -0.3125 C10.13391357 -0.35802002 11.08032715 -0.40354004 12.05541992 -0.45043945 C14.45215871 -0.48987205 16.63896277 -0.42875406 19 0 C22.1171875 2.29296875 22.1171875 2.29296875 24 5 C23.92607229 9.28780723 23.3833231 11.42501534 21 15 C21.66 15.350625 22.32 15.70125 23 16.0625 C23.66 16.701875 24.32 17.34125 25 18 C25.5 21.4375 25.5 21.4375 25 25 C23.25 27.375 23.25 27.375 21 29 C18.24339059 29.87135437 15.77199747 30.11948483 12.890625 30.09765625 C12.21032227 30.09515869 11.53001953 30.09266113 10.82910156 30.09008789 C9.97799805 30.08098389 9.12689453 30.07187988 8.25 30.0625 C5.5275 30.041875 2.805 30.02125 0 30 C0 20.1 0 10.2 0 0 Z " fill="#E7EAE9" transform="translate(240,611)" />
<path d="M0 0 C21.42697225 -0.02335332 42.8539424 -0.04099116 64.2809248 -0.05181217 C74.22968661 -0.05696995 84.17844052 -0.0640028 94.12719727 -0.07543945 C102.7978382 -0.08540209 111.46847342 -0.0918572 120.13911992 -0.09408849 C124.7307613 -0.09539291 129.32238631 -0.0984618 133.91402245 -0.10573006 C138.23542887 -0.11251517 142.55681217 -0.11461187 146.87822342 -0.11310768 C148.46449344 -0.11338289 150.05076423 -0.11537324 151.63702965 -0.11920547 C153.80294464 -0.1241816 155.96877232 -0.1229838 158.13468933 -0.12025452 C159.34684711 -0.12117631 160.55900488 -0.1220981 161.80789471 -0.12304783 C164.66610121 -0.01287098 167.22374625 0.33978035 170 1 C168.91879559 2.47745228 168.91879559 2.47745228 167 4 C164.02275562 4.36914349 164.02275562 4.36914349 160.29927063 4.36076355 C159.27249585 4.36460846 159.27249585 4.36460846 158.22497815 4.36853105 C155.92619605 4.37348123 153.62806752 4.35695642 151.3293457 4.34057617 C149.68360408 4.33973016 148.03786132 4.34020453 146.39212036 4.34190369 C141.91920142 4.34276609 137.44652275 4.32510076 132.97365975 4.30418181 C128.30115231 4.2854558 123.62863964 4.28366779 118.95610046 4.28010559 C110.10569689 4.27077313 101.2554042 4.24614311 92.4050495 4.21605712 C82.33021747 4.18255046 72.25538021 4.16603651 62.18050635 4.15097082 C41.45360896 4.11959459 20.72681146 4.06681077 0 4 C0 2.68 0 1.36 0 0 Z " fill="#348CAF" transform="translate(787,519)" />
<path d="M0 0 C3.2284763 -0.17499733 6.45572926 -0.28106618 9.6875 -0.375 C11.05551758 -0.45041016 11.05551758 -0.45041016 12.45117188 -0.52734375 C15.09106899 -0.58494151 17.41456404 -0.54437499 20 0 C22.51887501 1.79031276 23.37687543 3.25343176 25 6 C25.5625 9.5625 25.5625 9.5625 25 13 C23.125 15.9375 23.125 15.9375 21 18 C20.34 18 19.68 18 19 18 C19.433125 18.69867187 19.86625 19.39734375 20.3125 20.1171875 C20.869375 21.02726563 21.42625 21.93734375 22 22.875 C22.556875 23.77992188 23.11375 24.68484375 23.6875 25.6171875 C25 28 25 28 25 30 C22.375 30.5 22.375 30.5 19 30 C16.5736254 27.60641425 14.67802863 24.96332716 13 22 C13 21.34 13 20.68 13 20 C11.02 20 9.04 20 7 20 C7 23.3 7 26.6 7 30 C5.00045254 30.04254356 2.99958364 30.04080783 1 30 C0.67 29.67 0.34 29.34 0 29 C-0.08775605 26.85441173 -0.10695219 24.70595579 -0.09765625 22.55859375 C-0.09443359 21.25341797 -0.09121094 19.94824219 -0.08789062 18.60351562 C-0.07953401 17.2148431 -0.07106905 15.82617123 -0.0625 14.4375 C-0.05748666 13.04492344 -0.05292347 11.65234519 -0.04882812 10.25976562 C-0.03699434 6.8398013 -0.0205088 3.41992156 0 0 Z " fill="#DADEDE" transform="translate(310,611)" />
<path d="M0 0 C2.84625 -0.103125 5.6925 -0.20625 8.625 -0.3125 C9.95265381 -0.38078003 9.95265381 -0.38078003 11.30712891 -0.45043945 C14.48673218 -0.50590181 17.04400021 -0.50028814 19.90063477 0.99462891 C22.15603102 2.74543599 23.76402427 4.36105033 24.76171875 7.0625 C24.68123732 9.16348899 24.56905171 10.96942699 24 13 C21.5 16 21.5 16 19 18 C19.97007516 20.68636197 20.88207015 22.84578404 22.625 25.125 C23.07875 25.74375 23.5325 26.3625 24 27 C24 27.99 24 28.98 24 30 C20.8125 30 20.8125 30 17 29 C15.55002635 27.02701533 14.48422621 24.97045711 13.33203125 22.8125 C12.89246094 22.214375 12.45289063 21.61625 12 21 C8.33054374 19.86521513 8.33054374 19.86521513 5 20 C5 23.3 5 26.6 5 30 C3.35 30 1.7 30 0 30 C0 20.1 0 10.2 0 0 Z " fill="#E0E3E3" transform="translate(1022,611)" />
<path d="M0 0 C1.34771484 0.20496094 1.34771484 0.20496094 2.72265625 0.4140625 C5.0390625 2.828125 5.0390625 2.828125 7.28515625 6.0390625 C8.02894531 7.08320312 8.77273438 8.12734375 9.5390625 9.203125 C10.25964844 10.26273438 10.98023438 11.32234375 11.72265625 12.4140625 C12.84994141 14.03441406 12.84994141 14.03441406 14 15.6875 C15.72265625 18.4140625 15.72265625 18.4140625 15.72265625 20.4140625 C16.38265625 20.4140625 17.04265625 20.4140625 17.72265625 20.4140625 C17.72265625 13.8140625 17.72265625 7.2140625 17.72265625 0.4140625 C19.37265625 0.4140625 21.02265625 0.4140625 22.72265625 0.4140625 C23.05265625 0.7440625 23.38265625 1.0740625 23.72265625 1.4140625 C23.8104123 3.55965077 23.82960844 5.70810671 23.8203125 7.85546875 C23.81708984 9.16064453 23.81386719 10.46582031 23.81054688 11.81054688 C23.80219026 13.1992194 23.7937253 14.58789127 23.78515625 15.9765625 C23.78014291 17.36913906 23.77557972 18.76171731 23.77148438 20.15429688 C23.75965059 23.5742612 23.74316505 26.99414094 23.72265625 30.4140625 C22.07265625 30.7440625 20.42265625 31.0740625 18.72265625 31.4140625 C7.87893398 19.88522488 7.87893398 19.88522488 4.72265625 13.4140625 C4.72265625 12.7540625 4.72265625 12.0940625 4.72265625 11.4140625 C4.06265625 11.4140625 3.40265625 11.4140625 2.72265625 11.4140625 C2.72265625 18.0140625 2.72265625 24.6140625 2.72265625 31.4140625 C1.07265625 31.4140625 -0.57734375 31.4140625 -2.27734375 31.4140625 C-2.60734375 31.0840625 -2.93734375 30.7540625 -3.27734375 30.4140625 C-3.37737664 28.28053076 -3.40815423 26.14368708 -3.41015625 24.0078125 C-3.41144531 22.70714844 -3.41273437 21.40648437 -3.4140625 20.06640625 C-3.41196777 19.38562012 -3.40987305 18.70483398 -3.40771484 18.00341797 C-3.40236615 15.92277735 -3.40766055 13.84235261 -3.4140625 11.76171875 C-3.41277344 10.46105469 -3.41148438 9.16039062 -3.41015625 7.8203125 C-3.40902832 6.61697266 -3.40790039 5.41363281 -3.40673828 4.17382812 C-3.36403809 3.26310547 -3.32133789 2.35238281 -3.27734375 1.4140625 C-2.27734375 0.4140625 -2.27734375 0.4140625 0 0 Z " fill="#D8DBDA" transform="translate(1297.27734375,609.5859375)" />
<path d="M0 0 C2.51625 -0.103125 5.0325 -0.20625 7.625 -0.3125 C8.79603271 -0.38078003 8.79603271 -0.38078003 9.99072266 -0.45043945 C12.98416662 -0.5093356 15.19944313 -0.46659928 17.82714844 1.06494141 C20.0010606 2.8340875 21.73832665 4.4766533 23 7 C23.50698467 12.15434412 23.50698467 12.15434412 23 15 C20.5625 17.9375 20.5625 17.9375 18 20 C17.67 20.33 17.34 20.66 17 21 C15.14712498 21.07226502 13.29166122 21.0838122 11.4375 21.0625 C10.42558594 21.05347656 9.41367187 21.04445313 8.37109375 21.03515625 C7.19740234 21.01775391 7.19740234 21.01775391 6 21 C6 24.3 6 27.6 6 31 C4.02 31 2.04 31 0 31 C0 20.77 0 10.54 0 0 Z " fill="#E8EAE9" transform="translate(959,610)" />
<path d="M0 0 C84.48 0 168.96 0 256 0 C256 1.32 256 2.64 256 4 C224.98 4 193.96 4 162 4 C162 3.67 162 3.34 162 3 C170.415 2.505 170.415 2.505 179 2 C90.395 1.505 90.395 1.505 0 1 C0 0.67 0 0.34 0 0 Z " fill="#277347" transform="translate(1068,519)" />
<path d="M0 0 C2.866875 -0.103125 5.73375 -0.20625 8.6875 -0.3125 C10.02880981 -0.38078003 10.02880981 -0.38078003 11.3972168 -0.45043945 C13.68221236 -0.49015845 15.75156699 -0.42341301 18 0 C21.04296875 2.23828125 21.04296875 2.23828125 23 5 C23.90387442 8.10507449 23.72316587 10.85679088 23 14 C20.47031526 17.28175318 18.92268669 18.69243777 15 20 C13.43881572 20.06740865 11.8749748 20.08514456 10.3125 20.0625 C8.889375 20.041875 7.46625 20.02125 6 20 C6 23.3 6 26.6 6 30 C4.02 30 2.04 30 0 30 C0 20.1 0 10.2 0 0 Z " fill="#EBEFEE" transform="translate(1151,611)" />
<path d="M0 0 C2.375 -0.3125 2.375 -0.3125 5 0 C7.66766315 2.93050199 9.02643341 6.13378325 10.48046875 9.7890625 C10.92197266 10.89507813 11.36347656 12.00109375 11.81835938 13.140625 C12.49608398 14.86539063 12.49608398 14.86539063 13.1875 16.625 C13.65091797 17.78257812 14.11433594 18.94015625 14.59179688 20.1328125 C18 28.72610226 18 28.72610226 18 31 C15.69 31 13.38 31 11 31 C10.34 28.69 9.68 26.38 9 24 C2.565 24.495 2.565 24.495 -4 25 C-4.99 26.98 -5.98 28.96 -7 31 C-8.98 31 -10.96 31 -13 31 C-12.35972461 27.05525247 -11.14685536 23.7277242 -9.53125 20.078125 C-9.04269531 18.97082031 -8.55414062 17.86351562 -8.05078125 16.72265625 C-7.53902344 15.57667969 -7.02726563 14.43070313 -6.5 13.25 C-5.98824219 12.08855469 -5.47648438 10.92710937 -4.94921875 9.73046875 C-1.14229911 1.14229911 -1.14229911 1.14229911 0 0 Z " fill="#E6EAEA" transform="translate(997,610)" />
<path d="M0 0 C2.25390625 0.21484375 2.25390625 0.21484375 5 1 C7.02734375 3.00390625 7.02734375 3.00390625 8.9375 5.5625 C9.95650391 6.90634766 9.95650391 6.90634766 10.99609375 8.27734375 C11.65738281 9.17582031 12.31867187 10.07429687 13 11 C13.60972656 11.80566406 14.21945312 12.61132812 14.84765625 13.44140625 C16.24322043 15.28566246 17.62337876 17.14156133 19 19 C19.33 13.06 19.66 7.12 20 1 C21.65 1 23.3 1 25 1 C25 10.9 25 20.8 25 31 C19 30 19 30 17.12548828 28.32592773 C16.61228027 27.61895752 16.09907227 26.9119873 15.5703125 26.18359375 C15.003125 25.41982422 14.4359375 24.65605469 13.8515625 23.86914062 C13.28179688 23.06669922 12.71203125 22.26425781 12.125 21.4375 C11.53203125 20.63119141 10.9390625 19.82488281 10.328125 18.99414062 C8.86985558 17.00666052 7.42829396 15.00907424 6 13 C5.93941406 14.21558594 5.87882813 15.43117188 5.81640625 16.68359375 C5.73201668 18.26824228 5.6473679 19.85287702 5.5625 21.4375 C5.50352539 22.64116211 5.50352539 22.64116211 5.44335938 23.86914062 C5.33113805 25.91502162 5.16929172 27.95804922 5 30 C4.67 30.33 4.34 30.66 4 31 C2.33382885 31.04063832 0.66611905 31.042721 -1 31 C-1.02465622 26.74585377 -1.04283899 22.49174502 -1.05493164 18.23754883 C-1.05997101 16.78929927 -1.06680253 15.34105483 -1.07543945 13.89282227 C-1.08752247 11.81525412 -1.09323211 9.73775303 -1.09765625 7.66015625 C-1.10289307 6.40855713 -1.10812988 5.15695801 -1.11352539 3.86743164 C-1.07606201 2.9211792 -1.03859863 1.97492676 -1 1 C-0.67 0.67 -0.34 0.34 0 0 Z " fill="#E0E3E2" transform="translate(754,610)" />
<path d="M0 0 C2.21875 0.18359375 2.21875 0.18359375 5 1 C7.28125 3.22265625 7.28125 3.22265625 9.5 6.0625 C10.2321875 6.98160156 10.964375 7.90070312 11.71875 8.84765625 C14.32151675 12.4442877 16.64701048 16.23521676 19 20 C19.33 13.73 19.66 7.46 20 1 C21.65 1 23.3 1 25 1 C25 10.9 25 20.8 25 31 C23.02 30.67 21.04 30.34 19 30 C17.00420866 27.9048574 15.44365964 26.03117867 13.8125 23.6875 C13.38775391 23.10548828 12.96300781 22.52347656 12.52539062 21.92382812 C11.33712259 20.29203858 10.1679528 18.6463913 9 17 C8.01 15.68 7.02 14.36 6 13 C5.67 18.94 5.34 24.88 5 31 C3.02 31 1.04 31 -1 31 C-1.02465622 26.74585377 -1.04283899 22.49174502 -1.05493164 18.23754883 C-1.05997101 16.78929927 -1.06680253 15.34105483 -1.07543945 13.89282227 C-1.08752247 11.81525412 -1.09323211 9.73775303 -1.09765625 7.66015625 C-1.10289307 6.40855713 -1.10812988 5.15695801 -1.11352539 3.86743164 C-1.07606201 2.9211792 -1.03859863 1.97492676 -1 1 C-0.67 0.67 -0.34 0.34 0 0 Z " fill="#E2E5E6" transform="translate(519,610)" />
<path d="M0 0 C2.39386631 1.10449673 3.96051544 2.28253932 6 4 C5.67 5.65 5.34 7.3 5 9 C-0.75 8.125 -0.75 8.125 -3 7 C-5.9157691 6.58297878 -5.9157691 6.58297878 -9 7 C-11.54002013 8.37283423 -11.54002013 8.37283423 -13 11 C-13.60565975 14.69452447 -13.38871198 17.91715948 -12.125 21.4375 C-11.06925899 23.15893274 -11.06925899 23.15893274 -9 24 C-7.45976004 24.06950541 -5.91665012 24.08452357 -4.375 24.0625 C-3.55773437 24.05347656 -2.74046875 24.04445313 -1.8984375 24.03515625 C-1.27195312 24.02355469 -0.64546875 24.01195312 0 24 C0.66 22.35 1.32 20.7 2 19 C-0.31 19.33 -2.62 19.66 -5 20 C-5 18.02 -5 16.04 -5 14 C-1.04 14 2.92 14 7 14 C7.43543676 22.01203646 7.43543676 22.01203646 7 26 C4.39639615 29.02580988 2.73938948 29.75353684 -1 31 C-5.63522786 31.53856933 -9.07906346 31.45178019 -13.3125 29.375 C-17.0586516 26.06444743 -19.41844616 22.74466151 -21 18 C-21.38420435 13.92743386 -21.28049154 11.56098307 -19.4375 7.875 C-13.84359469 1.2770604 -8.86478123 -1.64486089 0 0 Z " fill="#DEE2E1" transform="translate(706,610)" />
<path d="M0 0 C2.25265762 0.38838924 3.71656707 0.76594225 5.49536133 2.23486328 C8.56296919 5.833566 9.93509085 10.53170842 11.6875 14.875 C12.10322266 15.86886719 12.51894531 16.86273437 12.94726562 17.88671875 C13.33978516 18.84964844 13.73230469 19.81257812 14.13671875 20.8046875 C14.67365356 22.11928955 14.67365356 22.11928955 15.22143555 23.46044922 C16.03454741 26.11268803 16.1475837 28.24324779 16 31 C14.35 31 12.7 31 11 31 C10.01 29.02 9.02 27.04 8 25 C4.04 25 0.08 25 -4 25 C-5.98 27.97 -5.98 27.97 -8 31 C-9.65 31 -11.3 31 -13 31 C-12.48058661 24.516288 -10.22077585 19.17264046 -7.625 13.25 C-7.22539062 12.30511719 -6.82578125 11.36023438 -6.4140625 10.38671875 C-3.12342879 2.77712828 -3.12342879 2.77712828 0 0 Z " fill="#E2E6E7" transform="translate(216,610)" />
<path d="M0 0 C1.65 0 3.3 0 5 0 C17.4074949 24.17137335 17.4074949 24.17137335 17 31 C15.02 31 13.04 31 11 31 C10.34 29.02 9.68 27.04 9 25 C2.07 24.505 2.07 24.505 -5 24 C-5.33 26.31 -5.66 28.62 -6 31 C-8.31 31 -10.62 31 -13 31 C-10.96159261 24.56200575 -8.57860627 18.33821474 -5.9375 12.125 C-5.58623047 11.28453125 -5.23496094 10.4440625 -4.87304688 9.578125 C-3.42320722 6.14674647 -2.07533936 3.11300904 0 0 Z " fill="#DEE3E2" transform="translate(1189,610)" />
<path d="M0 0 C1.8449707 0.28662109 1.8449707 0.28662109 4 1 C8.55608812 6.06936788 10.88990487 13.11394768 13.3125 19.375 C13.67150391 20.27605469 14.03050781 21.17710937 14.40039062 22.10546875 C17 28.71095238 17 28.71095238 17 31 C15.02 31 13.04 31 11 31 C8 26.25 8 26.25 8 24 C3.71 24 -0.58 24 -5 24 C-5.66 25.98 -6.32 27.96 -7 30 C-7.33 30.33 -7.66 30.66 -8 31 C-9.99958364 31.04080783 -12.00045254 31.04254356 -14 31 C-11.9258936 24.29974786 -9.33758632 17.94458229 -6.4375 11.5625 C-5.83905273 10.21768555 -5.83905273 10.21768555 -5.22851562 8.84570312 C-4.84244141 7.99041016 -4.45636719 7.13511719 -4.05859375 6.25390625 C-3.71111084 5.48377197 -3.36362793 4.7136377 -3.00561523 3.92016602 C-2 2 -2 2 0 0 Z " fill="#E6E9E7" transform="translate(355,610)" />
<path d="M0 0 C7.26 0 14.52 0 22 0 C22 1.98 22 3.96 22 6 C16.72 6 11.44 6 6 6 C6 8.31 6 10.62 6 13 C10.95 13 15.9 13 21 13 C21 14.65 21 16.3 21 18 C16.05 18 11.1 18 6 18 C6 20.31 6 22.62 6 25 C11.28 25 16.56 25 22 25 C22 26.98 22 28.96 22 31 C18.52085059 31.02887814 15.04173169 31.04675687 11.5625 31.0625 C10.07266602 31.07506836 10.07266602 31.07506836 8.55273438 31.08789062 C7.60849609 31.09111328 6.66425781 31.09433594 5.69140625 31.09765625 C4.37958374 31.10551147 4.37958374 31.10551147 3.04125977 31.11352539 C2.36764404 31.07606201 1.69402832 31.03859863 1 31 C0.67 30.67 0.34 30.34 0 30 C-0.08783542 27.78144736 -0.10694609 25.56011504 -0.09765625 23.33984375 C-0.0962413 22.67537735 -0.09482635 22.01091095 -0.09336853 21.3263092 C-0.08775518 19.19666101 -0.07520054 17.06711661 -0.0625 14.9375 C-0.05748671 13.49674631 -0.05292351 12.05599097 -0.04882812 10.61523438 C-0.03863076 7.07675042 -0.0190583 3.53849187 0 0 Z " fill="#D3D6D4" transform="translate(722,610)" />
<path d="M0 0 C7.26 0 14.52 0 22 0 C22 1.65 22 3.3 22 5 C16.39 5 10.78 5 5 5 C5 7.31 5 9.62 5 12 C9.95 12 14.9 12 20 12 C20.33 13.65 20.66 15.3 21 17 C16.05 17 11.1 17 6 17 C6 19.31 6 21.62 6 24 C11.61 24 17.22 24 23 24 C23 25.65 23 27.3 23 29 C22.67 29.33 22.34 29.66 22 30 C20.36527118 30.08700342 18.72685945 30.10701063 17.08984375 30.09765625 C16.199021 30.09515869 15.30819824 30.09266113 14.39038086 30.09008789 C13.25093018 30.08098389 12.11147949 30.07187988 10.9375 30.0625 C7.328125 30.041875 3.71875 30.02125 0 30 C0 20.1 0 10.2 0 0 Z " fill="#EBEDEC" transform="translate(584,611)" />
<path d="M0 0 C6.93 0 13.86 0 21 0 C21 1.65 21 3.3 21 5 C16.05 5 11.1 5 6 5 C6 7.31 6 9.62 6 12 C10.62 12 15.24 12 20 12 C20 13.65 20 15.3 20 17 C15.38 17 10.76 17 6 17 C6 19.31 6 21.62 6 24 C11.28 24 16.56 24 22 24 C22 25.98 22 27.96 22 30 C14.74 30 7.48 30 0 30 C0 20.1 0 10.2 0 0 Z " fill="#EAECE9" transform="translate(823,611)" />
<path d="M0 0 C6.93 0 13.86 0 21 0 C21 1.65 21 3.3 21 5 C15.72 5 10.44 5 5 5 C5 7.31 5 9.62 5 12 C9.95 12 14.9 12 20 12 C20.33 13.32 20.66 14.64 21 16 C20.67 16.33 20.34 16.66 20 17 C17.46950598 17.07313567 14.96695163 17.09247527 12.4375 17.0625 C11.72658203 17.05798828 11.01566406 17.05347656 10.28320312 17.04882812 C8.52209987 17.03700864 6.76103964 17.01907263 5 17 C5 19.31 5 21.62 5 24 C10.28 24 15.56 24 21 24 C21 25.98 21 27.96 21 30 C14.07 30 7.14 30 0 30 C0 20.1 0 10.2 0 0 Z " fill="#EBEBE6" transform="translate(456,611)" />
<path d="M0 0 C3.5 1.75 3.5 1.75 6 4 C6.875 6.25 6.875 6.25 7 8 C4.6875 8.625 4.6875 8.625 2 9 C1.01 8.34 0.02 7.68 -1 7 C-4.45786015 6.49992206 -4.45786015 6.49992206 -8 7 C-10.60314994 8.3530128 -10.60314994 8.3530128 -12 11 C-12.50971845 15.58746602 -12.55875722 17.88248556 -10.5 22 C-10.005 22.66 -9.51 23.32 -9 24 C-3.54230189 24.11138159 1.61509359 23.91657981 7 23 C6.58971511 25.37965237 6.16480145 26.79774368 4.625 28.6875 C2.47467576 30.42430035 0.48371548 30.94080405 -2.234375 31.2734375 C-5.75502658 31.41557561 -8.81254397 31.49128515 -12.10546875 30.12890625 C-15.37163133 28.00485596 -16.94842259 26.08818073 -18.9375 22.6875 C-20.10434828 18.63785008 -20.83495209 15.14325285 -20 11 C-18.19714781 6.70089094 -16.02335331 3.74425695 -12.25 1 C-8.03239318 -0.29772518 -4.37025481 -0.71016641 0 0 Z " fill="#DDE2E0" transform="translate(807,610)" />
<path d="M0 0 C2.78833934 1.13889917 5.39811744 2.48617742 8 4 C8 5.65 8 7.3 8 9 C5.6618385 8.70241581 3.32817964 8.36760731 1 8 C0.67 7.67 0.34 7.34 0 7 C-3.59937812 6.59097976 -5.61382974 6.80691487 -8.875 8.4375 C-11.12481045 10.73361915 -11.12481045 10.73361915 -11.4140625 13.12890625 C-11.53957685 16.5919614 -11.26311423 19.3257698 -10 22.5625 C-7.8733558 24.345825 -7.8733558 24.345825 -4.0625 24.375 C-0.87680424 24.22357753 1.21579101 23.59097656 4 22 C5.32 22 6.64 22 8 22 C8 23.98 8 25.96 8 28 C3.22997309 31.09407151 -0.83605891 31.52074816 -6.375 31.34765625 C-9 31 -9 31 -12.5 29.375 C-15.43990612 26.58208919 -16.73220719 24.87381138 -18 21 C-18.63702291 15.72293366 -18.65616036 11.44355278 -16.4375 6.5625 C-11.61604794 1.49379399 -7.1819031 -1.0079864 0 0 Z " fill="#DEE1DF" transform="translate(93,610)" />
<path d="M0 0 C2.43635196 1.44283958 3.99779921 2.94646073 6 5 C5.67 6.32 5.34 7.64 5 9 C0.25 8.125 0.25 8.125 -2 7 C-5.41600593 6.58307147 -5.41600593 6.58307147 -9 7 C-11.60314994 8.3530128 -11.60314994 8.3530128 -13 11 C-13.50971845 15.58746602 -13.55875722 17.88248556 -11.5 22 C-11.005 22.66 -10.51 23.32 -10 24 C-4.54230189 24.11138159 0.61509359 23.91657981 6 23 C6 24.65 6 26.3 6 28 C1.27625707 30.41212405 -2.52644617 31.55109385 -7.859375 31.3515625 C-11.31635675 30.78381002 -13.37818559 29.25597984 -16 27 C-16.78375 26.34 -17.5675 25.68 -18.375 25 C-20.59543324 20.90073864 -20.55419277 17.48724529 -20.37890625 12.87890625 C-20 10 -20 10 -18.4375 6.5 C-13.12138468 1.04757403 -7.63512891 -1.67364239 0 0 Z " fill="#DEE3E2" transform="translate(1120,610)" />
<path d="M0 0 C73.26 0.495 73.26 0.495 148 1 C147.34 1.66 146.68 2.32 146 3 C143.80102539 3.31884766 143.80102539 3.31884766 141.09765625 3.4140625 C140.12505859 3.45273437 139.15246094 3.49140625 138.15039062 3.53125 C136.62188477 3.57765625 136.62188477 3.57765625 135.0625 3.625 C133.53979492 3.68300781 133.53979492 3.68300781 131.98632812 3.7421875 C109.69323584 4.56840402 87.30698256 4 65 4 C63.16561872 4.15470685 61.33233337 4.32267742 59.5 4.5 C52.67483043 5.16050028 45.85233984 5 39 5 C38.195625 5.020625 37.39125 5.04125 36.5625 5.0625 C34 5 34 5 32.31640625 4.50390625 C29.01242939 3.78516592 25.73845222 3.85566981 22.375 3.875 C21.3540625 3.86919922 21.3540625 3.86919922 20.3125 3.86328125 C16.53042368 3.81594889 16.53042368 3.81594889 13 5 C13 4.34 13 3.68 13 3 C12.01 3.309375 12.01 3.309375 11 3.625 C6.90369892 4.13703763 3.95764021 3.14033701 0 2 C0 1.34 0 0.68 0 0 Z " fill="#2D248D" transform="translate(183,275)" />
<path d="M0 0 C1.98 0 3.96 0 6 0 C5.02987447 5.44045427 3.09888773 10.35657213 1.125 15.5 C0.59712891 16.90572266 0.59712891 16.90572266 0.05859375 18.33984375 C-1.64533306 22.80552555 -3.31332628 27.01223271 -6 31 C-7.65 31 -9.3 31 -11 31 C-13.85540135 24.77796415 -16.40026523 18.49149534 -18.75 12.0625 C-19.06582031 11.21365234 -19.38164062 10.36480469 -19.70703125 9.49023438 C-20.00480469 8.68005859 -20.30257813 7.86988281 -20.609375 7.03515625 C-20.87717773 6.3069165 -21.14498047 5.57867676 -21.42089844 4.82836914 C-22 3 -22 3 -22 1 C-20.02 1 -18.04 1 -16 1 C-13.69 6.94 -11.38 12.88 -9 19 C-6.9654959 16.9654959 -6.32946725 15.70645577 -5.2734375 13.0859375 C-4.809375 11.94511719 -4.809375 11.94511719 -4.3359375 10.78125 C-4.01882813 9.9871875 -3.70171875 9.193125 -3.375 8.375 C-3.05015625 7.57320312 -2.7253125 6.77140625 -2.390625 5.9453125 C-1.58921947 3.96536943 -0.79401638 1.9829179 0 0 Z " fill="#E3E4E3" transform="translate(442,610)" />
<path d="M0 0 C12.43048807 -0.02316504 24.860971 -0.04093636 37.29147625 -0.05181217 C43.0633845 -0.05703187 48.83527798 -0.064113 54.60717773 -0.07543945 C60.17683368 -0.0863007 65.74647541 -0.09228373 71.31614113 -0.09487724 C73.44161007 -0.09672564 75.56707823 -0.10033504 77.69254112 -0.10573006 C80.66833556 -0.11298339 83.6440712 -0.11398912 86.61987305 -0.11352539 C87.93941483 -0.1189183 87.93941483 -0.1189183 89.28561401 -0.12442017 C93.32473908 -0.11760428 97.05908375 -0.01502498 101 1 C99.75033092 2.47745228 99.75033092 2.47745228 98 4 C96.13158894 4.36914349 96.13158894 4.36914349 93.9947052 4.36076355 C93.18282242 4.36488754 92.37093964 4.36901154 91.53445435 4.3732605 C90.64756927 4.36247467 89.7606842 4.35168884 88.84692383 4.34057617 C87.91014297 4.34101425 86.97336212 4.34145233 86.00819397 4.34190369 C82.90759538 4.33981139 79.80753554 4.31645931 76.70703125 4.29296875 C74.55897823 4.28737437 72.41092138 4.28310353 70.26286316 4.28010559 C64.60581924 4.26864441 58.94900594 4.23916613 53.29205322 4.20599365 C47.52090576 4.17532029 41.74972108 4.1616061 35.97851562 4.14648438 C24.65224236 4.11429777 13.32614035 4.06308592 2 4 C2 3.67 2 3.34 2 3 C11.24 2.67 20.48 2.34 30 2 C15.15 1.505 15.15 1.505 0 1 C0 0.67 0 0.34 0 0 Z " fill="#308C8E" transform="translate(856,519)" />
<path d="M0 0 C2.5 -0.125 2.5 -0.125 5 0 C5.33 0.33 5.66 0.66 6 1 C6.08726223 2.78071246 6.10699041 4.5648314 6.09765625 6.34765625 C6.09282227 7.96704102 6.09282227 7.96704102 6.08789062 9.61914062 C6.07951172 10.75544922 6.07113281 11.89175781 6.0625 13.0625 C6.05798828 14.20267578 6.05347656 15.34285156 6.04882812 16.51757812 C6.0369976 19.34507418 6.0190615 22.17254345 6 25 C10.95 25 15.9 25 21 25 C21 26.98 21 28.96 21 31 C17.52085059 31.02887814 14.04173169 31.04675687 10.5625 31.0625 C9.07266602 31.07506836 9.07266602 31.07506836 7.55273438 31.08789062 C6.60849609 31.09111328 5.66425781 31.09433594 4.69140625 31.09765625 C3.37958374 31.10551147 3.37958374 31.10551147 2.04125977 31.11352539 C1.36764404 31.07606201 0.69402832 31.03859863 0 31 C-0.33 30.67 -0.66 30.34 -1 30 C-1.10003289 27.86646826 -1.13081048 25.72962458 -1.1328125 23.59375 C-1.13410156 22.29308594 -1.13539063 20.99242187 -1.13671875 19.65234375 C-1.13462402 18.97155762 -1.1325293 18.29077148 -1.13037109 17.58935547 C-1.1250224 15.50871485 -1.1303168 13.42829011 -1.13671875 11.34765625 C-1.13542969 10.04699219 -1.13414062 8.74632812 -1.1328125 7.40625 C-1.13168457 6.20291016 -1.13055664 4.99957031 -1.12939453 3.75976562 C-1.08669434 2.84904297 -1.04399414 1.93832031 -1 1 C-0.67 0.67 -0.34 0.34 0 0 Z " fill="#D2D4D3" transform="translate(643,610)" />
<path d="M0 0 C8.25 0 16.5 0 25 0 C25 1.98 25 3.96 25 6 C22.03 6 19.06 6 16 6 C16 13.92 16 21.84 16 30 C14.02 30 12.04 30 10 30 C10 22.08 10 14.16 10 6 C6.7 6 3.4 6 0 6 C0 4.02 0 2.04 0 0 Z " fill="#DDDEDB" transform="translate(1208,610)" />
<path d="M0 0 C2.09375 0.66796875 2.09375 0.66796875 4.65625 2.79296875 C6.46837469 6.41721812 6.59503322 8.65770299 6.09375 12.66796875 C4.71875 15.54296875 4.71875 15.54296875 3.09375 17.66796875 C-0.38035101 19.40501926 -4.10809448 19.11322322 -7.90625 18.66796875 C-10.46875 17.35546875 -10.46875 17.35546875 -11.90625 14.66796875 C-12.50277202 10.888084 -12.54704114 7.44405941 -11.90625 3.66796875 C-8.70295833 -0.87863878 -5.13310325 -0.86407238 0 0 Z " fill="#0B0D14" transform="translate(1273.90625,616.33203125)" />
<path d="M0 0 C3.0926073 0.39360457 4.91992026 0.66586981 7.4375 2.4375 C9.45221597 5.45957395 9.77469034 6.35476699 9.875 9.8125 C9.77639167 13.36820046 9.4679455 14.39088032 7.4375 17.5 C4.62693588 19.31515599 3.61198661 19.82802088 0.4375 20.0625 C-2.73698661 19.82802088 -3.75193588 19.31515599 -6.5625 17.5 C-8.5259238 14.49350731 -8.96923645 13.37802287 -9.1875 9.9375 C-8.97235157 6.4544213 -8.53516053 5.39690502 -6.5 2.375 C-3.5625 0.4375 -3.5625 0.4375 0 0 Z " fill="#0B0E14" transform="translate(286.5625,615.5625)" />
<path d="M0 0 C1.98 0 3.96 0 6 0 C6 8.25 6 16.5 6 25 C11.28 25 16.56 25 22 25 C22 26.98 22 28.96 22 31 C14.74 31 7.48 31 0 31 C0 20.77 0 10.54 0 0 Z " fill="#E0E2E2" transform="translate(614,610)" />
<path d="M0 0 C1.98 0 3.96 0 6 0 C6 8.25 6 16.5 6 25 C11.28 25 16.56 25 22 25 C22 26.98 22 28.96 22 31 C14.74 31 7.48 31 0 31 C0 20.77 0 10.54 0 0 Z " fill="#D8D9D8" transform="translate(147,610)" />
<path d="M0 0 C3.5 0.5625 3.5 0.5625 6.4375 1.9375 C8.5 4.5625 8.5 4.5625 8.98046875 6.87890625 C9.12955713 9.58264412 9.02365443 11.90559763 8.5 14.5625 C6.5 17.6875 6.5 17.6875 3.5 19.5625 C0.4184071 20.2947597 -1.22733257 20.08197102 -4.5 19.5625 C-7 17.625 -7 17.625 -8.5 14.5625 C-9.09594152 11.42387464 -9.14595326 8.69593993 -8.5 5.5625 C-5.9294215 1.74558041 -4.54854071 0.73101547 0 0 Z " fill="#0C0F1D" transform="translate(123.5,615.4375)" />
<path d="M0 0 C1.65 0 3.3 0 5 0 C5.33 0.33 5.66 0.66 6 1 C6.08726223 2.78071246 6.10699041 4.5648314 6.09765625 6.34765625 C6.09282227 7.96704102 6.09282227 7.96704102 6.08789062 9.61914062 C6.07951172 10.75544922 6.07113281 11.89175781 6.0625 13.0625 C6.05798828 14.20267578 6.05347656 15.34285156 6.04882812 16.51757812 C6.0369976 19.34507418 6.0190615 22.17254345 6 25 C10.95 25 15.9 25 21 25 C21 26.98 21 28.96 21 31 C14.07 31 7.14 31 0 31 C0 20.77 0 10.54 0 0 Z " fill="#DADBDA" transform="translate(176,610)" />
<path d="M0 0 C8.25 0 16.5 0 25 0 C25 1.65 25 3.3 25 5 C22.03 5 19.06 5 16 5 C16 12.92 16 20.84 16 29 C14.02 29 12.04 29 10 29 C10 21.08 10 13.16 10 5 C6.7 5 3.4 5 0 5 C0 3.35 0 1.7 0 0 Z " fill="#E5E7E5" transform="translate(1052,611)" />
<path d="M0 0 C7.92 0 15.84 0 24 0 C24 1.65 24 3.3 24 5 C21.03 5 18.06 5 15 5 C15.00523682 5.72179443 15.01047363 6.44358887 15.01586914 7.18725586 C15.03657358 10.43732849 15.04963918 13.68738728 15.0625 16.9375 C15.07087891 18.07380859 15.07925781 19.21011719 15.08789062 20.38085938 C15.09111328 21.46044922 15.09433594 22.54003906 15.09765625 23.65234375 C15.10289307 24.65257568 15.10812988 25.65280762 15.11352539 26.68334961 C15.07606201 27.44784424 15.03859863 28.21233887 15 29 C14.67 29.33 14.34 29.66 14 30 C12.35 30 10.7 30 9 30 C9 21.75 9 13.5 9 5 C6.03 5 3.06 5 0 5 C0 3.35 0 1.7 0 0 Z " fill="#E5E5DE" transform="translate(374,611)" />
<path d="M0 0 C7.92 0 15.84 0 24 0 C24 1.65 24 3.3 24 5 C21.03 5 18.06 5 15 5 C15 12.92 15 20.84 15 29 C13.02 29 11.04 29 9 29 C9 21.08 9 13.16 9 5 C6.03 5 3.06 5 0 5 C0 3.35 0 1.7 0 0 Z " fill="#F0F1ED" transform="translate(552,611)" />
<path d="M0 0 C19.92864776 -0.08719601 39.84558538 0.15295247 59.77105713 0.46356201 C63.76141217 0.52533093 67.75180127 0.58481789 71.7421875 0.64453125 C79.49482551 0.76086325 87.24742394 0.87960245 95 1 C95 1.33 95 1.66 95 2 C75.10865943 4.68725649 54.91969975 4.13085617 34.89007568 4.06866455 C31.16825952 4.05824796 27.44643605 4.05382856 23.72460938 4.04882812 C16.48305367 4.03825324 9.24153299 4.02129422 2 4 C2.66 3.34 3.32 2.68 4 2 C2.68 1.34 1.36 0.68 0 0 Z " fill="#33956E" transform="translate(952,519)" />
<path d="M0 0 C1.09771477 -0.00021904 1.09771477 -0.00021904 2.21760559 -0.0004425 C4.64168235 0.00025536 7.06568272 0.00804185 9.48974609 0.01586914 C11.16840574 0.01773377 12.84706593 0.01915746 14.52572632 0.02015686 C18.94805397 0.02397851 23.37034888 0.0338058 27.79266357 0.04486084 C32.30366574 0.05508253 36.81467319 0.05965611 41.32568359 0.06469727 C50.17986466 0.07542837 59.03402141 0.09250058 67.88818359 0.11352539 C67.88818359 1.10352539 67.88818359 2.09352539 67.88818359 3.11352539 C36.86818359 3.11352539 5.84818359 3.11352539 -26.11181641 3.11352539 C-26.11181641 2.78352539 -26.11181641 2.45352539 -26.11181641 2.11352539 C-24.30583984 2.02264648 -24.30583984 2.02264648 -22.46337891 1.92993164 C-20.88784564 1.84552807 -19.31232545 1.76087998 -17.73681641 1.67602539 C-16.94275391 1.63670898 -16.14869141 1.59739258 -15.33056641 1.55688477 C-9.99535314 1.2629959 -5.37678892 -0.02784992 0 0 Z " fill="#28854C" transform="translate(1256.11181640625,519.886474609375)" />
<path d="M0 0 C0.33 0.99 0.66 1.98 1 3 C1.77077881 2.98952637 2.54155762 2.97905273 3.33569336 2.96826172 C6.86959498 2.92637137 10.4034441 2.9005694 13.9375 2.875 C15.14986328 2.85824219 16.36222656 2.84148437 17.61132812 2.82421875 C18.80048828 2.81777344 19.98964844 2.81132812 21.21484375 2.8046875 C22.29886475 2.79421387 23.38288574 2.78374023 24.49975586 2.77294922 C27.27527959 2.95298947 29.3569618 3.30702629 31.99853516 3.99780273 C38.52653849 5.53949738 45.13989138 5.26777856 51.80859375 5.23046875 C53.22583474 5.22927437 54.64307653 5.22882433 56.06031799 5.2290802 C59.01121061 5.22752574 61.96198011 5.21931069 64.9128418 5.20581055 C68.69804608 5.18871258 72.48311698 5.18499989 76.26835537 5.18575573 C79.18593115 5.18548434 82.1034777 5.18000997 85.02104378 5.17275429 C86.417723 5.16957157 87.81440553 5.16760114 89.21108818 5.16686058 C91.15432808 5.16469902 93.09755561 5.15516476 95.04077148 5.14526367 C96.14613754 5.14145187 97.2515036 5.13764008 98.3903656 5.13371277 C100.9826581 5.17569552 100.9826581 5.17569552 103 4 C113.12777282 3.49849732 123.27587931 4.29154003 133.375 5 C134.80465854 5.09678288 136.23434604 5.19313903 137.6640625 5.2890625 C141.10972106 5.521149 144.55495773 5.75891757 148 6 C148 6.33 148 6.66 148 7 C133.86332711 7.02359295 119.72665737 7.04103952 105.58996868 7.05181217 C99.02278133 7.05698756 92.45560738 7.06398561 85.88842773 7.07543945 C79.52764063 7.08646142 73.16686626 7.09231684 66.80607033 7.09487724 C64.40292982 7.09669728 61.99978984 7.10024924 59.59665489 7.10573006 C46.86461647 7.13356105 34.15376501 7.01309888 21.42895508 6.55639648 C19.77996357 6.49811346 19.77996357 6.49811346 18.09765911 6.43865299 C11.70052674 6.18493765 5.36133266 5.72383686 -1 5 C-0.67 3.35 -0.34 1.7 0 0 Z " fill="#25583D" transform="translate(233,221)" />
<path d="M0 0 C1.99958364 -0.04080783 4.00045254 -0.04254356 6 0 C6.02465392 4.53897705 6.04283789 9.07791543 6.05493164 13.61694336 C6.0599714 15.16219766 6.0668032 16.70744716 6.07543945 18.25268555 C6.08752076 20.46925029 6.09323173 22.68575218 6.09765625 24.90234375 C6.10281754 25.5971434 6.10797882 26.29194305 6.11329651 27.00779724 C6.11349277 28.6722933 6.06189129 30.33665499 6 32 C5.505 32.495 5.505 32.495 5 33 C2.5 33.125 2.5 33.125 0 33 C-0.33 32.67 -0.66 32.34 -1 32 C-1.1002093 29.72052208 -1.13081303 27.43792865 -1.1328125 25.15625 C-1.13376923 24.47195923 -1.13472595 23.78766846 -1.13571167 23.0826416 C-1.1363933 21.63338123 -1.13454023 20.18411782 -1.13037109 18.73486328 C-1.12502252 16.50937072 -1.1303166 14.28407999 -1.13671875 12.05859375 C-1.13605797 10.65364539 -1.1347768 9.24869715 -1.1328125 7.84375 C-1.13168457 6.55662109 -1.13055664 5.26949219 -1.12939453 3.94335938 C-1.08669434 2.97205078 -1.04399414 2.00074219 -1 1 C-0.67 0.67 -0.34 0.34 0 0 Z " fill="#5A43C7" transform="translate(701,529)" />
<path d="M0 0 C1.99958364 -0.04080783 4.00045254 -0.04254356 6 0 C6.02465392 4.53897705 6.04283789 9.07791543 6.05493164 13.61694336 C6.0599714 15.16219766 6.0668032 16.70744716 6.07543945 18.25268555 C6.08752076 20.46925029 6.09323173 22.68575218 6.09765625 24.90234375 C6.10281754 25.5971434 6.10797882 26.29194305 6.11329651 27.00779724 C6.11349277 28.6722933 6.06189129 30.33665499 6 32 C5.505 32.495 5.505 32.495 5 33 C2.5 33.125 2.5 33.125 0 33 C-0.33 32.67 -0.66 32.34 -1 32 C-1.1002093 29.72052208 -1.13081303 27.43792865 -1.1328125 25.15625 C-1.13376923 24.47195923 -1.13472595 23.78766846 -1.13571167 23.0826416 C-1.1363933 21.63338123 -1.13454023 20.18411782 -1.13037109 18.73486328 C-1.12502252 16.50937072 -1.1303166 14.28407999 -1.13671875 12.05859375 C-1.13605797 10.65364539 -1.1347768 9.24869715 -1.1328125 7.84375 C-1.13168457 6.55662109 -1.13055664 5.26949219 -1.12939453 3.94335938 C-1.08669434 2.97205078 -1.04399414 2.00074219 -1 1 C-0.67 0.67 -0.34 0.34 0 0 Z " fill="#3D3DB9" transform="translate(701,463)" />
<path d="M0 0 C0.6708712 1.6232687 1.33657029 3.24867578 2 4.875 C2.37125 5.77992188 2.7425 6.68484375 3.125 7.6171875 C4 10 4 10 4 12 C1.69 12.33 -0.62 12.66 -3 13 C-3.33 13.66 -3.66 14.32 -4 15 C-0.7 15.33 2.6 15.66 6 16 C6 16.33 6 16.66 6 17 C1.71 17 -2.58 17 -7 17 C-7.66 18.98 -8.32 20.96 -9 23 C-9.33 23.33 -9.66 23.66 -10 24 C-11.99958364 24.04080783 -14.00045254 24.04254356 -16 24 C-14.25885504 18.38964401 -12.24533894 12.92797151 -10 7.5 C-9.505 6.2934375 -9.01 5.086875 -8.5 3.84375 C-8.005 2.9053125 -7.51 1.966875 -7 1 C-4 0 -4 0 0 0 Z " fill="#D3D9D8" transform="translate(357,617)" />
<path d="M0 0 C9.24 0 18.48 0 28 0 C28 1.98 28 3.96 28 6 C25.33821779 7.3308911 23.31260604 7.11268993 20.3359375 7.09765625 C19.21445312 7.09443359 18.09296875 7.09121094 16.9375 7.08789062 C15.761875 7.07951172 14.58625 7.07113281 13.375 7.0625 C12.19164062 7.05798828 11.00828125 7.05347656 9.7890625 7.04882812 C6.85932493 7.03701467 3.92968728 7.02054258 1 7 C0.67 4.69 0.34 2.38 0 0 Z " fill="#4C41BA" transform="translate(721,511)" />
<path d="M0 0 C1.65 0 3.3 0 5 0 C5.33 0.33 5.66 0.66 6 1 C6.08783542 3.21855264 6.10694609 5.43988496 6.09765625 7.66015625 C6.0962413 8.32462265 6.09482635 8.98908905 6.09336853 9.6736908 C6.08775518 11.80333899 6.07520054 13.93288339 6.0625 16.0625 C6.05748671 17.50325369 6.05292351 18.94400903 6.04882812 20.38476562 C6.03778145 23.92321102 6.02050792 27.46159539 6 31 C4.02 31 2.04 31 0 31 C0 20.77 0 10.54 0 0 Z " fill="#D4D7D7" transform="translate(1135,610)" />
<path d="M0 0 C1.98 0 3.96 0 6 0 C6 9.9 6 19.8 6 30 C4.02 30 2.04 30 0 30 C0 20.1 0 10.2 0 0 Z " fill="#D2D6D4" transform="translate(1241,611)" />
<path d="M0 0 C1.98 0 3.96 0 6 0 C6 9.9 6 19.8 6 30 C4.02 30 2.04 30 0 30 C0 20.1 0 10.2 0 0 Z " fill="#D9DCDB" transform="translate(1085,611)" />
<path d="M0 0 C1.98 0 3.96 0 6 0 C6 9.9 6 19.8 6 30 C4.02 30 2.04 30 0 30 C0 20.1 0 10.2 0 0 Z " fill="#E6E5E2" transform="translate(503,611)" />
<path d="M0 0 C2.475 0.495 2.475 0.495 5 1 C5.33 2.65 5.66 4.3 6 6 C3.5706914 8.48730862 1.13022506 10.96337167 -1.3125 13.4375 C-2.34793945 14.49807617 -2.34793945 14.49807617 -3.40429688 15.58007812 C-4.07138672 16.25361328 -4.73847656 16.92714844 -5.42578125 17.62109375 C-6.03848877 18.2442749 -6.65119629 18.86745605 -7.2824707 19.50952148 C-9 21 -9 21 -12 22 C-13.32 20.68 -14.64 19.36 -16 18 C-15.5153125 17.53851562 -15.030625 17.07703125 -14.53125 16.6015625 C-9.20121803 11.41503139 -4.53660988 5.88794049 0 0 Z " fill="#593BC8" transform="translate(686,525)" />
<path d="M0 0 C1.98 0 3.96 0 6 0 C6 9.57 6 19.14 6 29 C4.02 29 2.04 29 0 29 C0 19.43 0 9.86 0 0 Z " fill="#E7E9E6" transform="translate(671,611)" />
<path d="M0 0 C1.98 0 3.96 0 6 0 C6 9.57 6 19.14 6 29 C4.02 29 2.04 29 0 29 C0 19.43 0 9.86 0 0 Z " fill="#E0E1DF" transform="translate(406,611)" />
<path d="M0 0 C9.24 0 18.48 0 28 0 C28 1.98 28 3.96 28 6 C18.76 6 9.52 6 0 6 C0 4.02 0 2.04 0 0 Z " fill="#5C32C4" transform="translate(659,511)" />
<path d="M0 0 C4.9118759 0.89379599 7.33251139 3.81748946 10.75 7.25 C11.35199219 7.82363281 11.95398438 8.39726562 12.57421875 8.98828125 C14.19283028 10.59955214 15.6718799 12.14153076 17 14 C17.390625 16.921875 17.390625 16.921875 17 19 C15.35 19.33 13.7 19.66 12 20 C7.05 15.05 2.1 10.1 -3 5 C-1 1 -1 1 0 0 Z " fill="#5234C4" transform="translate(673,480)" />
<path d="M0 0 C1.99958364 -0.04080783 4.00045254 -0.04254356 6 0 C6.495 0.825 6.99 1.65 7.5 2.5 C10.39487479 6.8842669 14.22050282 10.38562648 18 14 C17.67 15.32 17.34 16.64 17 18 C15.68 18.33 14.36 18.66 13 19 C7.77674023 14.53648711 2.79077028 9.9255107 -2 5 C-1.125 1.125 -1.125 1.125 0 0 Z " fill="#5B44CB" transform="translate(719,527)" />
<path d="M0 0 C0.66 0 1.32 0 2 0 C2.66 0.99 3.32 1.98 4 3 C3.81318261 5.80226092 2.89779399 7.14235837 1.25 9.4375 C-1.06869926 12.07824082 -3.48477595 14.54612288 -6 17 C-6.928125 17.928125 -7.85625 18.85625 -8.8125 19.8125 C-9.534375 20.534375 -10.25625 21.25625 -11 22 C-12.9375 21.25 -12.9375 21.25 -15 20 C-15.62890625 17.921875 -15.62890625 17.921875 -16 16 C-15.43152344 15.5153125 -14.86304688 15.030625 -14.27734375 14.53125 C-9.57553988 10.44955048 -5.34126588 6.30131976 -1.41015625 1.46875 C-0.94480469 0.9840625 -0.47945312 0.499375 0 0 Z " fill="#553EC8" transform="translate(733,479)" />
<path d="M0 0 C17.16 0 34.32 0 52 0 C52 1.32 52 2.64 52 4 C42.53010087 4.14064207 33.08870686 3.91436775 23.625 3.5625 C22.52043457 3.52326416 21.41586914 3.48402832 20.27783203 3.44360352 C14.14638016 3.20280098 8.0690553 2.93322541 2 2 C1.34 1.34 0.68 0.68 0 0 Z " fill="#3078C2" transform="translate(570,519)" />
<path d="M0 0 C4.455 0.99 4.455 0.99 9 2 C9 7.28 9 12.56 9 18 C7.35 18 5.7 18 4 18 C3.34 13.71 2.68 9.42 2 5 C0.68 6.65 -0.64 8.3 -2 10 C-4.25 10.8125 -4.25 10.8125 -6 11 C-5.77069155 8.40117089 -5.3383174 6.47834944 -3.8203125 4.33203125 C-2.58123129 2.85843467 -1.29345037 1.42611195 0 0 Z " fill="#196C46" transform="translate(898,629)" />
<path d="M0 0 C17.16 0 34.32 0 52 0 C51.34 0.66 50.68 1.32 50 2 C47.48096064 2.31810909 45.06501248 2.51387149 42.53515625 2.62109375 C41.78162369 2.65883408 41.02809113 2.6965744 40.25172424 2.73545837 C31.64864711 3.12704396 23.04723381 3.11038707 14.4375 3.0625 C12.82877747 3.05746411 11.22005337 3.05290498 9.61132812 3.04882812 C5.74084539 3.03801281 1.87044104 3.02086924 -2 3 C-1.34 2.01 -0.68 1.02 0 0 Z " fill="#2D8E54" transform="translate(1197,520)" />
<path d="M0 0 C1.98 0.66 3.96 1.32 6 2 C6 2.66 6 3.32 6 4 C6.71285156 4.26941406 7.42570313 4.53882813 8.16015625 4.81640625 C11.04408791 6.01837502 13.69530086 7.44279229 16.4375 8.9375 C30.28156436 15.79249071 46.91564094 16.97831928 62.14111328 14.67626953 C64.7524209 14.1279976 67.2654544 13.41120354 69.79296875 12.55859375 C72.2616027 11.93378905 73.62112351 12.17422908 76 13 C64.44418775 19.20067974 48.85530327 18.90830549 36 18 C22.58716404 16.26217673 10.61235598 9.0448505 0 1 C0 0.67 0 0.34 0 0 Z " fill="#A4A5A4" transform="translate(785,330)" />
<path d="M0 0 C21.45 0 42.9 0 65 0 C64.34 0.99 63.68 1.98 63 3 C52.11 3 41.22 3 30 3 C30 2.67 30 2.34 30 2 C15.15 1.505 15.15 1.505 0 1 C0 0.67 0 0.34 0 0 Z " fill="#33909F" transform="translate(856,519)" />
<path d="M0 0 C1.60332791 -0.08121924 3.20784026 -0.13929134 4.8125 -0.1875 C6.15248047 -0.23970703 6.15248047 -0.23970703 7.51953125 -0.29296875 C10 0 10 0 11.82421875 1.51171875 C12.40623047 2.24841797 12.40623047 2.24841797 13 3 C12.625 5.4375 12.625 5.4375 12 8 C9.47524538 9.26237731 7.68799534 9.09856404 4.875 9.0625 C3.96492188 9.05347656 3.05484375 9.04445313 2.1171875 9.03515625 C1.41851562 9.02355469 0.71984375 9.01195312 0 9 C0 6.03 0 3.06 0 0 Z " fill="#1E1D22" transform="translate(316,616)" />
<path d="M0 0 C0.6484375 1.55078125 0.6484375 1.55078125 1 4 C0.30071315 6.4873008 -0.45174802 8.78851814 -1.375 11.1875 C-1.60960937 11.82880859 -1.84421875 12.47011719 -2.0859375 13.13085938 C-3.83415179 17.83415179 -3.83415179 17.83415179 -5 19 C-6.43335784 25.90617868 -6.11036618 32.91589954 -6.0625 39.9375 C-6.05798828 41.19369141 -6.05347656 42.44988281 -6.04882812 43.74414062 C-6.03709681 46.82947663 -6.020681 49.91471316 -6 53 C-6.33 53 -6.66 53 -7 53 C-10.92446643 39.15359628 -9.93901471 25.82963226 -5.3984375 12.26831055 C-3.88522048 8.01425126 -2.11341324 3.99834938 0 0 Z " fill="#B8BABD" transform="translate(956,245)" />
<path d="M0 0 C0 0.33 0 0.66 0 1 C-1.26972656 0.83886719 -2.53945313 0.67773438 -3.84765625 0.51171875 C-9.05291377 -0.06347595 -14.20419915 -0.18367169 -19.4375 -0.1875 C-20.31470703 -0.19974609 -21.19191406 -0.21199219 -22.09570312 -0.22460938 C-28.22918384 -0.23816902 -34.07039247 0.3623421 -40 2 C-40.33 2.33 -40.66 2.66 -41 3 C-42.51928038 3.07179964 -44.04167482 3.08392007 -45.5625 3.0625 C-46.38878906 3.05347656 -47.21507812 3.04445312 -48.06640625 3.03515625 C-48.70449219 3.02355469 -49.34257813 3.01195312 -50 3 C-46.3653035 -0.6346965 -41.21006592 -1.55569885 -36.27929688 -2.62646484 C-24.2576253 -4.5965974 -11.59220402 -3.6131545 0 0 Z " fill="#ABADAC" transform="translate(856,214)" />
<path d="M0 0 C6.8359375 -0.1953125 6.8359375 -0.1953125 9 0 C9.66 0.66 10.32 1.32 11 2 C11.375 4.4375 11.375 4.4375 11 7 C9.4375 8.8125 9.4375 8.8125 7 10 C3.25 10.1875 3.25 10.1875 0 10 C0 6.7 0 3.4 0 0 Z " fill="#131113" transform="translate(1157,616)" />
<path d="M0 0 C6.93359375 -0.09765625 6.93359375 -0.09765625 9 0 C9.33 0.33 9.66 0.66 10 1 C10.04092937 3.33297433 10.04241723 5.66705225 10 8 C7 10 7 10 3.3125 10.125 C1.6728125 10.063125 1.6728125 10.063125 0 10 C0 6.7 0 3.4 0 0 Z " fill="#171517" transform="translate(965,616)" />
<path d="M0 0 C27.39 0 54.78 0 83 0 C83 0.33 83 0.66 83 1 C79.39588419 1.16777857 75.7916996 1.33403188 72.1875 1.5 C71.16333984 1.54769531 70.13917969 1.59539062 69.08398438 1.64453125 C68.10107422 1.68964844 67.11816406 1.73476563 66.10546875 1.78125 C65.19949951 1.82314453 64.29353027 1.86503906 63.36010742 1.90820312 C42.96160772 2.70160706 22.41508098 2 2 2 C1.34 1.34 0.68 0.68 0 0 Z " fill="#3137B6" transform="translate(246,277)" />
<path d="M0 0 C0.33 0 0.66 0 1 0 C1.50559908 1.43554025 2.0042749 2.8735202 2.5 4.3125 C2.7784375 5.11300781 3.056875 5.91351563 3.34375 6.73828125 C4 9 4 9 4 12 C4.66 12 5.32 12 6 12 C6.33 13.32 6.66 14.64 7 16 C7.66 16 8.32 16 9 16 C9.433125 17.134375 9.86625 18.26875 10.3125 19.4375 C11.1478125 21.2009375 11.1478125 21.2009375 12 23 C12.99 23.33 13.98 23.66 15 24 C19.10981215 27.58291316 21.48458267 31.24865616 24 36 C15.78489219 32.18324637 10.62698299 25.72890217 5.8359375 18.2109375 C3.06800714 13.37000398 0.53962663 8.3760733 -1 3 C-0.67 2.01 -0.34 1.02 0 0 Z " fill="#B8BABC" transform="translate(951,298)" />
<path d="M0 0 C5.27935662 1.32529303 10.15073499 3.5644947 15 6 C15 6.66 15 7.32 15 8 C15.94875 8.2475 16.8975 8.495 17.875 8.75 C18.90625 9.1625 19.9375 9.575 21 10 C22.375 12.125 22.375 12.125 23 14 C18.57996108 11.90021904 14.50783006 9.24727919 10.36328125 6.65625 C2.6148064 2.84050861 -5.05607051 2.72862861 -13.5625 2.875 C-14.57119141 2.88402344 -15.57988281 2.89304688 -16.61914062 2.90234375 C-19.07968457 2.92566644 -21.53970896 2.95839237 -24 3 C-17.08085656 -1.61276229 -8.09648611 -0.95609427 0 0 Z " fill="#AEB0B2" transform="translate(1028,235)" />
<path d="M0 0 C1.81242052 -0.02687279 3.62495233 -0.04633715 5.4375 -0.0625 C6.44683594 -0.07410156 7.45617188 -0.08570313 8.49609375 -0.09765625 C9.73552734 -0.04931641 9.73552734 -0.04931641 11 0 C11.33 0.33 11.66 0.66 12 1 C12.04063832 2.66617115 12.042721 4.33388095 12 6 C7.82262526 7.59138085 4.46839215 8.21278058 0 8 C0 5.36 0 2.72 0 0 Z " fill="#08070A" transform="translate(1028,617)" />
<path d="M0 0 C1.9609375 -0.203125 1.9609375 -0.203125 4.375 -0.25 C5.16648438 -0.27578125 5.95796875 -0.3015625 6.7734375 -0.328125 C9 0 9 0 10.7890625 1.265625 C12 3 12 3 12 7 C7.71 7 3.42 7 -1 7 C-1 5.02 -1 3.04 -1 1 C-0.67 0.67 -0.34 0.34 0 0 Z " fill="#0E0D0F" transform="translate(247,628)" />
<path d="M0 0 C3.40734838 0.42591855 6.2366905 1.0946762 9.4375 2.375 C24.05572422 7.92829188 39.58535837 7.68298487 55 8 C55 8.33 55 8.66 55 9 C18.34920938 10.27191745 18.34920938 10.27191745 4 3 C1.55078125 1.30078125 1.55078125 1.30078125 0 0 Z " fill="#B6B7B6" transform="translate(628,338)" />
<path d="M0 0 C3.96 0 7.92 0 12 0 C12 1.65 12 3.3 12 5 C11.34 5.66 10.68 6.32 10 7 C7.6171875 7.1953125 7.6171875 7.1953125 4.875 7.125 C3.50988281 7.09792969 3.50988281 7.09792969 2.1171875 7.0703125 C1.41851562 7.04710937 0.71984375 7.02390625 0 7 C0 4.69 0 2.38 0 0 Z " fill="#232227" transform="translate(245,616)" />
<path d="M0 0 C0.78568359 -0.00257813 1.57136719 -0.00515625 2.38085938 -0.0078125 C3.59805664 0.00378906 3.59805664 0.00378906 4.83984375 0.015625 C5.65517578 0.00789062 6.47050781 0.00015625 7.31054688 -0.0078125 C8.09494141 -0.00523437 8.87933594 -0.00265625 9.6875 0 C10.40043213 0.00225586 11.11336426 0.00451172 11.84790039 0.00683594 C13.77734375 0.265625 13.77734375 0.265625 16.77734375 2.265625 C16.0817334 2.29479004 15.38612305 2.32395508 14.66943359 2.35400391 C11.49491665 2.50366046 8.32445239 2.69671294 5.15234375 2.890625 C4.05792969 2.93574219 2.96351563 2.98085937 1.8359375 3.02734375 C-3.99869025 3.34534944 -3.99869025 3.34534944 -9.30419922 5.53662109 C-11.54031749 7.64202681 -13.02536379 9.69290224 -14.02734375 12.6015625 C-14.05054688 13.27445313 -14.07375 13.94734375 -14.09765625 14.640625 C-14.13890625 15.836875 -14.18015625 17.033125 -14.22265625 18.265625 C-14.55265625 18.265625 -14.88265625 18.265625 -15.22265625 18.265625 C-15.66644585 15.15909782 -15.78795686 12.36248923 -15.22265625 9.265625 C-11.593269 3.92652641 -6.59494692 0.02083476 0 0 Z " fill="#50555D" transform="translate(659.22265625,234.734375)" />
<path d="M0 0 C1.65 0 3.3 0 5 0 C5.02693575 2.12493141 5.04636628 4.24995912 5.0625 6.375 C5.07410156 7.55835938 5.08570313 8.74171875 5.09765625 9.9609375 C5 13 5 13 4 15 C2.68 15 1.36 15 0 15 C0 10.05 0 5.1 0 0 Z " fill="#29874A" transform="translate(902,604)" />
<path d="M0 0 C1.08282391 3.61559868 0.73885623 6.48930854 0.26220703 10.22216797 C-0.28159708 15.98325105 -0.10094228 21.78137243 -0.0625 27.5625 C-0.05798828 28.85736328 -0.05347656 30.15222656 -0.04882812 31.48632812 C-0.03712601 34.657601 -0.02073113 37.82877546 0 41 C-4.50330443 32.26656114 -3.61995096 21.60349964 -3 12 C-2.41522505 7.88459852 -1.34276695 3.93238893 0 0 Z " fill="#B0B1B2" transform="translate(766,258)" />
<path d="M0 0 C8.58 0 17.16 0 26 0 C26 0.99 26 1.98 26 3 C22.41682042 3.08720919 18.83391433 3.14046112 15.25 3.1875 C14.23421875 3.21263672 13.2184375 3.23777344 12.171875 3.26367188 C11.1921875 3.27333984 10.2125 3.28300781 9.203125 3.29296875 C7.85202637 3.31653442 7.85202637 3.31653442 6.47363281 3.34057617 C4 3 4 3 0 0 Z " fill="#34977D" transform="translate(952,519)" />
<path d="M0 0 C0.66 0.33 1.32 0.66 2 1 C-3.97660671 8.8639562 -11.71078997 13.72145528 -21 17 C-23.9375 17.1875 -23.9375 17.1875 -26 17 C-26 16.34 -26 15.68 -26 15 C-25.39414062 14.85304688 -24.78828125 14.70609375 -24.1640625 14.5546875 C-14.41850304 11.9458762 -6.77135172 7.48412558 0 0 Z " fill="#D6D7D7" transform="translate(709,329)" />
<path d="M0 0 C1.08148315 0.00616333 1.08148315 0.00616333 2.18481445 0.01245117 C14.42353343 0.14116325 14.42353343 0.14116325 19.3125 2.6875 C19.9725 3.161875 20.6325 3.63625 21.3125 4.125 C21.3125 4.785 21.3125 5.445 21.3125 6.125 C20.73709473 5.91061279 20.16168945 5.69622559 19.56884766 5.4753418 C12.48961929 3.06913267 6.11870237 2.76142655 -1.3125 2.9375 C-2.41207031 2.95103516 -3.51164063 2.96457031 -4.64453125 2.97851562 C-7.32605332 3.013492 -10.00650073 3.06256928 -12.6875 3.125 C-9.01112257 -0.55137743 -4.87964136 -0.03284642 0 0 Z " fill="#A1A3A7" transform="translate(831.6875,234.875)" />
<path d="M0 0 C0.33 0.99 0.66 1.98 1 3 C1.80219971 2.98952637 2.60439941 2.97905273 3.4309082 2.96826172 C7.05807372 2.92674233 10.68518928 2.90068657 14.3125 2.875 C15.57513672 2.85824219 16.83777344 2.84148437 18.13867188 2.82421875 C19.95141602 2.81455078 19.95141602 2.81455078 21.80078125 2.8046875 C22.91622314 2.79421387 24.03166504 2.78374023 25.1809082 2.77294922 C28 3 28 3 31 5 C20.44 5 9.88 5 -1 5 C-0.67 3.35 -0.34 1.7 0 0 Z " fill="#2F7548" transform="translate(233,221)" />
<path d="M0 0 C1.22493164 -0.01836914 1.22493164 -0.01836914 2.47460938 -0.03710938 C7.88181365 -0.05003496 12.49377644 0.67540327 17.6875 2.1875 C17.6875 2.5175 17.6875 2.8475 17.6875 3.1875 C6.1375 3.1875 -5.4125 3.1875 -17.3125 3.1875 C-11.91959764 -0.40776824 -6.28259876 0.00488918 0 0 Z " fill="#A6AAAA" transform="translate(667.3125,210.8125)" />
<path d="M0 0 C4.95 0 9.9 0 15 0 C15 1.32 15 2.64 15 4 C10.05 4 5.1 4 0 4 C0 2.68 0 1.36 0 0 Z " fill="#36897E" transform="translate(884,623)" />
<path d="M0 0 C3.51865145 0.3015987 5.00757452 1.00605962 7.8125 3.25 C10 6 10 6 10.3125 8.8125 C10.1578125 9.8953125 10.1578125 9.8953125 10 11 C7.51275949 10.5998787 6.19607419 10.17538747 4.296875 8.4765625 C3.78640625 7.86554687 3.2759375 7.25453125 2.75 6.625 C2.22921875 6.01914062 1.7084375 5.41328125 1.171875 4.7890625 C0 3 0 3 0 0 Z " fill="#248053" transform="translate(890,610)" />
<path d="M0 0 C0.84820313 0.2165625 1.69640625 0.433125 2.5703125 0.65625 C14.62040602 3.51649198 25.89941377 4.12273193 38 1 C36.8125 2.4375 36.8125 2.4375 35 4 C29.89418491 5.29722008 24.85900985 5.18386527 19.625 5.1875 C18.24441406 5.20586914 18.24441406 5.20586914 16.8359375 5.22460938 C11.51487056 5.23601166 6.97290449 4.97472856 2 3 C1.34 2.01 0.68 1.02 0 0 Z " fill="#BBBFC2" transform="translate(646,320)" />
<path d="M0 0 C0.66 0.33 1.32 0.66 2 1 C-4.49461666 8.7435814 -4.49461666 8.7435814 -8.25 11.6875 C-10.94794272 13.95622456 -12.40066001 15.89017225 -14 19 C-14.66 19 -15.32 19 -16 19 C-14.60501079 14.82995203 -12.6536642 12.162892 -9.6875 8.9375 C-8.92824219 8.10089844 -8.16898438 7.26429688 -7.38671875 6.40234375 C-5.05286276 4.05320884 -2.62618539 2.01263411 0 0 Z " fill="#DDDFDF" transform="translate(790,225)" />
<path d="M0 0 C1.32 0 2.64 0 4 0 C5.703125 1.75 5.703125 1.75 7.25 4 C8.03117188 5.11375 8.03117188 5.11375 8.828125 6.25 C9.21484375 6.8275 9.6015625 7.405 10 8 C9.67 8.99 9.34 9.98 9 11 C5.76909638 10.01277945 4.07063638 9.07254547 1.6875 6.625 C0 4 0 4 0 0 Z " fill="#207447" transform="translate(908,629)" />
<path d="M0 0 C2.90408342 3.87211123 3.85079464 6.40317854 5 11 C2.03 11 -0.94 11 -4 11 C-2.68 7.37 -1.36 3.74 0 0 Z " fill="#1B1C1E" transform="translate(356,618)" />
<path d="M0 0 C0.66 0 1.32 0 2 0 C3.051875 1.4540625 3.051875 1.4540625 4.125 2.9375 C9.15332025 9.13401586 17.05786192 12.36403457 24 16 C24 16.66 24 17.32 24 18 C15.47761624 15.75726743 8.37190701 10.851246 2.27734375 4.61328125 C1 3 1 3 0 0 Z " fill="#C1C2C5" transform="translate(621,269)" />
<path d="M0 0 C0.66 0.33 1.32 0.66 2 1 C2.6328125 3.06640625 2.6328125 3.06640625 3.125 5.5625 C3.29257813 6.38878906 3.46015625 7.21507812 3.6328125 8.06640625 C3.75398438 8.70449219 3.87515625 9.34257813 4 10 C1.36 10 -1.28 10 -4 10 C-3.52449439 8.51965236 -3.04448784 7.04074979 -2.5625 5.5625 C-2.29566406 4.73878906 -2.02882813 3.91507813 -1.75390625 3.06640625 C-1 1 -1 1 0 0 Z " fill="#24262B" transform="translate(1191,619)" />
<path d="M0 0 C2.91739927 2.91739927 3.62414707 6.1225963 5 10 C2.03 10 -0.94 10 -4 10 C-3.52449439 8.51965236 -3.04448784 7.04074979 -2.5625 5.5625 C-2.29566406 4.73878906 -2.02882813 3.91507813 -1.75390625 3.06640625 C-1 1 -1 1 0 0 Z " fill="#151619" transform="translate(999,619)" />
<path d="M0 0 C0.66 0 1.32 0 2 0 C1.8125 3.25 1.8125 3.25 1 7 C-1.4375 9.4375 -1.4375 9.4375 -4 11 C-4.66 11 -5.32 11 -6 11 C-5.69067406 7.49430605 -4.73401855 5.37635091 -2.5625 2.6875 C-1.2940625 1.3571875 -1.2940625 1.3571875 0 0 Z " fill="#1E7258" transform="translate(898,629)" />
<path d="M0 0 C2.64465038 3.1254959 3.84414715 6.08788267 5 10 C2.36 10 -0.28 10 -3 10 C-2.69201674 8.51988629 -2.378482 7.04092675 -2.0625 5.5625 C-1.80146484 4.32693359 -1.80146484 4.32693359 -1.53515625 3.06640625 C-1 1 -1 1 0 0 Z " fill="#1E2026" transform="translate(217,619)" />
<path d="M0 0 C0.33 0 0.66 0 1 0 C1.02578125 0.82242187 1.0515625 1.64484375 1.078125 2.4921875 C1.41856478 9.19266142 2.25956323 14.64082799 5.01171875 20.765625 C6.3451117 23.78025254 7.16911967 26.81495875 8 30 C7.01 29.67 6.02 29.34 5 29 C4 26.5 4 26.5 3 23 C2.73960937 22.3709375 2.47921875 21.741875 2.2109375 21.09375 C-0.5640507 14.14331226 -0.2839765 7.39390653 0 0 Z " fill="#C2C4C6" transform="translate(974,276)" />
<path d="M0 0 C4.95 0 9.9 0 15 0 C15 0.99 15 1.98 15 3 C10.05 3 5.1 3 0 3 C0 2.01 0 1.02 0 0 Z " fill="#2E8C4C" transform="translate(910,624)" />
<path d="M0 0 C2.44311097 3.01293277 4.02060735 6.00986333 5.5625 9.5625 C6.89295598 12.61716061 8.14540273 15.21810409 10 18 C9.67 18.99 9.34 19.98 9 21 C6.16080782 16.67476255 3.52784712 12.27108233 1.125 7.6875 C0.69445312 6.86636719 0.26390625 6.04523438 -0.1796875 5.19921875 C-0.45039062 4.47347656 -0.72109375 3.74773437 -1 3 C-0.67 2.01 -0.34 1.02 0 0 Z " fill="#CACCCC" transform="translate(767,299)" />
<path d="M0 0 C-1.5294997 3.44137432 -3.45369552 6.2222133 -6 9 C-6.99 9 -7.98 9 -9 9 C-8.75 6.1875 -8.75 6.1875 -8 3 C-5.15391088 0.05576987 -4.24544645 0 0 0 Z " fill="#23823E" transform="translate(918,612)" />
<path d="M0 0 C6.0546875 -0.1953125 6.0546875 -0.1953125 8 0 C8.66 0.66 9.32 1.32 10 2 C11.98821313 2.39764263 13.98944339 2.73775349 16 3 C16 3.33 16 3.66 16 4 C10.72 4 5.44 4 0 4 C0 2.68 0 1.36 0 0 Z " fill="#2E86B7" transform="translate(787,519)" />
<path d="M0 0 C5.28 0.33 10.56 0.66 16 1 C15.34 1.66 14.68 2.32 14 3 C11.25514407 3.14507695 8.61519457 3.18652423 5.875 3.125 C5.12089844 3.11597656 4.36679687 3.10695313 3.58984375 3.09765625 C1.72642746 3.0740687 -0.13682593 3.03819719 -2 3 C-1.34 2.01 -0.68 1.02 0 0 Z " fill="#329594" transform="translate(921,519)" />
<path d="M0 0 C0 4.98769479 -2.03794157 9.4594256 -4 14 C-6.25 17.1875 -6.25 17.1875 -8 19 C-7.58056121 12.56860526 -5.24814584 7.53500242 -2 2 C-1.34 1.34 -0.68 0.68 0 0 Z " fill="#CFD2D5" transform="translate(625,228)" />
<path d="M0 0 C-6.65039209 3.43339114 -12.61899342 4.30126557 -20 4 C-14.6563309 -1.3436691 -7.00589185 -0.2040551 0 0 Z " fill="#C8CAC9" transform="translate(826,213)" />
<path d="M0 0 C10.89 0 21.78 0 33 0 C33 0.33 33 0.66 33 1 C29.06732611 1.1431032 25.13462735 1.28550028 21.2019043 1.42724609 C19.20685496 1.49930096 17.21182579 1.57191337 15.21679688 1.64453125 C13.33637695 1.71220703 13.33637695 1.71220703 11.41796875 1.78125 C9.68196411 1.8440918 9.68196411 1.8440918 7.91088867 1.90820312 C5.94133398 1.97031439 3.97053381 2 2 2 C1.34 1.34 0.68 0.68 0 0 Z " fill="#3631AF" transform="translate(246,277)" />
<path d="M0 0 C0.66 0.33 1.32 0.66 2 1 C-2.62 5.62 -7.24 10.24 -12 15 C-12 14.01 -12 13.02 -12 12 C-10.390625 9.84375 -10.390625 9.84375 -8.25 7.5 C-7.55390625 6.7265625 -6.8578125 5.953125 -6.140625 5.15625 C-4.19891408 3.20036601 -2.25069252 1.58156772 0 0 Z " fill="#23262E" transform="translate(810,242)" />
<path d="M0 0 C7.26 0 14.52 0 22 0 C18.16399713 1.91800144 17.02507754 2.20641423 13 2 C12.01 2 11.02 2 10 2 C7 2 4 2 1 2 C0.67 1.34 0.34 0.68 0 0 Z " fill="#4430BC" transform="translate(224,278)" />
<path d="M0 0 C0.33 0 0.66 0 1 0 C1.20625 1.051875 1.4125 2.10375 1.625 3.1875 C2.26415318 5.49973061 2.82351794 6.81037566 4.46875 8.578125 C5.93178683 9.77891938 7.4620937 10.89671939 9 12 C6 12 6 12 3.95703125 10.6875 C3.24933594 10.130625 2.54164063 9.57375 1.8125 9 C1.09707031 8.443125 0.38164063 7.88625 -0.35546875 7.3125 C-0.89816406 6.879375 -1.44085937 6.44625 -2 6 C-1.125 1.125 -1.125 1.125 0 0 Z " fill="#CDCECF" transform="translate(615,323)" />
<path d="M0 0 C0.78890625 0.03480469 1.5778125 0.06960938 2.390625 0.10546875 C3.18984375 0.13253906 3.9890625 0.15960937 4.8125 0.1875 C5.41578125 0.22230469 6.0190625 0.25710938 6.640625 0.29296875 C6.640625 1.28296875 6.640625 2.27296875 6.640625 3.29296875 C2.350625 3.29296875 -1.939375 3.29296875 -6.359375 3.29296875 C-2.359375 0.29296875 -2.359375 0.29296875 0 0 Z " fill="#E7EAE8" transform="translate(735.359375,623.70703125)" />
<path d="M0 0 C0.33 0.66 0.66 1.32 1 2 C-1.83922046 6.69563383 -4.72322356 9.57857885 -9 13 C-9.33 13.66 -9.66 14.32 -10 15 C-11.32 14.67 -12.64 14.34 -14 14 C-13.40832031 13.57589844 -12.81664062 13.15179688 -12.20703125 12.71484375 C-7.08166998 8.91053808 -3.41398103 5.39629259 0 0 Z " fill="#CBCDCF" transform="translate(869,303)" />
<path d="M0 0 C0.99 0.33 1.98 0.66 3 1 C2.34 1.66 1.68 2.32 1 3 C0.33934809 7.94517384 0.69094863 12.52621297 3 17 C2.01 16.67 1.02 16.34 0 16 C-1.63765366 13.46163682 -2.01277519 11.48470583 -1.93359375 8.48046875 C-1.70650683 5.96088526 -1.45623902 3.48857649 -1 1 C-0.67 0.67 -0.34 0.34 0 0 Z " fill="#CDCFD1" transform="translate(644,241)" />
<path d="M0 0 C0.33 0.66 0.66 1.32 1 2 C0.14453125 4.27734375 0.14453125 4.27734375 -1.1875 6.9375 C-1.82751953 8.25041016 -1.82751953 8.25041016 -2.48046875 9.58984375 C-4.0602418 12.09555061 -5.53427077 13.40017996 -8 15 C-6.62712658 11.30123909 -4.93644547 8.0485524 -2.875 4.6875 C-2.33617187 3.80449219 -1.79734375 2.92148437 -1.2421875 2.01171875 C-0.83226562 1.34785156 -0.42234375 0.68398438 0 0 Z " fill="#2A664A" transform="translate(391,359)" />
<path d="M0 0 C5.28 1.32 10.56 2.64 16 4 C16 4.33 16 4.66 16 5 C10.21101581 5.20674944 5.57067277 4.59162079 0 3 C0 2.01 0 1.02 0 0 Z " fill="#D0D2D4" transform="translate(656,263)" />
<path d="M0 0 C0.99 0.33 1.98 0.66 3 1 C2.66226563 1.50789062 2.32453125 2.01578125 1.9765625 2.5390625 C-0.65410814 6.59911488 -2.70414665 10.287806 -4 15 C-4.33 15 -4.66 15 -5 15 C-4.79406347 10.36642801 -4.59852326 6.35851307 -1.9375 2.4375 C-1.298125 1.633125 -0.65875 0.82875 0 0 Z " fill="#DADCDC" transform="translate(797,252)" />
<path d="M0 0 C4.51617599 -0.07654536 8.59085217 -0.10228696 13 1 C12.67 1.66 12.34 2.32 12 3 C8.7 3 5.4 3 2 3 C1.34 2.01 0.68 1.02 0 0 Z " fill="#358AB8" transform="translate(795,519)" />
<path d="M0 0 C3.26008643 3.16952847 6.22237877 6.39937989 9 10 C7.68 10 6.36 10 5 10 C5 9.34 5 8.68 5 8 C4.360625 7.79375 3.72125 7.5875 3.0625 7.375 C2.381875 6.92125 1.70125 6.4675 1 6 C0.25 2.875 0.25 2.875 0 0 Z " fill="#CDCFD0" transform="translate(796,303)" />
<path d="M0 0 C0.66 0.33 1.32 0.66 2 1 C-0.64 5.62 -3.28 10.24 -6 15 C-6.33 14.01 -6.66 13.02 -7 12 C-5.8203125 9.3359375 -5.8203125 9.3359375 -4.125 6.375 C-3.57070313 5.39273437 -3.01640625 4.41046875 -2.4453125 3.3984375 C-1 1 -1 1 0 0 Z " fill="#3546C7" transform="translate(321,300)" />
<path d="M0 0 C0.625 1.8125 0.625 1.8125 1 4 C0.01 5.485 0.01 5.485 -1 7 C-1.66 7 -2.32 7 -3 7 C-3.2165625 8.175625 -3.2165625 8.175625 -3.4375 9.375 C-4 12 -4 12 -5 14 C-5.66 14 -6.32 14 -7 14 C-5.53967505 8.68972746 -3.01679014 4.53669968 0 0 Z " fill="#2A684C" transform="translate(413,321)" />
<path d="M0 0 C0.66 0.33 1.32 0.66 2 1 C-1.63 4.63 -5.26 8.26 -9 12 C-9.66 11.67 -10.32 11.34 -11 11 C-7.6189962 6.86378916 -4.33409466 3.18683431 0 0 Z " fill="#24272E" transform="translate(994,242)" />
<path d="M0 0 C0.66 0.33 1.32 0.66 2 1 C-0.10758585 4.16137878 -1.96493333 5.23461934 -5.24609375 7.015625 C-7.30880817 8.17331773 -9.1545005 9.5236004 -11 11 C-11.66 10.67 -12.32 10.34 -13 10 C-11.58367866 8.89539041 -10.16692736 7.79133212 -8.75 6.6875 C-7.96109375 6.07261719 -7.1721875 5.45773438 -6.359375 4.82421875 C-4.2537703 3.19620982 -2.13390657 1.59064137 0 0 Z " fill="#CDCFD1" transform="translate(980,221)" />
<path d="M0 0 C4.60853797 0.72008406 8.67237409 2.31295939 13 4 C12.01 5.485 12.01 5.485 11 7 C7.22272911 5.18690997 3.62730178 3.0926741 0 1 C0 0.67 0 0.34 0 0 Z " fill="#B6B9BB" transform="translate(690,241)" />
<path d="M0 0 C0.33 0 0.66 0 1 0 C0.6875 3.375 0.6875 3.375 0 7 C-1.485 7.99 -1.485 7.99 -3 9 C-3.75 7.3125 -3.75 7.3125 -4 5 C-2.125 2.25 -2.125 2.25 0 0 Z " fill="#050811" transform="translate(121,88)" />
<path d="M0 0 C0.99 0.33 1.98 0.66 3 1 C2.52949219 1.39832031 2.05898438 1.79664063 1.57421875 2.20703125 C0.64029297 3.00173828 0.64029297 3.00173828 -0.3125 3.8125 C-0.92738281 4.33457031 -1.54226563 4.85664063 -2.17578125 5.39453125 C-3.85424679 6.87172469 -5.43882034 8.40039131 -7 10 C-6.8125 8.3125 -6.8125 8.3125 -6 6 C-3.5 3.3125 -3.5 3.3125 -1 1 C-0.67 0.67 -0.34 0.34 0 0 Z " fill="#CDCFD2" transform="translate(991,242)" />
<path d="M0 0 C4.62 0.99 9.24 1.98 14 3 C14 3.33 14 3.66 14 4 C12.41820385 4.10867302 10.83422847 4.18589827 9.25 4.25 C8.36828125 4.29640625 7.4865625 4.3428125 6.578125 4.390625 C5.72734375 4.26171875 4.8765625 4.1328125 4 4 C2.68 2.68 1.36 1.36 0 0 Z " fill="#ACAFB2" transform="translate(646,320)" />
<path d="M0 0 C-7.28571429 3.42857143 -7.28571429 3.42857143 -12 3 C-12 2.34 -12 1.68 -12 1 C-3.96428571 -1.27678571 -3.96428571 -1.27678571 0 0 Z " fill="#B4B6B7" transform="translate(695,343)" />
<path d="M0 0 C0.66 0 1.32 0 2 0 C1.39254603 4.85963179 -0.72758967 8.7405518 -3 13 C-3.33 13 -3.66 13 -4 13 C-4 11.35 -4 9.7 -4 8 C-3.01 7.67 -2.02 7.34 -1 7 C-0.67 4.69 -0.34 2.38 0 0 Z " fill="#D9D8D8" transform="translate(896,303)" />
<path d="M0 0 C3 2 3 2 4.25 3.875 C5 6 5 6 4.75 8.0625 C4 10 4 10 2 13 C1.93941406 12.31292969 1.87882812 11.62585938 1.81640625 10.91796875 C1.73261719 10.01691406 1.64882813 9.11585938 1.5625 8.1875 C1.48128906 7.29417969 1.40007812 6.40085937 1.31640625 5.48046875 C1.06510233 2.87256441 1.06510233 2.87256441 0 0 Z " fill="#24583F" transform="translate(498,293)" />
<path d="M0 0 C3.7910119 1.44950455 7.3874638 3.15172566 11 5 C11 5.66 11 6.32 11 7 C6.94718288 5.77472971 3.55639236 4.30119506 0 2 C0 1.34 0 0.68 0 0 Z " fill="#B5B9BB" transform="translate(634,280)" />
<path d="M0 0 C4.54805635 -0.17835515 7.8794254 0.00214565 12 2 C12 2.33 12 2.66 12 3 C10.37419034 2.88601335 8.74932843 2.75844341 7.125 2.625 C6.22007812 2.55539062 5.31515625 2.48578125 4.3828125 2.4140625 C3.20332031 2.20910156 3.20332031 2.20910156 2 2 C1.34 1.34 0.68 0.68 0 0 Z " fill="#8A8C8A" transform="translate(644,344)" />
<path d="M0 0 C0.66 1.32 1.32 2.64 2 4 C2.66 4 3.32 4 4 4 C4.66 5.98 5.32 7.96 6 10 C3.54896452 9.01958581 2.23241214 8.3486182 0.75 6.125 C0 4 0 4 0 0 Z " fill="#D3D4D5" transform="translate(956,310)" />
<path d="M0 0 C0.625 1.6875 0.625 1.6875 1 4 C0.25 6.6875 0.25 6.6875 -1 9 C-1.99 9.33 -2.98 9.66 -4 10 C-2.8905928 6.51329166 -1.73662334 3.22515763 0 0 Z " fill="#C0C5CC" transform="translate(956,245)" />
<path d="M0 0 C2.64 0 5.28 0 8 0 C7.67 1.32 7.34 2.64 7 4 C4.69 3.01 2.38 2.02 0 1 C0 0.67 0 0.34 0 0 Z " fill="#3880C4" transform="translate(614,519)" />
<path d="M0 0 C4.8 4.30769231 4.8 4.30769231 5.8125 7.8125 C5.874375 8.534375 5.93625 9.25625 6 10 C2.51668565 6.98112756 1.20842856 4.43090471 0 0 Z " fill="#154A3A" transform="translate(414,283)" />
<path d="M0 0 C0.33 0.99 0.66 1.98 1 3 C-0.9375 6.1875 -0.9375 6.1875 -3 9 C-3.66 9 -4.32 9 -5 9 C-3.7508258 5.54074837 -2.32472205 2.85306797 0 0 Z " fill="#CDD0D4" transform="translate(779,235)" />
<path d="M0 0 C0.66 0.33 1.32 0.66 2 1 C0.68 3.64 -0.64 6.28 -2 9 C-2.33 9 -2.66 9 -3 9 C-3.1875 6.75 -3.1875 6.75 -3 4 C-1.5 1.6875 -1.5 1.6875 0 0 Z " fill="#357A59" transform="translate(483,330)" />
<path d="M0 0 C0.33 0.99 0.66 1.98 1 3 C2.65 3.33 4.3 3.66 6 4 C6 4.33 6 4.66 6 5 C3.69 5 1.38 5 -1 5 C-0.67 3.35 -0.34 1.7 0 0 Z " fill="#236641" transform="translate(233,221)" />
</svg>
